<svg width="109" height="89" viewBox="0 0 109 89" fill="none" xmlns="http://www.w3.org/2000/svg">
<g clip-path="url(#clip0_3153_8130)">
<path d="M108.764 66.6441L107.684 66.0186L106.603 66.6441L107.684 67.2696L108.764 66.6441Z" fill="#969A9E"/>
<path d="M106.603 70.3873L107.684 71.0128L107.723 70.9882C107.983 70.732 108.199 70.4562 108.376 70.1607L107.684 69.7568L106.603 70.3823V70.3873Z" fill="#969A9E"/>
<path d="M108.175 68.5158L108.882 68.9246C108.951 68.634 108.985 68.3336 108.995 68.0381L108.175 68.5158Z" fill="#969A9E"/>
<path d="M104.609 63.4869L103.577 62.9697L104.54 63.5263L104.609 63.4869Z" fill="#969A9E"/>
<path d="M105.621 66.6441L104.54 66.0186L103.459 66.6441L104.54 67.2696L105.621 66.6441Z" fill="#969A9E"/>
<path d="M107.192 64.7725L106.112 64.147L105.031 64.7725L106.112 65.398L107.192 64.7725Z" fill="#969A9E"/>
<path d="M104.54 69.7617L103.459 70.3872L104.54 71.0127L105.621 70.3872L104.54 69.7617Z" fill="#969A9E"/>
<path d="M107.192 68.5157L106.112 67.8901L105.031 68.5157L106.112 69.1412L107.192 68.5157Z" fill="#969A9E"/>
<path d="M105.031 72.2591L105.444 72.4955C105.812 72.2985 106.171 72.0867 106.524 71.87L106.112 71.6335L105.031 72.2591Z" fill="#969A9E"/>
<path d="M102.477 62.9009L101.397 62.2754L100.316 62.9009L101.397 63.5264L102.477 62.9009Z" fill="#969A9E"/>
<path d="M102.477 66.6441L101.397 66.0186L100.316 66.6441L101.397 67.2696L102.477 66.6441Z" fill="#969A9E"/>
<path d="M104.049 64.7725L102.968 64.147L101.888 64.7725L102.968 65.398L104.049 64.7725Z" fill="#969A9E"/>
<path d="M102.477 70.3872L101.397 69.7617L100.316 70.3872L101.397 71.0127L102.477 70.3872Z" fill="#969A9E"/>
<path d="M104.049 68.5157L102.968 67.8901L101.888 68.5157L102.968 69.1412L104.049 68.5157Z" fill="#969A9E"/>
<path d="M100.316 74.1306L101.018 74.5394C101.426 74.3572 101.834 74.1799 102.246 73.9977L101.397 73.5051L100.316 74.1306Z" fill="#969A9E"/>
<path d="M101.888 72.2591L102.968 72.8846L104.049 72.2591L102.968 71.6335L101.888 72.2591Z" fill="#969A9E"/>
<path d="M99.3336 62.9009L98.253 62.2754L97.1724 62.9009L98.253 63.5264L99.3336 62.9009Z" fill="#969A9E"/>
<path d="M100.36 61.3446L99.2108 60.7634L98.7441 61.0294L99.8248 61.6549L100.36 61.3446Z" fill="#969A9E"/>
<path d="M99.3336 66.6441L98.253 66.0186L97.1724 66.6441L98.253 67.2696L99.3336 66.6441Z" fill="#969A9E"/>
<path d="M100.905 64.7725L99.8248 64.147L98.7441 64.7725L99.8248 65.398L100.905 64.7725Z" fill="#969A9E"/>
<path d="M99.3336 70.3872L98.253 69.7617L97.1724 70.3872L98.253 71.0127L99.3336 70.3872Z" fill="#969A9E"/>
<path d="M100.905 68.5157L99.8248 67.8901L98.7441 68.5157L99.8248 69.1412L100.905 68.5157Z" fill="#969A9E"/>
<path d="M97.1724 74.1306L98.253 74.7561L99.3336 74.1306L98.253 73.5051L97.1724 74.1306Z" fill="#969A9E"/>
<path d="M99.8248 71.6335L98.7441 72.2591L99.8248 72.8846L100.905 72.2591L99.8248 71.6335Z" fill="#969A9E"/>
<path d="M94.0283 59.1577L95.1089 59.7832L96.1061 59.2069C95.718 59.0148 95.3349 58.8178 94.9469 58.6257L94.0283 59.1577Z" fill="#969A9E"/>
<path d="M96.1896 62.9009L95.1089 62.2754L94.0283 62.9009L95.1089 63.5264L96.1896 62.9009Z" fill="#969A9E"/>
<path d="M97.7613 61.0293L96.6807 60.4038L95.6001 61.0293L96.6807 61.6548L97.7613 61.0293Z" fill="#969A9E"/>
<path d="M96.1896 66.6441L95.1089 66.0186L94.0283 66.6441L95.1089 67.2696L96.1896 66.6441Z" fill="#969A9E"/>
<path d="M97.7613 64.7725L96.6807 64.147L95.6001 64.7725L96.6807 65.398L97.7613 64.7725Z" fill="#969A9E"/>
<path d="M96.1896 70.3872L95.1089 69.7617L94.0283 70.3872L95.1089 71.0127L96.1896 70.3872Z" fill="#969A9E"/>
<path d="M97.7613 68.5157L96.6807 67.8901L95.6001 68.5157L96.6807 69.1412L97.7613 68.5157Z" fill="#969A9E"/>
<path d="M96.1896 74.1306L95.1089 73.5051L94.0283 74.1306L95.1089 74.7561L96.1896 74.1306Z" fill="#969A9E"/>
<path d="M97.7613 72.2591L96.6807 71.6335L95.6001 72.2591L96.6807 72.8846L97.7613 72.2591Z" fill="#969A9E"/>
<path d="M94.7065 77.4847L95.1535 77.2729L95.1093 77.2483L94.7065 77.4847Z" fill="#969A9E"/>
<path d="M95.6001 76.0022L96.6169 76.5883L97.3242 76.2583L97.7613 76.0022L96.6807 75.3767L95.6001 76.0022Z" fill="#969A9E"/>
<path d="M93.046 59.1577L91.9654 58.5322L90.8848 59.1577L91.9654 59.7833L93.046 59.1577Z" fill="#969A9E"/>
<path d="M93.046 62.9009L91.9654 62.2754L90.8848 62.9009L91.9654 63.5264L93.046 62.9009Z" fill="#969A9E"/>
<path d="M94.6178 61.0293L93.5372 60.4038L92.4565 61.0293L93.5372 61.6548L94.6178 61.0293Z" fill="#969A9E"/>
<path d="M93.046 66.6441L91.9654 66.0186L90.8848 66.6441L91.9654 67.2696L93.046 66.6441Z" fill="#969A9E"/>
<path d="M94.6178 64.7725L93.5372 64.147L92.4565 64.7725L93.5372 65.398L94.6178 64.7725Z" fill="#969A9E"/>
<path d="M93.046 70.3872L91.9654 69.7617L90.8848 70.3872L91.9654 71.0127L93.046 70.3872Z" fill="#969A9E"/>
<path d="M94.6178 68.5157L93.5372 67.8901L92.4565 68.5157L93.5372 69.1412L94.6178 68.5157Z" fill="#969A9E"/>
<path d="M93.046 74.1306L91.9654 73.5051L90.8848 74.1306L91.9654 74.7561L93.046 74.1306Z" fill="#969A9E"/>
<path d="M94.6178 72.2591L93.5372 71.6335L92.4565 72.2591L93.5372 72.8846L94.6178 72.2591Z" fill="#969A9E"/>
<path d="M90.8848 77.8738L91.9654 78.4993L93.046 77.8738L91.9654 77.2483L90.8848 77.8738Z" fill="#969A9E"/>
<path d="M92.4565 76.0022L93.5372 76.6277L94.6178 76.0022L93.5372 75.3767L92.4565 76.0022Z" fill="#969A9E"/>
<path d="M89.2246 55.8085L88.0654 55.2273L87.7412 55.4145L88.8218 56.04L89.2246 55.8085Z" fill="#969A9E"/>
<path d="M89.9024 59.1577L88.8218 58.5322L87.7412 59.1577L88.8218 59.7833L89.9024 59.1577Z" fill="#969A9E"/>
<path d="M91.4742 57.2862L90.3936 56.6606L89.313 57.2862L90.3936 57.9117L91.4742 57.2862Z" fill="#969A9E"/>
<path d="M89.9024 62.9009L88.8218 62.2754L87.7412 62.9009L88.8218 63.5264L89.9024 62.9009Z" fill="#969A9E"/>
<path d="M91.4742 61.0293L90.3936 60.4038L89.313 61.0293L90.3936 61.6548L91.4742 61.0293Z" fill="#969A9E"/>
<path d="M89.9024 66.6441L88.8218 66.0186L87.7412 66.6441L88.8218 67.2696L89.9024 66.6441Z" fill="#969A9E"/>
<path d="M91.4742 64.7725L90.3936 64.147L89.313 64.7725L90.3936 65.398L91.4742 64.7725Z" fill="#969A9E"/>
<path d="M89.9024 70.3872L88.8218 69.7617L87.7412 70.3872L88.8218 71.0127L89.9024 70.3872Z" fill="#969A9E"/>
<path d="M91.4742 68.5157L90.3936 67.8901L89.313 68.5157L90.3936 69.1412L91.4742 68.5157Z" fill="#969A9E"/>
<path d="M89.9024 74.1306L88.8218 73.5051L87.7412 74.1306L88.8218 74.7561L89.9024 74.1306Z" fill="#969A9E"/>
<path d="M91.4742 72.2591L90.3936 71.6335L89.313 72.2591L90.3936 72.8846L91.4742 72.2591Z" fill="#969A9E"/>
<path d="M88.8218 77.2483L87.7412 77.8738L88.8218 78.4993L89.9024 77.8738L88.8218 77.2483Z" fill="#969A9E"/>
<path d="M91.4742 76.0022L90.3936 75.3767L89.313 76.0022L90.3936 76.6277L91.4742 76.0022Z" fill="#969A9E"/>
<path d="M89.313 79.7454L89.5881 79.9079L90.7718 79.3415L90.3936 79.1199L89.313 79.7454Z" fill="#969A9E"/>
<path d="M86.7589 55.4143L85.6783 54.7888L84.5977 55.4143L85.6783 56.0398L86.7589 55.4143Z" fill="#969A9E"/>
<path d="M86.7589 59.1577L85.6783 58.5322L84.5977 59.1577L85.6783 59.7833L86.7589 59.1577Z" fill="#969A9E"/>
<path d="M88.3307 57.2862L87.2501 56.6606L86.1694 57.2862L87.2501 57.9117L88.3307 57.2862Z" fill="#969A9E"/>
<path d="M86.7589 62.9009L85.6783 62.2754L84.5977 62.9009L85.6783 63.5264L86.7589 62.9009Z" fill="#969A9E"/>
<path d="M88.3307 61.0293L87.2501 60.4038L86.1694 61.0293L87.2501 61.6548L88.3307 61.0293Z" fill="#969A9E"/>
<path d="M86.7589 66.6441L85.6783 66.0186L84.5977 66.6441L85.6783 67.2696L86.7589 66.6441Z" fill="#969A9E"/>
<path d="M88.3307 64.7725L87.2501 64.147L86.1694 64.7725L87.2501 65.398L88.3307 64.7725Z" fill="#969A9E"/>
<path d="M86.7589 70.3872L85.6783 69.7617L84.5977 70.3872L85.6783 71.0127L86.7589 70.3872Z" fill="#969A9E"/>
<path d="M88.3307 68.5157L87.2501 67.8901L86.1694 68.5157L87.2501 69.1412L88.3307 68.5157Z" fill="#969A9E"/>
<path d="M86.7589 74.1306L85.6783 73.5051L84.5977 74.1306L85.6783 74.7561L86.7589 74.1306Z" fill="#969A9E"/>
<path d="M88.3307 72.2591L87.2501 71.6335L86.1694 72.2591L87.2501 72.8846L88.3307 72.2591Z" fill="#969A9E"/>
<path d="M86.7589 77.8738L85.6783 77.2483L84.5977 77.8738L85.6783 78.4993L86.7589 77.8738Z" fill="#969A9E"/>
<path d="M88.3307 76.0022L87.2501 75.3767L86.1694 76.0022L87.2501 76.6277L88.3307 76.0022Z" fill="#969A9E"/>
<path d="M84.5977 81.617L85.2264 81.9814C85.6242 81.7943 86.0221 81.612 86.42 81.42L85.6783 80.9915L84.5977 81.617Z" fill="#969A9E"/>
<path d="M86.1694 79.7454L87.2501 80.3709L88.3307 79.7454L87.2501 79.1199L86.1694 79.7454Z" fill="#969A9E"/>
<path d="M83.6153 55.4143L82.5347 54.7888L81.4541 55.4143L82.5347 56.0398L83.6153 55.4143Z" fill="#969A9E"/>
<path d="M84.8826 53.72C84.465 53.5378 84.0426 53.3654 83.6153 53.2029L83.0308 53.5427L84.1114 54.1682L84.8826 53.72Z" fill="#969A9E"/>
<path d="M83.6153 59.1577L82.5347 58.5322L81.4541 59.1577L82.5347 59.7833L83.6153 59.1577Z" fill="#969A9E"/>
<path d="M85.1871 57.2862L84.1065 56.6606L83.0259 57.2862L84.1065 57.9117L85.1871 57.2862Z" fill="#969A9E"/>
<path d="M83.6153 62.9009L82.5347 62.2754L81.4541 62.9009L82.5347 63.5264L83.6153 62.9009Z" fill="#969A9E"/>
<path d="M85.1871 61.0293L84.1065 60.4038L83.0259 61.0293L84.1065 61.6548L85.1871 61.0293Z" fill="#969A9E"/>
<path d="M83.6153 66.6441L82.5347 66.0186L81.4541 66.6441L82.5347 67.2696L83.6153 66.6441Z" fill="#969A9E"/>
<path d="M85.1871 64.7725L84.1065 64.147L83.0259 64.7725L84.1065 65.398L85.1871 64.7725Z" fill="#969A9E"/>
<path d="M83.6153 70.3872L82.5347 69.7617L81.4541 70.3872L82.5347 71.0127L83.6153 70.3872Z" fill="#969A9E"/>
<path d="M85.1871 68.5157L84.1065 67.8901L83.0259 68.5157L84.1065 69.1412L85.1871 68.5157Z" fill="#969A9E"/>
<path d="M83.6153 74.1306L82.5347 73.5051L81.4541 74.1306L82.5347 74.7561L83.6153 74.1306Z" fill="#969A9E"/>
<path d="M85.1871 72.2591L84.1065 71.6335L83.0259 72.2591L84.1065 72.8846L85.1871 72.2591Z" fill="#969A9E"/>
<path d="M83.6153 77.8738L82.5347 77.2483L81.4541 77.8738L82.5347 78.4993L83.6153 77.8738Z" fill="#969A9E"/>
<path d="M85.1871 76.0022L84.1065 75.3767L83.0259 76.0022L84.1065 76.6277L85.1871 76.0022Z" fill="#969A9E"/>
<path d="M81.4541 81.617L82.5347 82.2425L83.6153 81.617L82.5347 80.9915L81.4541 81.617Z" fill="#969A9E"/>
<path d="M84.1065 79.1199L83.0259 79.7454L84.1065 80.3709L85.1871 79.7454L84.1065 79.1199Z" fill="#969A9E"/>
<path d="M79.7791 52.0751C79.4304 52.0111 79.0817 51.9569 78.7329 51.9175L79.3911 52.3017L79.7742 52.08L79.7791 52.0751Z" fill="#969A9E"/>
<path d="M80.4718 55.4143L79.3912 54.7888L78.3105 55.4143L79.3912 56.0398L80.4718 55.4143Z" fill="#969A9E"/>
<path d="M82.0436 53.5427L80.9629 52.9172L79.8823 53.5427L80.9629 54.1683L82.0436 53.5427Z" fill="#969A9E"/>
<path d="M80.4718 59.1577L79.3912 58.5322L78.3105 59.1577L79.3912 59.7833L80.4718 59.1577Z" fill="#969A9E"/>
<path d="M82.0436 57.2862L80.9629 56.6606L79.8823 57.2862L80.9629 57.9117L82.0436 57.2862Z" fill="#969A9E"/>
<path d="M80.4718 62.9009L79.3912 62.2754L78.3105 62.9009L79.3912 63.5264L80.4718 62.9009Z" fill="#969A9E"/>
<path d="M82.0436 61.0293L80.9629 60.4038L79.8823 61.0293L80.9629 61.6548L82.0436 61.0293Z" fill="#969A9E"/>
<path d="M80.4718 66.6441L79.3912 66.0186L78.3105 66.6441L79.3912 67.2696L80.4718 66.6441Z" fill="#969A9E"/>
<path d="M82.0436 64.7725L80.9629 64.147L79.8823 64.7725L80.9629 65.398L82.0436 64.7725Z" fill="#969A9E"/>
<path d="M80.4718 70.3872L79.3912 69.7617L78.3105 70.3872L79.3912 71.0127L80.4718 70.3872Z" fill="#969A9E"/>
<path d="M82.0436 68.5157L80.9629 67.8901L79.8823 68.5157L80.9629 69.1412L82.0436 68.5157Z" fill="#969A9E"/>
<path d="M80.4718 74.1306L79.3912 73.5051L78.3105 74.1306L79.3912 74.7561L80.4718 74.1306Z" fill="#969A9E"/>
<path d="M82.0436 72.2591L80.9629 71.6335L79.8823 72.2591L80.9629 72.8846L82.0436 72.2591Z" fill="#969A9E"/>
<path d="M80.4718 77.8738L79.3912 77.2483L78.3105 77.8738L79.3912 78.4993L80.4718 77.8738Z" fill="#969A9E"/>
<path d="M82.0436 76.0022L80.9629 75.3767L79.8823 76.0022L80.9629 76.6277L82.0436 76.0022Z" fill="#969A9E"/>
<path d="M79.3912 80.9915L78.3105 81.617L79.3912 82.2425L80.4718 81.617L79.3912 80.9915Z" fill="#969A9E"/>
<path d="M82.0436 79.7454L80.9629 79.1199L79.8823 79.7454L80.9629 80.3709L82.0436 79.7454Z" fill="#969A9E"/>
<path d="M79.8824 83.4885L80.7272 83.9811C81.1447 83.8087 81.5573 83.6314 81.9699 83.4491L80.9581 82.863L79.8774 83.4885H79.8824Z" fill="#969A9E"/>
<path d="M77.0679 51.824C76.8665 51.824 76.6602 51.824 76.4539 51.8338C76.169 51.8486 75.9136 51.8979 75.668 51.9619L76.2427 52.2968L77.0629 51.824H77.0679Z" fill="#969A9E"/>
<path d="M77.3282 55.4143L76.2476 54.7888L75.167 55.4143L76.2476 56.0398L77.3282 55.4143Z" fill="#969A9E"/>
<path d="M78.9 53.5427L77.8194 52.9172L76.7388 53.5427L77.8194 54.1683L78.9 53.5427Z" fill="#969A9E"/>
<path d="M77.3282 59.1577L76.2476 58.5322L75.167 59.1577L76.2476 59.7833L77.3282 59.1577Z" fill="#969A9E"/>
<path d="M78.9 57.2862L77.8194 56.6606L76.7388 57.2862L77.8194 57.9117L78.9 57.2862Z" fill="#969A9E"/>
<path d="M77.3282 62.9009L76.2476 62.2754L75.167 62.9009L76.2476 63.5264L77.3282 62.9009Z" fill="#969A9E"/>
<path d="M78.9 61.0293L77.8194 60.4038L76.7388 61.0293L77.8194 61.6548L78.9 61.0293Z" fill="#969A9E"/>
<path d="M77.3282 66.6441L76.2476 66.0186L75.167 66.6441L76.2476 67.2696L77.3282 66.6441Z" fill="#969A9E"/>
<path d="M78.9 64.7725L77.8194 64.147L76.7388 64.7725L77.8194 65.398L78.9 64.7725Z" fill="#969A9E"/>
<path d="M77.3282 70.3872L76.2476 69.7617L75.167 70.3872L76.2476 71.0127L77.3282 70.3872Z" fill="#969A9E"/>
<path d="M78.9 68.5157L77.8194 67.8901L76.7388 68.5157L77.8194 69.1412L78.9 68.5157Z" fill="#969A9E"/>
<path d="M77.3282 74.1306L76.2476 73.5051L75.167 74.1306L76.2476 74.7561L77.3282 74.1306Z" fill="#969A9E"/>
<path d="M78.9 72.2591L77.8194 71.6335L76.7388 72.2591L77.8194 72.8846L78.9 72.2591Z" fill="#969A9E"/>
<path d="M77.3282 77.8738L76.2476 77.2483L75.167 77.8738L76.2476 78.4993L77.3282 77.8738Z" fill="#969A9E"/>
<path d="M78.9 76.0022L77.8194 75.3767L76.7388 76.0022L77.8194 76.6277L78.9 76.0022Z" fill="#969A9E"/>
<path d="M77.3282 81.617L76.2476 80.9915L75.167 81.617L76.2476 82.2425L77.3282 81.617Z" fill="#969A9E"/>
<path d="M78.9 79.7454L77.8194 79.1199L76.7388 79.7454L77.8194 80.3709L78.9 79.7454Z" fill="#969A9E"/>
<path d="M75.167 85.3601L75.8399 85.7492C76.3066 85.6113 76.7732 85.4586 77.2349 85.306L76.2476 84.7346L75.167 85.3601Z" fill="#969A9E"/>
<path d="M76.7388 83.4885L77.8194 84.1141L78.9 83.4885L77.8194 82.863L76.7388 83.4885Z" fill="#969A9E"/>
<path d="M73.5457 55.7839L74.1843 55.4145L73.4131 54.9663C73.4229 55.2421 73.4671 55.513 73.5457 55.7839Z" fill="#969A9E"/>
<path d="M75.7564 53.5427L74.6758 52.9172L73.7524 53.4541C73.7278 53.4984 73.7032 53.5477 73.6836 53.592L74.6758 54.1683L75.7564 53.5427Z" fill="#969A9E"/>
<path d="M74.1845 59.1577L73.5459 58.7883C73.3396 59.0691 73.1481 59.3843 72.9614 59.6995L73.099 59.7783L74.1796 59.1528L74.1845 59.1577Z" fill="#969A9E"/>
<path d="M74.6754 57.9117L75.7561 57.2862L74.6754 56.6606L74.1548 56.9611C74.3365 57.1877 74.5477 57.4044 74.7933 57.5915C74.6951 57.6605 74.6018 57.7393 74.5134 57.8181L74.6754 57.9117Z" fill="#969A9E"/>
<path d="M74.1847 62.9009L73.1041 62.2754L72.0234 62.9009L73.1041 63.5264L74.1847 62.9009Z" fill="#969A9E"/>
<path d="M75.7564 61.0293L74.6758 60.4038L73.5952 61.0293L74.6758 61.6548L75.7564 61.0293Z" fill="#969A9E"/>
<path d="M74.1847 66.6441L73.1041 66.0186L72.0234 66.6441L73.1041 67.2696L74.1847 66.6441Z" fill="#969A9E"/>
<path d="M75.7564 64.7725L74.6758 64.147L73.5952 64.7725L74.6758 65.398L75.7564 64.7725Z" fill="#969A9E"/>
<path d="M74.1847 70.3872L73.1041 69.7617L72.0234 70.3872L73.1041 71.0127L74.1847 70.3872Z" fill="#969A9E"/>
<path d="M75.7564 68.5157L74.6758 67.8901L73.5952 68.5157L74.6758 69.1412L75.7564 68.5157Z" fill="#969A9E"/>
<path d="M74.1847 74.1306L73.1041 73.5051L72.0234 74.1306L73.1041 74.7561L74.1847 74.1306Z" fill="#969A9E"/>
<path d="M75.7564 72.2591L74.6758 71.6335L73.5952 72.2591L74.6758 72.8846L75.7564 72.2591Z" fill="#969A9E"/>
<path d="M74.1847 77.8738L73.1041 77.2483L72.0234 77.8738L73.1041 78.4993L74.1847 77.8738Z" fill="#969A9E"/>
<path d="M75.7564 76.0022L74.6758 75.3767L73.5952 76.0022L74.6758 76.6277L75.7564 76.0022Z" fill="#969A9E"/>
<path d="M74.1847 81.617L73.1041 80.9915L72.0234 81.617L73.1041 82.2425L74.1847 81.617Z" fill="#969A9E"/>
<path d="M75.7564 79.7454L74.6758 79.1199L73.5952 79.7454L74.6758 80.3709L75.7564 79.7454Z" fill="#969A9E"/>
<path d="M72.0234 85.3601L73.1041 85.9856L74.1847 85.3601L73.1041 84.7346L72.0234 85.3601Z" fill="#969A9E"/>
<path d="M74.6758 82.863L73.5952 83.4885L74.6758 84.1141L75.7564 83.4885L74.6758 82.863Z" fill="#969A9E"/>
<path d="M71.0407 62.9009L70.9326 62.8369C70.8786 62.9108 70.8245 62.9847 70.7705 63.0586L71.0456 62.9009H71.0407Z" fill="#969A9E"/>
<path d="M71.9839 61.3938L72.6126 61.0293L72.313 60.8569C72.2 61.049 72.0919 61.2313 71.9839 61.3938Z" fill="#969A9E"/>
<path d="M69.96 67.2696L71.0406 66.6441L69.96 66.0186L68.8794 66.6441L69.96 67.2696Z" fill="#969A9E"/>
<path d="M71.5318 65.398L72.6124 64.7725L71.5318 64.147L70.4512 64.7725L71.5318 65.398Z" fill="#969A9E"/>
<path d="M71.0406 70.3872L69.96 69.7617L68.8794 70.3872L69.96 71.0127L71.0406 70.3872Z" fill="#969A9E"/>
<path d="M72.6124 68.5157L71.5318 67.8901L70.4512 68.5157L71.5318 69.1412L72.6124 68.5157Z" fill="#969A9E"/>
<path d="M71.0406 74.1306L69.96 73.5051L68.8794 74.1306L69.96 74.7561L71.0406 74.1306Z" fill="#969A9E"/>
<path d="M72.6124 72.2591L71.5318 71.6335L70.4512 72.2591L71.5318 72.8846L72.6124 72.2591Z" fill="#969A9E"/>
<path d="M71.0406 77.8738L69.96 77.2483L68.8794 77.8738L69.96 78.4993L71.0406 77.8738Z" fill="#969A9E"/>
<path d="M72.6124 76.0022L71.5318 75.3767L70.4512 76.0022L71.5318 76.6277L72.6124 76.0022Z" fill="#969A9E"/>
<path d="M71.0406 81.617L69.96 80.9915L68.8794 81.617L69.96 82.2425L71.0406 81.617Z" fill="#969A9E"/>
<path d="M72.6124 79.7454L71.5318 79.1199L70.4512 79.7454L71.5318 80.3709L72.6124 79.7454Z" fill="#969A9E"/>
<path d="M69.96 84.7346L68.8794 85.3601L69.96 85.9856L71.0406 85.3601L69.96 84.7346Z" fill="#969A9E"/>
<path d="M72.6124 83.4885L71.5318 82.863L70.4512 83.4885L71.5318 84.1141L72.6124 83.4885Z" fill="#969A9E"/>
<path d="M70.9424 86.9512C71.2322 86.8921 71.522 86.828 71.8118 86.7689L71.5367 86.6113L70.9424 86.9561V86.9512Z" fill="#969A9E"/>
<path d="M68.3882 69.1412L69.4688 68.5157L68.3882 67.8901L67.784 68.2398C67.7742 68.4319 67.784 68.6191 67.8086 68.8062L68.3882 69.1412Z" fill="#969A9E"/>
<path d="M67.8974 74.1306L67.4161 73.8499C67.3375 73.904 67.2589 73.9631 67.1803 74.0173C66.9298 74.1897 66.7039 74.3769 66.4976 74.5689L66.8168 74.7512L67.8974 74.1257V74.1306Z" fill="#969A9E"/>
<path d="M67.8971 77.8738L66.8165 77.2483L65.7358 77.8738L66.8165 78.4993L67.8971 77.8738Z" fill="#969A9E"/>
<path d="M69.4689 76.0022L68.3882 75.3767L67.3076 76.0022L68.3882 76.6277L69.4689 76.0022Z" fill="#969A9E"/>
<path d="M67.8971 81.617L66.8165 80.9915L65.7358 81.617L66.8165 82.2425L67.8971 81.617Z" fill="#969A9E"/>
<path d="M69.4689 79.7454L68.3882 79.1199L67.3076 79.7454L68.3882 80.3709L69.4689 79.7454Z" fill="#969A9E"/>
<path d="M66.8165 84.7346L65.7358 85.3601L66.8165 85.9856L67.8971 85.3601L66.8165 84.7346Z" fill="#969A9E"/>
<path d="M69.4689 83.4885L68.3882 82.863L67.3076 83.4885L68.3882 84.1141L69.4689 83.4885Z" fill="#969A9E"/>
<path d="M67.3076 87.2319L67.7742 87.5028C68.3342 87.4141 68.8942 87.3255 69.4541 87.227L68.3882 86.6113L67.3076 87.2368V87.2319Z" fill="#969A9E"/>
<path d="M66.3253 76.0021L65.6622 75.6179C65.4707 75.943 65.3282 76.2779 65.23 76.6178L65.2447 76.6276L66.3253 76.0021Z" fill="#969A9E"/>
<path d="M64.7535 81.617L63.6729 80.9915L62.5923 81.617L63.6729 82.2425L64.7535 81.617Z" fill="#969A9E"/>
<path d="M66.3252 79.7454L65.2446 79.1199H65.2347C65.274 79.2676 65.3182 79.4055 65.3723 79.5434C65.2593 79.5631 64.8172 79.642 64.1836 79.7552L65.2446 80.3709L66.3252 79.7454Z" fill="#969A9E"/>
<path d="M63.6729 84.7346L62.5923 85.3601L63.6729 85.9856L64.7535 85.3601L63.6729 84.7346Z" fill="#969A9E"/>
<path d="M66.3253 83.4885L65.2447 82.863L64.1641 83.4885L65.2447 84.1141L66.3253 83.4885Z" fill="#969A9E"/>
<path d="M64.1641 87.2317L65.2447 87.8572L66.3253 87.2317L65.2447 86.6062L64.1641 87.2317Z" fill="#969A9E"/>
<path d="M61.61 81.617L60.5294 80.9915L59.4487 81.617L60.5294 82.2425L61.61 81.617Z" fill="#969A9E"/>
<path d="M62.7199 80.0164L61.7769 80.1838L62.101 80.371L62.7199 80.0164Z" fill="#969A9E"/>
<path d="M60.5294 84.7346L59.4487 85.3601L60.5294 85.9856L61.61 85.3601L60.5294 84.7346Z" fill="#969A9E"/>
<path d="M63.1817 83.4885L62.1011 82.863L61.0205 83.4885L62.1011 84.1141L63.1817 83.4885Z" fill="#969A9E"/>
<path d="M61.0205 87.2317L62.1011 87.8572L63.1817 87.2317L62.1011 86.6062L61.0205 87.2317Z" fill="#969A9E"/>
<path d="M56.3052 81.617L57.3858 82.2425L58.4664 81.617L57.3858 80.9915L56.3052 81.617Z" fill="#969A9E"/>
<path d="M58.4664 85.3601L57.3858 84.7346L56.3052 85.3601L57.3858 85.9856L58.4664 85.3601Z" fill="#969A9E"/>
<path d="M60.0382 83.4885L58.9576 82.863L57.877 83.4885L58.9576 84.1141L60.0382 83.4885Z" fill="#969A9E"/>
<path d="M56.4819 89.0001C56.978 88.9607 57.4692 88.8819 57.9555 88.808L57.3857 88.478L56.4819 89.0001Z" fill="#969A9E"/>
<path d="M57.877 87.2317L58.9576 87.8572L60.0382 87.2317L58.9576 86.6062L57.877 87.2317Z" fill="#969A9E"/>
<path d="M54.2422 82.2426L55.3228 81.6171L55.0478 81.4595C54.6106 81.5925 54.198 81.7648 53.8247 82.0013L54.2422 82.2426Z" fill="#969A9E"/>
<path d="M55.3229 85.3601L54.2422 84.7346L53.1616 85.3601L54.2422 85.9856L55.3229 85.3601Z" fill="#969A9E"/>
<path d="M56.8946 83.4885L55.814 82.863L54.7334 83.4885L55.814 84.1141L56.8946 83.4885Z" fill="#969A9E"/>
<path d="M54.0259 88.606C54.242 88.7144 54.4679 88.808 54.7086 88.8769C54.8216 88.9065 54.9395 88.9262 55.0525 88.9508L54.242 88.4829L54.0259 88.606Z" fill="#969A9E"/>
<path d="M55.814 86.6062L54.7334 87.2317L55.814 87.8572L56.8946 87.2317L55.814 86.6062Z" fill="#969A9E"/>
<path d="M51.1281 84.7544C50.9267 85.0943 50.8579 85.4834 50.8874 85.8626L51.0986 85.9858L52.1792 85.3602L51.1281 84.7495V84.7544Z" fill="#969A9E"/>
<path d="M52.6702 84.1142L53.7508 83.4887L52.7832 82.9321C52.5376 83.203 52.2969 83.4838 52.0464 83.7596L52.6653 84.1191L52.6702 84.1142Z" fill="#969A9E"/>
<path d="M51.5898 87.2317L52.6705 87.8572L53.7511 87.2317L52.6705 86.6062L51.5898 87.2317Z" fill="#969A9E"/>
<path d="M22.069 12.2837V24.6314L11.4053 30.8077V18.4551L22.069 12.2837Z" fill="#3A3A3A"/>
<path d="M22.0692 12.2837L11.4055 18.4551L0.736816 12.2837L11.4055 6.10742L22.0692 12.2837Z" fill="white"/>
<path d="M11.4055 18.4551V30.8077L0.736816 24.6314V12.2837L11.4055 18.4551Z" fill="#DAE0E5"/>
<path d="M11.4053 19.194C11.2776 19.194 11.1498 19.1595 11.0369 19.0955L0.368223 12.9192C0.014566 12.7173 -0.10332 12.2641 0.0980684 11.9095C0.299456 11.5549 0.751351 11.4367 1.10501 11.6386L11.4053 17.5982L21.7006 11.6386C22.0543 11.4367 22.5012 11.5549 22.7075 11.9095C22.9089 12.2641 22.791 12.7123 22.4374 12.9192L11.7737 19.0906C11.6607 19.1546 11.533 19.1891 11.4053 19.1891V19.194Z" fill="#373A3A"/>
<path d="M11.4052 31.5465C10.9976 31.5465 10.6685 31.2165 10.6685 30.8077V18.4551C10.6685 18.0463 10.9976 17.7163 11.4052 17.7163C11.8129 17.7163 12.142 18.0463 12.142 18.4551V30.8077C12.142 31.2165 11.8129 31.5465 11.4052 31.5465Z" fill="#373A3A"/>
<path d="M11.4054 31.5466C11.2777 31.5466 11.15 31.5121 11.037 31.4481L0.368393 25.2718C0.142445 25.1388 0 24.8974 0 24.6315V12.2838C0 12.0178 0.142445 11.7765 0.368393 11.6435L11.037 5.46717C11.263 5.33419 11.5479 5.33419 11.7738 5.46717L22.4376 11.6435C22.6635 11.7765 22.806 12.0178 22.806 12.2838V24.6315C22.806 24.8974 22.6635 25.1388 22.4376 25.2718L11.7738 31.4481C11.6609 31.5121 11.5331 31.5466 11.4054 31.5466ZM1.47357 24.203L11.4054 29.9508L21.3324 24.203V12.7073L11.4054 6.95953L1.47357 12.7073V24.203Z" fill="#373A3A"/>
<path d="M88.0555 36.2551V50.4646L75.7905 57.5619V43.3525L88.0555 36.2551Z" fill="white"/>
<path d="M88.0555 22.0505V36.2551L75.7905 43.3524V29.1528L88.0555 22.0505Z" fill="white"/>
<path d="M88.0555 22.0506L75.7905 29.1528L63.5156 22.0506L75.7905 14.9434L88.0555 22.0506Z" fill="white"/>
<path d="M75.7905 57.5618V71.7712L63.5156 78.8735V64.6739L75.7905 57.5618Z" fill="#3A3A3A"/>
<path d="M75.7905 43.3523V57.5618L63.5156 64.6739V50.4644L75.7905 43.3523Z" fill="white"/>
<path d="M75.7905 29.1528V43.3524L63.5156 50.4646V36.2551L75.7905 29.1528Z" fill="white"/>
<path d="M75.7903 14.9433L63.5155 22.0505L51.2505 14.9483L63.5155 7.84106L75.7903 14.9433Z" fill="white"/>
<path d="M75.7903 29.1528L63.5155 36.2551L51.2505 29.1479L63.5155 22.0505L75.7903 29.1528Z" fill="white"/>
<path d="M51.2509 0.73877L63.5159 7.84104L51.2509 14.9482L38.9761 7.84104L51.2509 0.73877Z" fill="white"/>
<path d="M63.5159 36.2551L51.2509 43.3574L38.9761 36.2551L51.2509 29.1479L63.5159 36.2551Z" fill="white"/>
<path d="M63.5155 64.6741V78.8737L51.2505 85.971V71.7714L63.5155 64.6741Z" fill="white"/>
<path d="M63.5155 50.4646V64.6741L51.2505 71.7714V57.5619L63.5155 50.4646Z" fill="#DAE0E5"/>
<path d="M63.5155 36.2551V50.4646L51.2505 57.5619V43.3574L63.5155 36.2551Z" fill="white"/>
<path d="M63.5159 22.0505L51.2509 29.1479L38.981 22.0505L51.2509 14.9482L63.5159 22.0505Z" fill="white"/>
<path d="M51.2509 71.7712V85.9708L38.9761 78.8686V64.6689L51.2509 71.7712Z" fill="white"/>
<path d="M51.2509 57.5617V71.7712L38.9761 64.6689V50.4595L51.2509 57.5617Z" fill="white"/>
<path d="M51.2509 43.3574V57.5619L38.9761 50.4597V36.2551L51.2509 43.3574Z" fill="white"/>
<path d="M51.2508 14.9483L38.9809 22.0505L26.7109 14.9433L38.976 7.84106L51.2508 14.9483Z" fill="white"/>
<path d="M51.2508 29.1479L38.976 36.2551L26.7109 29.1528L38.9809 22.0505L51.2508 29.1479Z" fill="#C2C7CC"/>
<path d="M38.9808 22.0506L26.7108 29.1528L14.4409 22.0506L26.7108 14.9434L38.9808 22.0506Z" fill="white"/>
<path d="M38.976 64.6692V78.8688L26.7109 71.7714V57.5669L38.976 64.6692Z" fill="white"/>
<path d="M38.976 50.4597V64.6692L26.7109 57.5669V43.3574L38.976 50.4597Z" fill="#3A3A3A"/>
<path d="M38.976 36.2551V50.4596L26.7109 43.3574V29.1528L38.976 36.2551Z" fill="white"/>
<path d="M26.7108 57.5669V71.7714L14.4409 64.6691V50.4646L26.7108 57.5669Z" fill="#DAE0E5"/>
<path d="M26.7108 43.3574V57.5669L14.4409 50.4646V36.2551L26.7108 43.3574Z" fill="white"/>
<path d="M26.7108 29.1528V43.3573L14.4409 36.2551V22.0505L26.7108 29.1528Z" fill="white"/>
<path d="M51.2507 44.0961C51.123 44.0961 50.9953 44.0617 50.8823 43.9976L14.0725 22.6859C13.8465 22.5529 13.7041 22.3116 13.7041 22.0456C13.7041 21.7796 13.8465 21.5383 14.0725 21.4053L50.8823 0.0985164C51.1082 -0.0344664 51.3931 -0.0344664 51.6191 0.0985164L88.424 21.4102C88.6499 21.5432 88.7923 21.7846 88.7923 22.0505C88.7923 22.3165 88.6499 22.5578 88.424 22.6908L51.6191 44.0026C51.5061 44.0666 51.3784 44.1011 51.2507 44.1011V44.0961ZM15.9145 22.0505L51.2507 42.5053L86.582 22.0505L51.2507 1.59088L15.9145 22.0505Z" fill="#373A3A"/>
<path d="M51.2505 86.7099C50.8428 86.7099 50.5137 86.3799 50.5137 85.9711V43.3574C50.5137 42.9486 50.8428 42.6187 51.2505 42.6187C51.6581 42.6187 51.9872 42.9486 51.9872 43.3574V85.9711C51.9872 86.3799 51.6581 86.7099 51.2505 86.7099Z" fill="#373A3A"/>
<path d="M63.5156 79.6125C63.1079 79.6125 62.7788 79.2825 62.7788 78.8737V36.6837L26.3423 15.5837C25.9887 15.3818 25.8708 14.9287 26.0722 14.5741C26.2736 14.2194 26.7255 14.1012 27.0791 14.3032L63.884 35.6149C64.1099 35.7479 64.2524 35.9892 64.2524 36.2552V78.8737C64.2524 79.2825 63.9233 79.6125 63.5156 79.6125Z" fill="#373A3A"/>
<path d="M51.2505 58.3006C51.1228 58.3006 50.9951 58.2661 50.8821 58.2021L14.0723 36.8904C13.7187 36.6884 13.6008 36.2353 13.8022 35.8807C14.0036 35.5261 14.4555 35.4079 14.8091 35.6098L51.2505 56.7048L87.687 35.6098C88.0406 35.4079 88.4876 35.5261 88.6939 35.8807C88.8953 36.2353 88.7774 36.6835 88.4238 36.8904L51.6189 58.2021C51.5059 58.2661 51.3782 58.3006 51.2505 58.3006Z" fill="#373A3A"/>
<path d="M51.2505 72.5102C51.1228 72.5102 50.9951 72.4757 50.8821 72.4117L14.0723 51.1C13.7187 50.898 13.6008 50.4449 13.8022 50.0903C14.0036 49.7357 14.4555 49.6175 14.8091 49.8194L51.2505 70.9144L87.3186 50.0312V22.0457C87.3186 21.6369 87.6477 21.3069 88.0554 21.3069C88.4631 21.3069 88.7922 21.6369 88.7922 22.0457V50.4597C88.7922 50.7256 88.6497 50.967 88.4238 51.1L51.6189 72.4117C51.5059 72.4757 51.3782 72.5102 51.2505 72.5102Z" fill="#373A3A"/>
<path d="M38.9759 79.6075C38.8531 79.6075 38.7254 79.5779 38.6075 79.509L14.0676 65.3045C13.8417 65.1715 13.6992 64.9301 13.6992 64.6642V22.0506C13.6992 21.6418 14.0283 21.3118 14.436 21.3118C14.8437 21.3118 15.1728 21.6418 15.1728 22.0506V64.2455L39.3443 78.2333C39.6979 78.4353 39.8158 78.8884 39.6144 79.243C39.4769 79.4794 39.2313 79.6124 38.9759 79.6124V79.6075Z" fill="#373A3A"/>
<path d="M51.2507 86.7098C51.123 86.7098 50.9953 86.6754 50.8823 86.6113L38.6124 79.5091C38.2587 79.3071 38.1408 78.854 38.3422 78.4994C38.5436 78.1448 38.9955 78.0266 39.3492 78.2285L51.2507 85.119L75.0538 71.3429V29.5814L38.6075 8.48145C38.2538 8.27951 38.1359 7.82639 38.3373 7.47177C38.5387 7.11714 38.9906 6.99894 39.3443 7.20087L76.154 28.5126C76.38 28.6456 76.5224 28.8869 76.5224 29.1529V71.7714C76.5224 72.0374 76.38 72.2787 76.154 72.4117L51.6142 86.6113C51.5012 86.6754 51.3735 86.7098 51.2458 86.7098H51.2507Z" fill="#373A3A"/>
<path d="M38.976 79.6074C38.5684 79.6074 38.2393 79.2774 38.2393 78.8686V36.2501C38.2393 35.9841 38.3817 35.7428 38.6077 35.6098L75.4174 14.298C75.7711 14.0961 76.2181 14.2143 76.4244 14.5689C76.6258 14.9236 76.5079 15.3718 76.1542 15.5786L39.7128 36.6736V78.8637C39.7128 79.2725 39.3837 79.6025 38.976 79.6025V79.6074Z" fill="#373A3A"/>
<path d="M26.7109 72.5102C26.3032 72.5102 25.9741 72.1802 25.9741 71.7714V29.1529C25.9741 28.8869 26.1166 28.6455 26.3425 28.5126L63.1474 7.20576C63.501 7.00382 63.948 7.12203 64.1543 7.47665C64.3557 7.83127 64.2378 8.27947 63.8842 8.48633L27.4477 29.5814V71.7763C27.4477 72.1851 27.1186 72.5151 26.7109 72.5151V72.5102Z" fill="#373A3A"/>
</g>
<defs>
<clipPath id="clip0_3153_8130">
<rect width="109" height="89" fill="white"/>
</clipPath>
</defs>
</svg>
