<svg width="98" height="84" viewBox="0 0 98 84" fill="none" xmlns="http://www.w3.org/2000/svg">
<path d="M33.4321 5.94214L48.1768 52.6519L39.3399 57.7216L24.5952 11.016L33.4321 5.94214Z" fill="#5F646B"/>
<path d="M24.5952 11.0158L39.3399 57.7214L29.539 52.1002L26.9244 43.1665L12.8458 35.0805L10.2311 41.0102L0.620605 35.4879L15.3198 5.69092L24.5952 11.0158ZM24.1649 33.6032L19.883 18.9084L15.6011 28.6857L24.1608 33.5991L24.1649 33.6032Z" fill="white"/>
<path d="M33.4321 5.94204L24.5952 11.0159L15.3198 5.69102L24.1567 0.617188L33.4321 5.94204Z" fill="white"/>
<path d="M21.7119 25.1799L24.1652 33.6034L15.6055 28.6901L21.7119 25.1799Z" fill="#5F646B"/>
<path d="M19.8874 18.9084L21.7119 25.1798L15.6055 28.6899L19.8874 18.9084Z" fill="#373A3A"/>
<path d="M16.7014 37.2945L10.231 41.0103L12.8456 35.0806L16.7014 37.2945Z" fill="#373A3A"/>
<path d="M39.3399 58.3387C39.2323 58.3387 39.1247 58.3099 39.0296 58.2564L29.2288 52.6352C29.0922 52.557 28.9888 52.4254 28.9433 52.2731L26.399 43.578L13.1354 35.9611L10.7979 41.2613C10.7276 41.4218 10.591 41.5452 10.4214 41.5987C10.2518 41.6522 10.0698 41.6358 9.91669 41.5452L0.310309 36.0229C0.0289847 35.8624 -0.0785804 35.5085 0.0620816 35.2163L14.7613 5.41936C14.8357 5.2671 14.9722 5.15188 15.1377 5.1025C15.3032 5.05312 15.4811 5.07369 15.63 5.16011L24.9055 10.485C25.042 10.5631 25.1413 10.6866 25.1868 10.8347L39.9315 57.5404C40.0101 57.7831 39.9315 58.0465 39.7287 58.207C39.617 58.2975 39.4805 58.3428 39.3399 58.3428V58.3387ZM30.0686 51.6888L38.2725 56.3964L24.0739 11.4314L15.5804 6.55922L1.43147 35.241L9.93738 40.1297L12.2748 34.8295C12.3452 34.669 12.4817 34.5456 12.6513 34.4921C12.8209 34.4386 13.003 34.455 13.1561 34.5456L27.2347 42.6316C27.3753 42.7098 27.4746 42.8415 27.5201 42.9937L30.0644 51.6888H30.0686Z" fill="#373A3A"/>
<path d="M24.1648 34.2206C24.0573 34.2206 23.9497 34.1918 23.8546 34.1383L15.2949 29.225C15.0218 29.0686 14.9101 28.7312 15.0384 28.4431L19.3161 18.6658C19.4196 18.4271 19.6513 18.279 19.9243 18.2954C20.1849 18.3119 20.4083 18.4888 20.4787 18.7399L24.7606 33.4346C24.8309 33.6774 24.7482 33.9367 24.5455 34.093C24.4338 34.1795 24.2972 34.2247 24.1648 34.2247V34.2206ZM16.3953 28.4308L23.1388 32.303L19.7671 20.7274L16.3953 28.4308Z" fill="#373A3A"/>
<path d="M39.3397 58.3386C39.1246 58.3386 38.9178 58.2275 38.8019 58.03C38.6323 57.7337 38.7316 57.3592 39.0295 57.1864L47.4361 52.3636L32.9148 6.35342L24.1565 1.32896L15.6299 6.22585C15.3321 6.39457 14.9556 6.29581 14.7818 5.99952C14.6122 5.70324 14.7115 5.32877 15.0094 5.15594L23.8462 0.0821087C24.0365 -0.0289972 24.2765 -0.0289972 24.4668 0.0821087L33.7422 5.40696C33.8787 5.48515 33.978 5.6086 34.0235 5.75674L48.7682 52.4665C48.8551 52.7422 48.7393 53.0426 48.4869 53.1866L39.65 58.2563C39.5507 58.3139 39.4473 58.3386 39.3397 58.3386Z" fill="#373A3A"/>
<path d="M24.595 11.6332C24.3799 11.6332 24.173 11.522 24.0572 11.3245C23.8876 11.0282 23.9869 10.6538 24.2847 10.4809L33.1216 5.40711C33.4195 5.23839 33.796 5.33715 33.9697 5.63344C34.1394 5.92972 34.0401 6.30419 33.7422 6.47702L24.9053 11.5509C24.806 11.6085 24.7026 11.6332 24.595 11.6332Z" fill="#373A3A"/>
<path d="M10.2313 41.6275C10.0161 41.6275 9.80928 41.5164 9.69344 41.3189C9.52382 41.0226 9.62311 40.6481 9.92098 40.4753L16.3914 36.7594C16.6893 36.5907 17.0658 36.6894 17.2395 36.9857C17.4092 37.282 17.3099 37.6565 17.012 37.8293L10.5415 41.5452C10.4423 41.6028 10.3388 41.6275 10.2313 41.6275Z" fill="#373A3A"/>
<path d="M15.6053 29.3073C15.3902 29.3073 15.1833 29.1962 15.0675 28.9986C14.8978 28.7024 14.9971 28.3238 15.295 28.1551L21.4014 24.6491C21.6993 24.4803 22.0757 24.5791 22.2495 24.8754C22.4191 25.1717 22.3198 25.5502 22.022 25.719L15.9156 29.225C15.8163 29.2826 15.7129 29.3073 15.6053 29.3073Z" fill="#373A3A"/>
<path d="M85.696 57.7253V66.5727C85.696 68.2763 84.5873 69.7659 82.3739 71.0416C80.7273 71.988 78.8532 72.6012 76.7474 72.8851C75.9614 72.9921 75.1629 73.0456 74.352 73.0538H74.1535C73.3633 73.0538 72.5648 73.0086 71.7539 72.9098V67.4121C71.7539 66.2352 71.2492 65.046 70.2397 63.8362C71.5678 64.0831 72.8751 64.2065 74.1535 64.2065H74.352C75.1629 64.1983 75.9614 64.1407 76.7474 64.0378C78.8491 63.7539 80.7273 63.1407 82.3739 62.1943C84.5914 60.9268 85.696 59.4331 85.696 57.7253Z" fill="#5F646B"/>
<path d="M85.4976 56.4333C85.63 56.8736 85.6962 57.3057 85.6962 57.7254C85.6962 59.429 84.5916 60.9269 82.3741 62.1943C80.7275 63.1408 78.8534 63.7539 76.7476 64.0379C75.9616 64.1448 75.1631 64.1983 74.3522 64.2066H74.1537C72.8753 64.2066 71.5638 64.0831 70.2399 63.8362C71.2535 65.046 71.7541 66.2353 71.7541 67.4122C71.7541 67.729 71.721 68.0418 71.6466 68.3545C71.2949 69.8359 70.091 71.1692 68.0183 72.3584C65.6188 73.737 62.8924 74.4242 59.831 74.4242C59.0325 74.4242 58.2133 74.3789 57.3735 74.2843C53.2985 73.8275 48.9586 72.2844 44.354 69.6425L25.7163 58.9393L60.2281 39.1213L77.8812 49.2567C82.2831 51.7833 84.8191 54.1824 85.4935 56.4333H85.4976ZM71.1749 57.2974C73.38 56.0341 72.8381 54.4581 69.5532 52.5693L62.8469 48.7176L56.1944 52.5363L62.8966 56.388C66.1814 58.2727 68.9409 58.5772 71.1749 57.2933V57.2974ZM59.2476 66.0748C61.581 64.7333 61.039 63.0832 57.6217 61.1203L49.4427 56.4209L42.4468 60.4372L50.6259 65.1407C54.0431 67.1036 56.9226 67.4122 59.2518 66.0748H59.2476Z" fill="white"/>
<path d="M71.758 72.9099V76.2555C71.758 76.5682 71.7249 76.881 71.6505 77.1978C71.3112 78.6792 70.0949 80.0125 68.0222 81.2017C65.6227 82.5803 62.8963 83.2675 59.8349 83.2675C59.0364 83.2675 58.2173 83.2222 57.3774 83.1276C53.3024 82.6708 48.9625 81.1277 44.3579 78.4858L25.7202 67.7826V58.9353L44.3579 69.6385C48.9625 72.2803 53.3024 73.8276 57.3774 74.2803C58.2173 74.3708 59.0364 74.4202 59.8349 74.4202C62.8963 74.4202 65.6227 73.7371 68.0222 72.3544C70.0949 71.1652 71.2988 69.8319 71.6505 68.3505C71.7249 68.0378 71.758 67.725 71.758 67.4082V72.9058V72.9099Z" fill="#5F646B"/>
<path d="M69.5529 52.5692C72.8378 54.4539 73.3798 56.0299 71.1747 57.2974C68.9406 58.5813 66.1812 58.2767 62.8963 56.3921L62.8467 56.3591V48.7175L69.5529 52.5692Z" fill="#5F646B"/>
<path d="M62.8468 48.7175V56.3591L56.1943 52.5404L62.8468 48.7175Z" fill="#373A3A"/>
<path d="M57.6178 61.1161C61.0392 63.079 61.577 64.7291 59.2437 66.0706C56.9145 67.408 54.035 67.0994 50.6178 65.1365L49.4346 64.4575V56.4167L57.6136 61.1161H57.6178Z" fill="#5F646B"/>
<path d="M49.4385 56.4209V64.4617L42.4385 60.4372L49.4385 56.4209Z" fill="#373A3A"/>
<path d="M59.8395 75.0416C59.0244 75.0416 58.1722 74.9922 57.3117 74.9017C53.1622 74.4367 48.6982 72.8483 44.0481 70.1776L25.4104 59.4744C25.2201 59.3633 25.1001 59.1617 25.1001 58.9395C25.1001 58.7172 25.2201 58.5156 25.4104 58.4045L59.9222 38.5865C60.1125 38.4754 60.3525 38.4754 60.5428 38.5865L78.1958 48.7218C82.7798 51.3554 85.3613 53.8204 86.0936 56.2565C86.2425 56.7461 86.317 57.2399 86.317 57.7255C86.317 59.6678 85.0924 61.3509 82.6846 62.7294C80.9843 63.7088 79.015 64.3548 76.8347 64.6511C76.0404 64.7581 75.2088 64.8157 74.3649 64.8281C74.3235 64.8281 74.2945 64.8281 74.2573 64.8198C74.2242 64.8239 74.1911 64.8281 74.158 64.8281C73.314 64.8281 72.4535 64.7746 71.5847 64.6717C72.1101 65.5852 72.3791 66.507 72.3791 67.4164C72.3791 67.795 72.3377 68.153 72.2549 68.4987C71.8661 70.1447 70.5463 71.622 68.333 72.8976C65.8548 74.3214 62.9961 75.0457 59.8353 75.0457L59.8395 75.0416ZM26.9618 58.9395L44.6687 69.1077C49.1698 71.6919 53.4683 73.2268 57.4482 73.6713C61.3661 74.0992 64.8247 73.482 67.7124 71.8236C69.6155 70.729 70.7408 69.5151 71.0469 68.2106C71.109 67.9555 71.1379 67.6921 71.1379 67.4082C71.1379 66.3835 70.6746 65.3136 69.7644 64.2273C69.5948 64.0256 69.5741 63.7458 69.7065 63.5195C69.8389 63.2932 70.0995 63.1779 70.356 63.2273C71.6385 63.466 72.9169 63.5894 74.158 63.5894C74.1911 63.5894 74.2242 63.5894 74.2573 63.5977C74.2863 63.5936 74.3194 63.5894 74.3483 63.5894C75.1427 63.5812 75.9204 63.5236 76.6651 63.4248C78.6882 63.1491 80.5044 62.5566 82.064 61.6595C84.0623 60.5155 85.0759 59.1905 85.0759 57.7255C85.0759 57.3634 85.0179 56.9889 84.9021 56.6103C84.2774 54.5199 81.8117 52.2237 77.5753 49.7876L60.2325 39.8292L26.9618 58.9353V58.9395Z" fill="#373A3A"/>
<path d="M68.2131 58.6884C66.5169 58.6884 64.6345 58.0999 62.5866 56.923L55.8845 53.0714C55.6942 52.9602 55.5742 52.7586 55.5742 52.5364C55.5742 52.3142 55.6942 52.1126 55.8845 52.0014L62.537 48.1827C62.7273 48.0716 62.9672 48.0716 63.1576 48.1827L69.8638 52.0344C72.0896 53.31 73.1239 54.4499 73.1239 55.6227C73.1239 56.4663 72.5736 57.207 71.4856 57.8324C70.4885 58.4044 69.3963 58.6925 68.2131 58.6925V58.6884ZM57.4359 52.5405L63.2279 55.8737C66.2728 57.6185 68.8461 57.923 70.865 56.7667C71.3284 56.4992 71.8827 56.0877 71.8827 55.6268C71.8827 55.2523 71.5393 54.4252 69.2432 53.1084L62.8473 49.4337L57.4359 52.5405Z" fill="#373A3A"/>
<path d="M56.1452 67.5028C54.3828 67.5028 52.4342 66.8937 50.3119 65.6716L42.1286 60.9681C41.9383 60.857 41.8184 60.6553 41.8184 60.4331C41.8184 60.2109 41.9383 60.0093 42.1286 59.8982L49.1286 55.8819C49.319 55.7708 49.5589 55.7708 49.7492 55.8819L57.9283 60.5813C60.1872 61.8775 61.2876 63.0873 61.2876 64.2848C61.2876 65.1654 60.7043 65.9473 59.5583 66.6057C58.5158 67.2024 57.3781 67.5028 56.1452 67.5028ZM43.6801 60.4373L50.9324 64.6058C54.1263 66.4411 56.8195 66.7538 58.9377 65.5399C59.4425 65.2477 60.0506 64.7951 60.0465 64.2889C60.0465 63.8898 59.6907 63.0215 57.3077 61.6553L49.4389 57.1329L43.6801 60.4373Z" fill="#373A3A"/>
<path d="M74.3564 73.6712C74.0172 73.6712 73.74 73.3996 73.7358 73.0621C73.7358 72.7206 74.0048 72.4408 74.3481 72.4366C75.1425 72.4284 75.9202 72.3708 76.6649 72.272C78.6838 71.9963 80.5 71.4038 82.0639 70.5067C84.091 69.3421 85.0757 68.0541 85.0757 66.5727V57.7254C85.0757 57.3839 85.3529 57.1082 85.6962 57.1082C86.0396 57.1082 86.3168 57.3839 86.3168 57.7254V66.5727C86.3168 68.5068 85.0964 70.1898 82.6844 71.5766C80.9841 72.556 79.0148 73.202 76.8304 73.4983C76.0361 73.6053 75.2045 73.6629 74.3605 73.6753H74.3523L74.3564 73.6712Z" fill="#373A3A"/>
<path d="M74.1582 73.6712C73.3349 73.6712 72.5034 73.6218 71.6842 73.5231C71.345 73.4819 71.1009 73.1733 71.1423 72.8359C71.1836 72.4984 71.4898 72.2556 71.8332 72.2968C72.6027 72.3873 73.3846 72.4367 74.1582 72.4367C74.5016 72.4367 74.7788 72.7124 74.7788 73.0539C74.7788 73.3955 74.5016 73.6712 74.1582 73.6712Z" fill="#373A3A"/>
<path d="M49.4389 65.079C49.0955 65.079 48.8184 64.8033 48.8184 64.4617V56.421C48.8184 56.0794 49.0955 55.8037 49.4389 55.8037C49.7823 55.8037 50.0595 56.0794 50.0595 56.421V64.4617C50.0595 64.8033 49.7823 65.079 49.4389 65.079Z" fill="#373A3A"/>
<path d="M62.8471 56.9765C62.5037 56.9765 62.2266 56.7008 62.2266 56.3592V48.7176C62.2266 48.376 62.5037 48.1003 62.8471 48.1003C63.1905 48.1003 63.4677 48.376 63.4677 48.7176V56.3592C63.4677 56.7008 63.1905 56.9765 62.8471 56.9765Z" fill="#373A3A"/>
<path d="M59.8395 83.8848C59.0244 83.8848 58.1722 83.8354 57.3117 83.7449C53.1622 83.2799 48.6982 81.6915 44.0481 79.0208L25.4104 68.3176C25.2201 68.2065 25.1001 68.0049 25.1001 67.7827V58.9354C25.1001 58.5938 25.3773 58.3181 25.7207 58.3181C26.064 58.3181 26.3412 58.5938 26.3412 58.9354V67.4247L44.6687 77.9509C49.1698 80.5352 53.4683 82.0701 57.4482 82.5145C61.3619 82.9425 64.8247 82.3293 67.7124 80.6669C69.632 79.564 70.7532 78.3501 71.0469 77.0621C71.109 76.7946 71.1379 76.5312 71.1379 76.2555V67.4082C71.1379 67.0667 71.4151 66.791 71.7585 66.791C72.1019 66.791 72.3791 67.0667 72.3791 67.4082V76.2555C72.3791 76.6177 72.3377 76.9798 72.2591 77.3337C71.8867 78.9715 70.567 80.4529 68.3371 81.7368C65.859 83.1606 63.0002 83.8848 59.8395 83.8848Z" fill="#373A3A"/>
<path d="M96.5356 29.9778V37.6359C96.5356 38.4877 95.9522 39.2572 94.7814 39.9239C93.561 40.6234 92.1668 40.9608 90.6195 40.9362H90.4747C88.8736 40.8827 87.4091 40.4794 86.1018 39.7346C84.782 38.9733 84.0663 38.1215 83.996 37.1791C83.9918 37.1215 83.996 37.068 83.996 37.0145V29.4429C83.996 29.4717 83.996 29.5005 83.996 29.5252C84.0746 30.4634 84.782 31.3193 86.1018 32.0806C87.405 32.8254 88.8736 33.2287 90.4747 33.2781H90.6195C92.1668 33.3069 93.561 32.9736 94.7814 32.2699C95.9522 31.595 96.5356 30.8338 96.5356 29.9819V29.9778Z" fill="#969A9E"/>
<path d="M83.9917 29.4389C83.9834 29.0191 84.0868 28.6241 84.3268 28.2537C84.6122 27.8216 85.0673 27.4184 85.7086 27.0521C86.8628 26.3896 88.2115 26.0645 89.7464 26.0686C89.7464 26.0686 89.9574 26.0686 89.9988 26.0686C91.6412 26.0933 93.1264 26.5213 94.4462 27.2785C95.7493 28.0274 96.4527 28.8669 96.523 29.7927C96.5271 29.8545 96.5313 29.9121 96.5313 29.9738C96.5313 30.8297 95.9479 31.591 94.7771 32.2618C93.5567 32.9613 92.1625 33.2988 90.6152 33.2741H90.4704C88.8693 33.2206 87.4048 32.8173 86.0975 32.0725C84.7777 31.3112 84.0661 30.4553 83.9917 29.517C83.9917 29.4924 83.9917 29.4635 83.9917 29.4347V29.4389Z" fill="white"/>
<path d="M84.327 22.6243V28.2536C84.0829 28.624 83.9754 29.019 83.9919 29.4388V30.4757L78.6674 33.5373H78.4275C78.4978 33.5373 78.5681 33.5456 78.6343 33.5497L77.7407 34.0682V26.4101L78.6343 25.8916L78.6674 25.8793L84.327 22.6243Z" fill="#969A9E"/>
<path d="M84.3268 22.6243L78.6672 25.8793L78.6341 25.8917L77.7405 26.4102C77.4468 26.2415 77.1655 26.081 76.8924 25.9164C74.5715 24.509 72.9249 23.2416 71.9775 22.0976C70.906 20.8178 70.3475 19.2665 70.3103 17.4641C70.2689 15.6535 70 14.312 69.5077 13.4396C69.0236 12.5672 68.2293 11.8142 67.1081 11.1763C63.7571 9.25049 60.7287 9.05708 58.052 10.592C56.786 11.3245 56.2192 12.168 56.364 13.1227C56.5006 14.0815 57.3528 15.028 58.9084 15.958L51.4326 20.2458C47.6802 18.0484 45.7772 15.7358 45.7192 13.3079V13.1886C45.7192 10.806 47.4941 8.5962 51.0396 6.55925C54.6761 4.47293 58.5236 3.44006 62.5614 3.44829C62.6731 3.44829 62.7766 3.44829 62.88 3.44829C66.8185 3.5594 70.5792 4.59227 74.1909 6.66625C75.8747 7.63739 77.1489 8.73611 77.9929 9.97062C78.841 11.2092 79.3623 12.8141 79.5567 14.8017L79.7594 17.3159C79.9001 18.9002 80.8516 20.2993 82.6099 21.5256L84.3227 22.6243H84.3268Z" fill="white"/>
<path d="M78.6672 33.5373L78.6341 33.5497C78.5679 33.5497 78.4976 33.5414 78.4272 33.5332H78.6672V33.5373Z" fill="white"/>
<path d="M77.7407 26.4142V34.0723C77.447 33.9035 77.1657 33.7431 76.8926 33.5785C74.5717 32.1711 72.9251 30.9037 71.9777 29.7597C70.9062 28.4799 70.3477 26.9286 70.3105 25.1262C70.2691 23.3156 70.0002 21.9741 69.5079 21.1017C69.0238 20.2293 68.2295 19.4762 67.1083 18.8384C64.1048 17.1142 61.3702 16.7809 58.9086 17.8261V15.9661C57.353 15.0361 56.5008 14.0897 56.3642 13.1309C56.2236 12.1762 56.7904 11.3326 58.0522 10.6001C60.7289 9.06522 63.7573 9.25862 67.1083 11.1845C68.2254 11.8264 69.0238 12.5795 69.5079 13.4477C70.0002 14.3242 70.2691 15.6657 70.3105 17.4722C70.3477 19.2787 70.9062 20.826 71.9777 22.1058C72.9251 23.2497 74.5717 24.5172 76.8926 25.9245C77.1657 26.0891 77.447 26.2496 77.7407 26.4183V26.4142Z" fill="#969A9E"/>
<path d="M58.9123 17.818V23.6119L51.4365 27.8998V20.2417L58.9123 15.9539V17.818Z" fill="#969A9E"/>
<path d="M51.4365 20.2417V27.8997C47.6841 25.7064 45.7521 23.3938 45.7231 20.9618C45.7231 20.9206 45.7231 13.3037 45.7231 13.3037C45.7811 15.7316 47.6841 18.0442 51.4365 20.2417Z" fill="#DAE0E5"/>
<path d="M77.7405 27.0316C77.6329 27.0316 77.5253 27.0028 77.4261 26.9493C77.4261 26.9493 76.7848 26.579 76.5697 26.4473C74.1453 24.9782 72.4863 23.6861 71.4976 22.4927C70.3392 21.1019 69.731 19.4147 69.6896 17.4765C69.6524 15.7852 69.4083 14.526 68.9657 13.7401C68.5395 12.9706 67.8114 12.2875 66.7978 11.7114C63.6205 9.88429 60.861 9.695 58.3622 11.127C56.8274 12.02 56.9391 12.7813 56.9763 13.0323C57.0839 13.7853 57.8616 14.6166 59.2269 15.4314C59.4172 15.5425 59.5289 15.7482 59.5289 15.9663C59.5289 16.1844 59.4089 16.386 59.2186 16.4971L51.7428 20.785C51.5484 20.8961 51.3126 20.8961 51.1181 20.785C47.1879 18.4847 45.1607 15.9745 45.0986 13.3327C45.0986 13.308 45.0986 13.2833 45.0986 13.2586C45.0986 13.238 45.0986 13.2175 45.0986 13.1969C45.1028 10.5838 46.9976 8.17655 50.7292 6.03262C54.4237 3.91338 58.3912 2.83936 62.5283 2.83936C62.5407 2.83936 62.6772 2.83936 62.6772 2.83936C62.7517 2.83936 62.8262 2.83936 62.9048 2.83936C66.9881 2.95458 70.8936 4.06564 74.5094 6.13961C76.2801 7.16014 77.6246 8.33292 78.5141 9.63327C79.4201 10.9542 79.9787 12.6784 80.1814 14.7524L80.3841 17.279C80.5082 18.674 81.3563 19.9044 82.9698 21.036L84.6619 22.1224C84.8439 22.2376 84.9515 22.4393 84.9473 22.6573C84.9432 22.8713 84.8232 23.0688 84.637 23.1758L78.9775 26.4308C78.9526 26.4432 78.9278 26.4555 78.903 26.4679L78.0508 26.9617C77.9556 27.0193 77.848 27.044 77.7363 27.044L77.7405 27.0316ZM61.825 8.94606C63.5915 8.94606 65.4657 9.50982 67.4225 10.6373C68.6347 11.3328 69.52 12.1722 70.0537 13.1393C70.604 14.1187 70.8894 15.5301 70.9308 17.4518C70.9639 19.1061 71.4769 20.534 72.4532 21.7068C73.3427 22.7767 74.9438 24.0194 77.2151 25.3938C77.3847 25.4967 77.5584 25.5996 77.7405 25.7025L78.3238 25.365C78.3486 25.3486 78.3735 25.3362 78.4024 25.328L83.1394 22.6039L82.2789 22.0524C80.351 20.7027 79.3084 19.1349 79.1471 17.3778L78.9444 14.8594C78.7623 13.0035 78.27 11.4727 77.484 10.3246C76.7021 9.18062 75.494 8.13129 73.8847 7.2054C70.4012 5.20961 66.7978 4.18497 62.8675 4.07386C62.8096 4.07386 62.7476 4.07386 62.6896 4.07386H62.5655C58.656 4.07386 54.8664 5.08616 51.354 7.10253C48.036 9.00779 46.348 11.0571 46.3439 13.1969C46.3439 13.2175 46.3439 13.238 46.3439 13.2586C46.3439 13.2751 46.3439 13.2874 46.3439 13.3039C46.3935 15.4272 48.1063 17.5259 51.4408 19.5382L57.7292 15.9293C56.5378 15.0651 55.8882 14.168 55.7517 13.2134C55.5697 11.9953 56.2399 10.9336 57.7417 10.0612C59.0283 9.32465 60.3935 8.95429 61.8209 8.95429L61.825 8.94606Z" fill="#373A3A"/>
<path d="M90.7723 33.8955C90.7185 33.8955 90.6647 33.8955 90.6068 33.8955C90.2634 33.8914 89.9904 33.6074 89.9945 33.27C89.9987 32.9326 90.2758 32.661 90.6151 32.661H90.6234C92.0631 32.6898 93.3539 32.3729 94.4626 31.731C95.4224 31.1796 95.9065 30.5911 95.9065 29.978C95.9065 29.9327 95.9065 29.8916 95.9023 29.8463C95.8485 29.1426 95.2487 28.4595 94.1316 27.8176C92.8657 27.0933 91.4715 26.7148 89.9821 26.6901H89.9201L89.8828 26.0728L89.9159 25.4556H90.0028C91.7031 25.4803 93.3001 25.9164 94.7522 26.7477C96.2457 27.6077 97.0483 28.6159 97.1393 29.7475C97.1435 29.8257 97.1476 29.8998 97.1476 29.978C97.1476 31.0644 96.4526 32.0149 95.0832 32.8009C93.8172 33.5293 92.3651 33.8955 90.764 33.8955H90.7723Z" fill="#373A3A"/>
<path d="M90.4745 33.8914C90.4745 33.8914 90.4621 33.8914 90.4538 33.8914C88.7535 33.842 87.1855 33.4099 85.7913 32.6116C84.2895 31.7433 83.4745 30.7269 83.3752 29.5871C83.3711 29.5459 83.3669 29.5048 83.3669 29.4595C83.3545 28.8916 83.5035 28.3772 83.8055 27.9205C84.1447 27.402 84.6825 26.9287 85.3983 26.5214C86.6353 25.8136 88.0874 25.4556 89.7215 25.4556H89.7505C90.0939 25.4556 90.3711 25.7354 90.3711 26.0728C90.3711 26.4144 90.0939 26.6901 89.7505 26.6901C89.7464 26.6901 89.7339 26.6901 89.7215 26.6901C88.3108 26.6901 87.0655 26.9946 86.0188 27.5913C85.4727 27.904 85.0797 28.2414 84.848 28.5953C84.6825 28.8505 84.6081 29.1138 84.6122 29.4307C84.6122 29.4471 84.6122 29.4307 84.6081 29.4225C84.6081 29.4389 84.6122 29.4554 84.6163 29.4718C84.6743 30.192 85.2824 30.8874 86.416 31.5417C87.6282 32.2371 89.0017 32.6116 90.4952 32.6569C90.8386 32.6692 91.1075 32.9532 91.0951 33.2906C91.0868 33.6239 90.8096 33.8873 90.4745 33.8873V33.8914Z" fill="#373A3A"/>
<path d="M90.7725 41.5537C90.7187 41.5537 90.6649 41.5537 90.607 41.5537C90.2636 41.5496 89.9905 41.2656 89.9947 40.9282C89.9988 40.5866 90.2719 40.3274 90.6235 40.3192C92.0674 40.3439 93.354 40.027 94.4628 39.3892C95.4226 38.8419 95.9066 38.2493 95.9066 37.6362V29.9781C95.9066 29.6365 96.1838 29.3608 96.5272 29.3608C96.8706 29.3608 97.1478 29.6365 97.1478 29.9781V37.6362C97.1478 38.7267 96.4527 39.6772 95.0833 40.4591C93.8215 41.1874 92.3694 41.5537 90.7683 41.5537H90.7725Z" fill="#373A3A"/>
<path d="M90.4745 41.5494C90.4745 41.5494 90.4621 41.5494 90.4538 41.5494C88.7535 41.5 87.1855 41.0679 85.7913 40.2696C84.273 39.3972 83.4621 38.3725 83.3752 37.2245C83.3752 37.1915 83.3711 37.1463 83.3711 29.3565C83.3711 29.015 83.6483 28.7393 83.9917 28.7393C84.335 28.7393 84.6122 29.015 84.6122 29.3565C84.6122 31.4634 84.6122 36.9734 84.6122 37.1627C84.666 37.8458 85.27 38.5413 86.4119 39.1997C87.624 39.8951 88.9976 40.2696 90.4911 40.3148C90.8344 40.3272 91.1034 40.6111 91.0909 40.9486C91.0827 41.2819 90.8055 41.5452 90.4704 41.5452L90.4745 41.5494Z" fill="#373A3A"/>
<path d="M77.7404 34.6897C77.6329 34.6897 77.5253 34.6609 77.426 34.6074C77.426 34.6074 76.7889 34.237 76.5696 34.1054C74.1453 32.6363 72.4863 31.3442 71.4975 30.1508C70.3391 28.7599 69.731 27.0728 69.6896 25.1346C69.6524 23.4433 69.4083 22.1841 68.9656 21.3981C68.5395 20.6286 67.8114 19.9455 66.7978 19.3694C63.9514 17.7316 61.4485 17.4107 59.1524 18.3901C58.838 18.5258 58.4739 18.3777 58.3374 18.065C58.2008 17.7522 58.3498 17.3901 58.6642 17.2543C61.3078 16.1309 64.2535 16.4807 67.4183 18.2995C68.6305 18.995 69.5159 19.8344 70.0496 20.8015C70.5998 21.7808 70.8852 23.1882 70.9266 25.1099C70.9597 26.7641 71.4727 28.1921 72.4491 29.3648C73.3344 30.4348 74.9355 31.6775 77.2109 33.0519C77.3805 33.1548 77.5543 33.2577 77.7363 33.3605L78.3196 33.0231C78.3445 33.0066 78.3693 32.9943 78.3982 32.9861L83.6772 29.9492C83.9751 29.7805 84.3516 29.8792 84.5253 30.1755C84.6949 30.4718 84.5956 30.8463 84.2978 31.0191L78.9733 34.0807C78.9485 34.093 78.9237 34.1054 78.8988 34.1177L78.0466 34.6115C77.9514 34.6691 77.8397 34.6938 77.7322 34.6938L77.7404 34.6897Z" fill="#373A3A"/>
<path d="M51.4365 28.5171C51.0931 28.5171 50.8159 28.2414 50.8159 27.8998V20.2418C50.8159 19.9002 51.0931 19.6245 51.4365 19.6245C51.7799 19.6245 52.0571 19.9002 52.0571 20.2418V27.8998C52.0571 28.2414 51.7799 28.5171 51.4365 28.5171Z" fill="#373A3A"/>
<path d="M51.4365 28.5172C51.3289 28.5172 51.2172 28.4884 51.122 28.4308C47.1587 26.1141 45.1356 23.6039 45.1025 20.9703C45.1025 20.9291 45.1025 14.4768 45.1025 13.1846C45.1025 12.8431 45.3797 12.5674 45.7231 12.5674C46.0665 12.5674 46.3437 12.8431 46.3437 13.1846C46.3437 13.1846 46.3437 20.8509 46.3437 20.9579C46.3685 23.0648 48.0854 25.1553 51.4406 27.1799L58.2917 23.25V15.9499C58.2917 15.6084 58.5688 15.3327 58.9122 15.3327C59.2556 15.3327 59.5328 15.6084 59.5328 15.9499V23.608C59.5328 23.8302 59.4128 24.0319 59.2225 24.143L51.7467 28.4308C51.6516 28.4843 51.544 28.5131 51.4365 28.5131V28.5172Z" fill="#373A3A"/>
<path d="M84.3266 28.8751C83.9832 28.8751 83.7061 28.5994 83.7061 28.2578V22.6285C83.7061 22.2869 83.9832 22.0112 84.3266 22.0112C84.67 22.0112 84.9472 22.2869 84.9472 22.6285V28.2578C84.9472 28.5994 84.67 28.8751 84.3266 28.8751Z" fill="#373A3A"/>
<path d="M77.7407 34.6897C77.3973 34.6897 77.1201 34.414 77.1201 34.0724V26.4144C77.1201 26.0728 77.3973 25.7971 77.7407 25.7971C78.0841 25.7971 78.3613 26.0728 78.3613 26.4144V34.0724C78.3613 34.414 78.0841 34.6897 77.7407 34.6897Z" fill="#373A3A"/>
</svg>
