<svg width="120" height="80" viewBox="0 0 120 80" fill="none" xmlns="http://www.w3.org/2000/svg">
<g id="Frame" clip-path="url(#clip0_2064_3827)">
<g id="shadow">
<path id="Vector" d="M119.357 41.2224L118.347 40.6421L117.337 41.2224L118.347 41.8026L119.357 41.2224Z" fill="#969A9E"/>
<path id="Vector_2" d="M118.958 39.3992L118.806 39.486L119.196 39.7099C119.123 39.6048 119.04 39.4997 118.958 39.3992Z" fill="#969A9E"/>
<path id="Vector_3" d="M117.337 44.6948L118.347 45.275L118.691 45.0786C118.866 44.9187 119.017 44.7542 119.155 44.5805L118.342 44.1145L117.332 44.6948H117.337Z" fill="#969A9E"/>
<path id="Vector_4" d="M118.806 42.9587L119.77 43.5116C119.894 43.1734 119.972 42.8308 120 42.4835L119.816 42.3784L118.806 42.9587Z" fill="#969A9E"/>
<path id="Vector_5" d="M116.194 37.8778C115.734 37.8229 115.252 37.8458 114.756 37.9554L115.408 38.3301L116.194 37.8778Z" fill="#969A9E"/>
<path id="Vector_6" d="M116.418 41.2224L115.408 40.6421L114.398 41.2224L115.408 41.8026L116.418 41.2224Z" fill="#969A9E"/>
<path id="Vector_7" d="M117.888 39.486L116.878 38.9058L115.867 39.486L116.878 40.0663L117.888 39.486Z" fill="#969A9E"/>
<path id="Vector_8" d="M115.408 44.1145L114.398 44.6948L115.408 45.275L116.418 44.6948L115.408 44.1145Z" fill="#969A9E"/>
<path id="Vector_9" d="M117.888 42.9587L116.878 42.3784L115.867 42.9587L116.878 43.539L117.888 42.9587Z" fill="#969A9E"/>
<path id="Vector_10" d="M115.868 46.4312L116.276 46.6688C116.602 46.4677 116.928 46.2713 117.25 46.0702L116.873 45.8555L115.863 46.4357L115.868 46.4312Z" fill="#969A9E"/>
<path id="Vector_11" d="M113.48 41.2224L112.47 40.6421L111.46 41.2224L112.47 41.8026L113.48 41.2224Z" fill="#969A9E"/>
<path id="Vector_12" d="M114.949 39.486L113.939 38.9058L112.929 39.486L113.939 40.0663L114.949 39.486Z" fill="#969A9E"/>
<path id="Vector_13" d="M113.48 44.6948L112.47 44.1145L111.46 44.6948L112.47 45.275L113.48 44.6948Z" fill="#969A9E"/>
<path id="Vector_14" d="M114.949 42.9587L113.939 42.3784L112.929 42.9587L113.939 43.539L114.949 42.9587Z" fill="#969A9E"/>
<path id="Vector_15" d="M111.46 48.1674L112.47 48.7477L113.48 48.1674L112.47 47.5872L111.46 48.1674Z" fill="#969A9E"/>
<path id="Vector_16" d="M112.929 46.4311L113.939 47.0114L114.949 46.4311L113.939 45.8508L112.929 46.4311Z" fill="#969A9E"/>
<path id="Vector_17" d="M110.541 41.2223L109.715 40.7471L108.737 41.3456L109.531 41.8025L110.541 41.2223Z" fill="#969A9E"/>
<path id="Vector_18" d="M112.011 39.486L111.891 39.4175C111.565 39.6185 111.239 39.815 110.913 40.016L111.001 40.0663L112.011 39.486Z" fill="#969A9E"/>
<path id="Vector_19" d="M110.541 44.6948L109.531 44.1145L108.521 44.6948L109.531 45.275L110.541 44.6948Z" fill="#969A9E"/>
<path id="Vector_20" d="M112.011 42.9587L111 42.3784L109.99 42.9587L111 43.539L112.011 42.9587Z" fill="#969A9E"/>
<path id="Vector_21" d="M109.531 47.5872L108.521 48.1674L109.531 48.7477L110.541 48.1674L109.531 47.5872Z" fill="#969A9E"/>
<path id="Vector_22" d="M112.011 46.4311L111 45.8508L109.99 46.4311L111 47.0114L112.011 46.4311Z" fill="#969A9E"/>
<path id="Vector_23" d="M109.99 49.9035L110.495 50.1959C110.826 49.9995 111.152 49.803 111.482 49.602L111 49.3232L109.99 49.9035Z" fill="#969A9E"/>
<path id="Vector_24" d="M107.603 44.6948L106.593 44.1145L105.583 44.6948L106.593 45.275L107.603 44.6948Z" fill="#969A9E"/>
<path id="Vector_25" d="M109.072 42.9587L108.062 42.3784L107.052 42.9587L108.062 43.539L109.072 42.9587Z" fill="#969A9E"/>
<path id="Vector_26" d="M107.603 48.1674L106.593 47.5872L105.583 48.1674L106.593 48.7477L107.603 48.1674Z" fill="#969A9E"/>
<path id="Vector_27" d="M109.072 46.4311L108.062 45.8508L107.052 46.4311L108.062 47.0114L109.072 46.4311Z" fill="#969A9E"/>
<path id="Vector_28" d="M105.583 51.6398L106.593 52.2201L107.603 51.6398L106.593 51.0596L105.583 51.6398Z" fill="#969A9E"/>
<path id="Vector_29" d="M107.052 49.9035L108.062 50.4838L109.072 49.9035L108.062 49.3232L107.052 49.9035Z" fill="#969A9E"/>
<path id="Vector_30" d="M104.664 44.6948L103.907 44.2607C103.576 44.4572 103.241 44.6537 102.91 44.8502L103.649 45.2751L104.66 44.6948H104.664Z" fill="#969A9E"/>
<path id="Vector_31" d="M106.115 42.9448L105.192 43.5023L106.133 42.9585L106.115 42.9448Z" fill="#969A9E"/>
<path id="Vector_32" d="M104.664 48.1674L103.654 47.5872L102.644 48.1674L103.654 48.7477L104.664 48.1674Z" fill="#969A9E"/>
<path id="Vector_33" d="M106.134 46.4311L105.123 45.8508L104.113 46.4311L105.123 47.0114L106.134 46.4311Z" fill="#969A9E"/>
<path id="Vector_34" d="M103.654 51.0596L102.644 51.6398L103.654 52.2201L104.664 51.6398L103.654 51.0596Z" fill="#969A9E"/>
<path id="Vector_35" d="M106.134 49.9035L105.123 49.3232L104.113 49.9035L105.123 50.4838L106.134 49.9035Z" fill="#969A9E"/>
<path id="Vector_36" d="M104.113 53.3762L104.641 53.6777L105.638 53.0929L105.123 52.7959L104.113 53.3762Z" fill="#969A9E"/>
<path id="Vector_37" d="M101.726 48.1674L100.715 47.5872L99.7053 48.1674L100.715 48.7477L101.726 48.1674Z" fill="#969A9E"/>
<path id="Vector_38" d="M103.195 46.4311L102.185 45.8508L101.175 46.4311L102.185 47.0114L103.195 46.4311Z" fill="#969A9E"/>
<path id="Vector_39" d="M101.726 51.6398L100.715 51.0596L99.7053 51.6398L100.715 52.2201L101.726 51.6398Z" fill="#969A9E"/>
<path id="Vector_40" d="M103.195 49.9035L102.185 49.3232L101.175 49.9035L102.185 50.4838L103.195 49.9035Z" fill="#969A9E"/>
<path id="Vector_41" d="M99.7053 55.1123L100.715 55.6925L101.726 55.1123L100.715 54.532L99.7053 55.1123Z" fill="#969A9E"/>
<path id="Vector_42" d="M101.175 53.3762L102.185 53.9564L103.195 53.3762L102.185 52.7959L101.175 53.3762Z" fill="#969A9E"/>
<path id="Vector_43" d="M98.787 48.1674L98.0248 47.7288C97.6896 47.9252 97.3498 48.1126 97.0146 48.309L97.7768 48.7477L98.787 48.1674Z" fill="#969A9E"/>
<path id="Vector_44" d="M100.256 46.4312H100.247C100.082 46.5225 99.9165 46.6231 99.7512 46.719L100.256 46.4312Z" fill="#969A9E"/>
<path id="Vector_45" d="M98.7869 51.6398L97.7767 51.0596L96.7666 51.6398L97.7767 52.2201L98.7869 51.6398Z" fill="#969A9E"/>
<path id="Vector_46" d="M100.256 49.9035L99.2462 49.3232L98.2361 49.9035L99.2462 50.4838L100.256 49.9035Z" fill="#969A9E"/>
<path id="Vector_47" d="M97.7767 54.532L96.7666 55.1123L97.7767 55.6925L98.7869 55.1123L97.7767 54.532Z" fill="#969A9E"/>
<path id="Vector_48" d="M100.256 53.3762L99.2462 52.7959L98.2361 53.3762L99.2462 53.9564L100.256 53.3762Z" fill="#969A9E"/>
<path id="Vector_49" d="M98.2361 56.8486L98.6952 57.1136C99.035 56.9217 99.3702 56.7252 99.7054 56.5333L99.2462 56.2683L98.2361 56.8486Z" fill="#969A9E"/>
<path id="Vector_50" d="M95.8484 51.6398L94.8383 51.0596L93.8281 51.6398L94.8383 52.2201L95.8484 51.6398Z" fill="#969A9E"/>
<path id="Vector_51" d="M97.3176 49.9035L96.3075 49.3232L95.2974 49.9035L96.3075 50.4838L97.3176 49.9035Z" fill="#969A9E"/>
<path id="Vector_52" d="M95.8484 55.1123L94.8383 54.532L93.8281 55.1123L94.8383 55.6925L95.8484 55.1123Z" fill="#969A9E"/>
<path id="Vector_53" d="M97.3176 53.3762L96.3075 52.7959L95.2974 53.3762L96.3075 53.9564L97.3176 53.3762Z" fill="#969A9E"/>
<path id="Vector_54" d="M93.8281 58.5849L94.8383 59.1652L95.8484 58.5849L94.8383 58.0046L93.8281 58.5849Z" fill="#969A9E"/>
<path id="Vector_55" d="M95.2974 56.8486L96.3075 57.4289L97.3176 56.8486L96.3075 56.2683L95.2974 56.8486Z" fill="#969A9E"/>
<path id="Vector_56" d="M92.9097 51.6398L92.0603 51.1509C91.7205 51.3428 91.3762 51.5301 91.0364 51.722L91.8996 52.22L92.9097 51.6398Z" fill="#969A9E"/>
<path id="Vector_57" d="M94.379 49.9037L94.3055 49.8625C93.9704 50.0545 93.6306 50.2509 93.2954 50.4428L93.3689 50.4839L94.379 49.9037Z" fill="#969A9E"/>
<path id="Vector_58" d="M92.9097 55.1123L91.8995 54.532L90.8894 55.1123L91.8995 55.6925L92.9097 55.1123Z" fill="#969A9E"/>
<path id="Vector_59" d="M94.3792 53.3762L93.369 52.7959L92.3589 53.3762L93.369 53.9564L94.3792 53.3762Z" fill="#969A9E"/>
<path id="Vector_60" d="M91.8995 58.0046L90.8894 58.5849L91.8995 59.1652L92.9097 58.5849L91.8995 58.0046Z" fill="#969A9E"/>
<path id="Vector_61" d="M94.3792 56.8486L93.369 56.2683L92.3589 56.8486L93.369 57.4289L94.3792 56.8486Z" fill="#969A9E"/>
<path id="Vector_62" d="M92.3589 60.321L92.6619 60.4946C93.0063 60.3073 93.3461 60.1108 93.6858 59.9235L93.369 59.7407L92.3589 60.321Z" fill="#969A9E"/>
<path id="Vector_63" d="M89.9712 55.1123L88.9611 54.532L87.9509 55.1123L88.9611 55.6925L89.9712 55.1123Z" fill="#969A9E"/>
<path id="Vector_64" d="M91.4404 53.3762L90.4303 52.7959L89.4202 53.3762L90.4303 53.9564L91.4404 53.3762Z" fill="#969A9E"/>
<path id="Vector_65" d="M89.9712 58.5849L88.9611 58.0046L87.9509 58.5849L88.9611 59.1652L89.9712 58.5849Z" fill="#969A9E"/>
<path id="Vector_66" d="M91.4404 56.8486L90.4303 56.2683L89.4202 56.8486L90.4303 57.4289L91.4404 56.8486Z" fill="#969A9E"/>
<path id="Vector_67" d="M87.9509 62.0573L88.8463 62.5691L89.884 62.0071L88.9611 61.4771L87.9509 62.0573Z" fill="#969A9E"/>
<path id="Vector_68" d="M89.4202 60.321L90.4303 60.9013L91.4404 60.321L90.4303 59.7407L89.4202 60.321Z" fill="#969A9E"/>
<path id="Vector_69" d="M87.0327 55.1123L86.0226 54.532L85.0125 55.1123L86.0226 55.6925L87.0327 55.1123Z" fill="#969A9E"/>
<path id="Vector_70" d="M87.4917 53.9563L88.5018 53.376L88.2814 53.2527C87.9371 53.4446 87.5973 53.6319 87.2529 53.8238L87.4871 53.9609L87.4917 53.9563Z" fill="#969A9E"/>
<path id="Vector_71" d="M87.0327 58.5849L86.0226 58.0046L85.0125 58.5849L86.0226 59.1652L87.0327 58.5849Z" fill="#969A9E"/>
<path id="Vector_72" d="M88.502 56.8486L87.4918 56.2683L86.4817 56.8486L87.4918 57.4289L88.502 56.8486Z" fill="#969A9E"/>
<path id="Vector_73" d="M86.0226 61.4771L85.0125 62.0573L86.0226 62.6376L87.0327 62.0573L86.0226 61.4771Z" fill="#969A9E"/>
<path id="Vector_74" d="M88.502 60.321L87.4918 59.7407L86.4817 60.321L87.4918 60.9013L88.502 60.321Z" fill="#969A9E"/>
<path id="Vector_75" d="M86.4817 63.7936L86.5276 63.8211C86.8766 63.6337 87.2255 63.4464 87.5699 63.2591L87.4918 63.2134L86.4817 63.7936Z" fill="#969A9E"/>
<path id="Vector_76" d="M84.094 58.5849L83.0839 58.0046L82.0737 58.5849L83.0839 59.1652L84.094 58.5849Z" fill="#969A9E"/>
<path id="Vector_77" d="M85.5633 56.8486L84.5531 56.2683L83.543 56.8486L84.5531 57.4289L85.5633 56.8486Z" fill="#969A9E"/>
<path id="Vector_78" d="M84.094 62.0573L83.0839 61.4771L82.0737 62.0573L83.0839 62.6376L84.094 62.0573Z" fill="#969A9E"/>
<path id="Vector_79" d="M85.5633 60.321L84.5531 59.7407L83.543 60.321L84.5531 60.9013L85.5633 60.321Z" fill="#969A9E"/>
<path id="Vector_80" d="M82.0737 65.5298L82.6431 65.8588C82.9966 65.676 83.3456 65.4887 83.6991 65.3059L83.0839 64.9541L82.0737 65.5344V65.5298Z" fill="#969A9E"/>
<path id="Vector_81" d="M83.543 63.7936L84.5531 64.3739L85.5633 63.7936L84.5531 63.2134L83.543 63.7936Z" fill="#969A9E"/>
<path id="Vector_82" d="M81.1555 58.5849L80.1454 58.0046L79.1353 58.5849L80.1454 59.1652L81.1555 58.5849Z" fill="#969A9E"/>
<path id="Vector_83" d="M82.6249 56.8486L82.1841 56.5928C81.8351 56.7801 81.4862 56.9674 81.1372 57.1548L81.6147 57.4289L82.6249 56.8486Z" fill="#969A9E"/>
<path id="Vector_84" d="M81.1555 62.0573L80.1454 61.4771L79.1353 62.0573L80.1454 62.6376L81.1555 62.0573Z" fill="#969A9E"/>
<path id="Vector_85" d="M82.6248 60.321L81.6146 59.7407L80.6045 60.321L81.6146 60.9013L82.6248 60.321Z" fill="#969A9E"/>
<path id="Vector_86" d="M79.1353 65.5297L80.1454 66.11L81.1555 65.5297L80.1454 64.9495L79.1353 65.5297Z" fill="#969A9E"/>
<path id="Vector_87" d="M81.6146 63.2134L80.6045 63.7936L81.6146 64.3739L82.6248 63.7936L81.6146 63.2134Z" fill="#969A9E"/>
<path id="Vector_88" d="M78.2168 62.0573L77.2067 61.4771L76.1965 62.0573L77.2067 62.6376L78.2168 62.0573Z" fill="#969A9E"/>
<path id="Vector_89" d="M79.6861 60.321L78.6759 59.7407L77.6658 60.321L78.6759 60.9013L79.6861 60.321Z" fill="#969A9E"/>
<path id="Vector_90" d="M78.2168 65.5297L77.2067 64.9495L76.1965 65.5297L77.2067 66.11L78.2168 65.5297Z" fill="#969A9E"/>
<path id="Vector_91" d="M79.6861 63.7936L78.6759 63.2134L77.6658 63.7936L78.6759 64.3739L79.6861 63.7936Z" fill="#969A9E"/>
<path id="Vector_92" d="M76.1965 69.0024L76.3297 69.0801C76.6878 68.9019 77.046 68.7145 77.4041 68.5363L77.2067 68.4221L76.1965 69.0024Z" fill="#969A9E"/>
<path id="Vector_93" d="M77.6658 67.2661L78.6759 67.8463L79.6861 67.2661L78.6759 66.6858L77.6658 67.2661Z" fill="#969A9E"/>
<path id="Vector_94" d="M75.2783 62.0573L74.2682 61.4771L73.2581 62.0573L74.2682 62.6376L75.2783 62.0573Z" fill="#969A9E"/>
<path id="Vector_95" d="M76.7475 60.3211L75.9715 59.8733L74.9109 60.4262L75.7374 60.9013L76.7475 60.3211Z" fill="#969A9E"/>
<path id="Vector_96" d="M75.2783 65.5297L74.2682 64.9495L73.2581 65.5297L74.2682 66.11L75.2783 65.5297Z" fill="#969A9E"/>
<path id="Vector_97" d="M76.7476 63.7936L75.7374 63.2134L74.7273 63.7936L75.7374 64.3739L76.7476 63.7936Z" fill="#969A9E"/>
<path id="Vector_98" d="M73.2581 69.0024L74.2682 69.5827L75.2783 69.0024L74.2682 68.4221L73.2581 69.0024Z" fill="#969A9E"/>
<path id="Vector_99" d="M75.7374 66.6858L74.7273 67.2661L75.7374 67.8463L76.7476 67.2661L75.7374 66.6858Z" fill="#969A9E"/>
<path id="Vector_100" d="M72.3396 62.0572L72.0687 61.9019L71.0034 62.4501L71.3294 62.6375L72.3396 62.0572Z" fill="#969A9E"/>
<path id="Vector_101" d="M72.3396 65.5297L71.3295 64.9495L70.3193 65.5297L71.3295 66.11L72.3396 65.5297Z" fill="#969A9E"/>
<path id="Vector_102" d="M73.8091 63.7936L72.799 63.2134L71.7888 63.7936L72.799 64.3739L73.8091 63.7936Z" fill="#969A9E"/>
<path id="Vector_103" d="M71.3295 68.4221L70.3193 69.0024L71.3295 69.5827L72.3396 69.0024L71.3295 68.4221Z" fill="#969A9E"/>
<path id="Vector_104" d="M73.8091 67.2661L72.799 66.6858L71.7888 67.2661L72.799 67.8463L73.8091 67.2661Z" fill="#969A9E"/>
<path id="Vector_105" d="M71.7888 70.7387L72.3398 71.0539C72.7025 70.8757 73.0699 70.6975 73.4326 70.5193L72.799 70.1538L71.7888 70.7341V70.7387Z" fill="#969A9E"/>
<path id="Vector_106" d="M69.4011 65.5297L68.391 64.9495L67.3809 65.5297L68.391 66.11L69.4011 65.5297Z" fill="#969A9E"/>
<path id="Vector_107" d="M70.8704 63.7936L69.8602 63.2134L68.8501 63.7936L69.8602 64.3739L70.8704 63.7936Z" fill="#969A9E"/>
<path id="Vector_108" d="M69.4011 69.0024L68.391 68.4221L67.3809 69.0024L68.391 69.5827L69.4011 69.0024Z" fill="#969A9E"/>
<path id="Vector_109" d="M70.8704 67.2661L69.8602 66.6858L68.8501 67.2661L69.8602 67.8463L70.8704 67.2661Z" fill="#969A9E"/>
<path id="Vector_110" d="M67.3809 72.4748L68.3038 73.0048C68.6573 72.8358 69.4011 72.4748 69.4011 72.4748L68.391 71.8945L67.3809 72.4748Z" fill="#969A9E"/>
<path id="Vector_111" d="M68.8501 70.7385L69.8602 71.3187L70.8704 70.7385L69.8602 70.1582L68.8501 70.7385Z" fill="#969A9E"/>
<path id="Vector_112" d="M66.4624 65.5299L65.8104 65.1553L64.7498 65.7081L65.4523 66.1102L66.4624 65.5299Z" fill="#969A9E"/>
<path id="Vector_113" d="M66.4624 69.0024L65.4523 68.4221L64.4421 69.0024L65.4523 69.5827L66.4624 69.0024Z" fill="#969A9E"/>
<path id="Vector_114" d="M67.9319 67.2661L66.9218 66.6858L65.9116 67.2661L66.9218 67.8463L67.9319 67.2661Z" fill="#969A9E"/>
<path id="Vector_115" d="M64.4421 72.4748L65.4523 73.0551L66.4624 72.4748L65.4523 71.8945L64.4421 72.4748Z" fill="#969A9E"/>
<path id="Vector_116" d="M67.9319 70.7385L66.9218 70.1582L65.9116 70.7385L66.9218 71.3187L67.9319 70.7385Z" fill="#969A9E"/>
<path id="Vector_117" d="M66.761 73.7222L66.9401 73.64L66.9217 73.6309L66.761 73.7222Z" fill="#969A9E"/>
<path id="Vector_118" d="M63.5239 69.0024L62.5138 68.4221L61.5037 69.0024L62.5138 69.5827L63.5239 69.0024Z" fill="#969A9E"/>
<path id="Vector_119" d="M64.9932 67.2661L63.983 66.6858L62.9729 67.2661L63.983 67.8463L64.9932 67.2661Z" fill="#969A9E"/>
<path id="Vector_120" d="M63.5239 72.4748L62.5138 71.8945L61.5037 72.4748L62.5138 73.0551L63.5239 72.4748Z" fill="#969A9E"/>
<path id="Vector_121" d="M64.9932 70.7385L63.983 70.1582L62.9729 70.7385L63.983 71.3187L64.9932 70.7385Z" fill="#969A9E"/>
<path id="Vector_122" d="M61.5037 75.9472L61.669 76.0432C62.0501 75.8741 62.4312 75.7096 62.8123 75.536L62.5138 75.3669L61.5037 75.9472Z" fill="#969A9E"/>
<path id="Vector_123" d="M62.9729 74.2111L63.983 74.7914L64.9932 74.2111L63.983 73.6309L62.9729 74.2111Z" fill="#969A9E"/>
<path id="Vector_124" d="M60.5853 69.0024L59.6119 68.4404C59.2675 68.6278 58.9186 68.8151 58.5742 69.007L59.5798 69.5827L60.5899 69.0024H60.5853Z" fill="#969A9E"/>
<path id="Vector_125" d="M62.0546 67.266L61.9352 67.1975C61.5863 67.3848 61.2327 67.5676 60.8838 67.7549L61.0445 67.8463L62.0546 67.266Z" fill="#969A9E"/>
<path id="Vector_126" d="M60.5852 72.4748L59.5751 71.8945L58.5649 72.4748L59.5751 73.0551L60.5852 72.4748Z" fill="#969A9E"/>
<path id="Vector_127" d="M62.0547 70.7385L61.0446 70.1582L60.0344 70.7385L61.0446 71.3187L62.0547 70.7385Z" fill="#969A9E"/>
<path id="Vector_128" d="M58.5649 75.9472L59.5751 76.5275L60.5852 75.9472L59.5751 75.3669L58.5649 75.9472Z" fill="#969A9E"/>
<path id="Vector_129" d="M61.0446 73.6309L60.0344 74.2111L61.0446 74.7914L62.0547 74.2111L61.0446 73.6309Z" fill="#969A9E"/>
<path id="Vector_130" d="M57.6467 72.4748L56.6366 71.8945L55.6265 72.4748L56.6366 73.0551L57.6467 72.4748Z" fill="#969A9E"/>
<path id="Vector_131" d="M59.116 70.7385L58.1058 70.1582L57.0957 70.7385L58.1058 71.3187L59.116 70.7385Z" fill="#969A9E"/>
<path id="Vector_132" d="M56.6366 75.3669L55.6265 75.9472L56.6366 76.5275L57.6467 75.9472L56.6366 75.3669Z" fill="#969A9E"/>
<path id="Vector_133" d="M59.116 74.2111L58.1058 73.6309L57.0957 74.2111L58.1058 74.7914L59.116 74.2111Z" fill="#969A9E"/>
<path id="Vector_134" d="M57.5825 77.4048C57.858 77.3911 58.1426 77.3546 58.4365 77.2906L58.1059 77.1033L57.5779 77.4048H57.5825Z" fill="#969A9E"/>
<path id="Vector_135" d="M52.688 69.0024L53.6981 69.5826L54.7083 69.0024L54.6899 68.9932L53.5053 68.5317L52.688 69.0024Z" fill="#969A9E"/>
<path id="Vector_136" d="M54.7083 72.4748L53.6981 71.8945L52.688 72.4748L53.6981 73.0551L54.7083 72.4748Z" fill="#969A9E"/>
<path id="Vector_137" d="M56.1775 70.7385L55.1674 70.1582L54.1572 70.7385L55.1674 71.3187L56.1775 70.7385Z" fill="#969A9E"/>
<path id="Vector_138" d="M52.6879 75.9472L53.1884 76.2351C53.3904 76.3127 53.5925 76.395 53.7899 76.4727L54.7036 75.9472L53.6935 75.3669L52.6833 75.9472H52.6879Z" fill="#969A9E"/>
<path id="Vector_139" d="M55.1674 73.6309L54.1572 74.2111L55.1674 74.7914L56.1775 74.2111L55.1674 73.6309Z" fill="#969A9E"/>
<path id="Vector_140" d="M51.7695 69.0024L50.7594 68.4221L49.7493 69.0024L50.7594 69.5827L51.7695 69.0024Z" fill="#969A9E"/>
<path id="Vector_141" d="M50.7594 71.8945L49.7493 72.4748L50.7594 73.0551L51.7695 72.4748L50.7594 71.8945Z" fill="#969A9E"/>
<path id="Vector_142" d="M53.2388 70.7385L52.2286 70.1582L51.2185 70.7385L52.2286 71.3187L53.2388 70.7385Z" fill="#969A9E"/>
<path id="Vector_143" d="M52.2286 73.6309L51.2185 74.2111L52.2286 74.7914L53.2388 74.2111L52.2286 73.6309Z" fill="#969A9E"/>
<path id="Vector_144" d="M48.8311 69.0024L47.8209 68.4221L46.8108 69.0024L47.8209 69.5827L48.8311 69.0024Z" fill="#969A9E"/>
<path id="Vector_145" d="M50.2774 67.2798C49.8733 67.1245 49.4692 66.9691 49.0606 66.8184L48.28 67.2661L49.2902 67.8464L50.2728 67.2798H50.2774Z" fill="#969A9E"/>
<path id="Vector_146" d="M47.8209 71.8945L46.8108 72.4748L47.8209 73.0551L48.8311 72.4748L47.8209 71.8945Z" fill="#969A9E"/>
<path id="Vector_147" d="M50.3003 70.7385L49.2902 70.1582L48.28 70.7385L49.2902 71.3187L50.3003 70.7385Z" fill="#969A9E"/>
<path id="Vector_148" d="M48.28 74.2111L48.9504 74.5949L49.359 74.7503L50.3003 74.2111L49.2902 73.6309L48.28 74.2111Z" fill="#969A9E"/>
<path id="Vector_149" d="M43.8721 65.5299L44.8822 66.1102L45.7592 65.6076C45.3414 65.4614 44.9189 65.3152 44.5011 65.1689L43.8721 65.5299Z" fill="#969A9E"/>
<path id="Vector_150" d="M45.8923 69.0024L44.8822 68.4221L43.8721 69.0024L44.8822 69.5827L45.8923 69.0024Z" fill="#969A9E"/>
<path id="Vector_151" d="M47.3616 67.2661L46.3514 66.6858L45.3413 67.2661L46.3514 67.8463L47.3616 67.2661Z" fill="#969A9E"/>
<path id="Vector_152" d="M43.8721 72.4748L44.6618 72.9271C44.7491 72.9637 44.8363 72.9957 44.9235 73.0322L45.8923 72.4748L44.8822 71.8945L43.8721 72.4748Z" fill="#969A9E"/>
<path id="Vector_153" d="M46.3514 70.1582L45.3413 70.7385L46.3514 71.3187L47.3616 70.7385L46.3514 70.1582Z" fill="#969A9E"/>
<path id="Vector_154" d="M42.9539 65.5297L41.9437 64.9495L40.9336 65.5297L41.9437 66.11L42.9539 65.5297Z" fill="#969A9E"/>
<path id="Vector_155" d="M41.9437 68.4221L40.9336 69.0024L41.9437 69.5827L42.9539 69.0024L41.9437 68.4221Z" fill="#969A9E"/>
<path id="Vector_156" d="M44.4231 67.2661L43.413 66.6858L42.4028 67.2661L43.413 67.8463L44.4231 67.2661Z" fill="#969A9E"/>
<path id="Vector_157" d="M43.413 70.1582L42.4028 70.7385L43.413 71.3187L44.4231 70.7385L43.413 70.1582Z" fill="#969A9E"/>
<path id="Vector_158" d="M40.0152 65.5297L39.005 64.9495L37.9949 65.5297L39.005 66.11L40.0152 65.5297Z" fill="#969A9E"/>
<path id="Vector_159" d="M41.0207 64.0633C40.5707 63.9307 40.1207 63.8028 39.6662 63.6794L39.4688 63.7937L40.4789 64.3739L41.0207 64.0633Z" fill="#969A9E"/>
<path id="Vector_160" d="M39.005 68.4221L37.9949 69.0024L39.005 69.5827L40.0152 69.0024L39.005 68.4221Z" fill="#969A9E"/>
<path id="Vector_161" d="M41.4844 67.2661L40.4743 66.6858L39.4641 67.2661L40.4743 67.8463L41.4844 67.2661Z" fill="#969A9E"/>
<path id="Vector_162" d="M39.4873 70.7248C39.8638 70.8984 40.2403 71.0675 40.6214 71.2365L41.4892 70.7385L40.4791 70.1582L39.4919 70.7248H39.4873Z" fill="#969A9E"/>
<path id="Vector_163" d="M37.0767 65.5297L36.0665 64.9495L35.0564 65.5297L36.0665 66.11L37.0767 65.5297Z" fill="#969A9E"/>
<path id="Vector_164" d="M38.5459 63.7936L37.5358 63.2134L36.5256 63.7936L37.5358 64.3739L38.5459 63.7936Z" fill="#969A9E"/>
<path id="Vector_165" d="M35.511 68.742C35.8599 68.9293 36.2089 69.1166 36.5625 69.2994L37.0813 69.0024L36.0712 68.4221L35.511 68.742Z" fill="#969A9E"/>
<path id="Vector_166" d="M37.5358 66.6858L36.5256 67.2661L37.5358 67.8463L38.5459 67.2661L37.5358 66.6858Z" fill="#969A9E"/>
<path id="Vector_167" d="M33.7339 55.3454C33.4722 55.085 33.1691 54.8702 32.8385 54.7012L32.1177 55.1124L33.1278 55.6927L33.7339 55.3454Z" fill="#969A9E"/>
<path id="Vector_168" d="M32.1177 58.5849L33.1278 59.1652L34.138 58.5849L33.1278 58.0046L32.1177 58.5849Z" fill="#969A9E"/>
<path id="Vector_169" d="M34.5973 57.4288L34.6616 57.3922C34.6432 57.2688 34.6294 57.1455 34.6065 57.0221C34.5652 56.7891 34.5009 56.5743 34.4182 56.3733L33.5872 56.853L34.5973 57.4333V57.4288Z" fill="#969A9E"/>
<path id="Vector_170" d="M34.138 62.0573L33.1278 61.4771L32.1177 62.0573L33.1278 62.6376L34.138 62.0573Z" fill="#969A9E"/>
<path id="Vector_171" d="M33.5872 60.3212L34.5973 60.9014L34.7947 60.7872C34.8131 60.4811 34.8269 60.175 34.8315 59.8688L34.6019 59.7363L33.5918 60.3166L33.5872 60.3212Z" fill="#969A9E"/>
<path id="Vector_172" d="M33.1278 64.9495L32.1177 65.5297L33.1278 66.11L34.138 65.5297L33.1278 64.9495Z" fill="#969A9E"/>
<path id="Vector_173" d="M35.6074 63.7936L34.5973 63.2134L33.5872 63.7936L34.5973 64.3739L35.6074 63.7936Z" fill="#969A9E"/>
<path id="Vector_174" d="M32.4024 69.1668C32.4805 69.0115 32.5631 68.8607 32.6412 68.7053L32.1223 69.0023L32.407 69.1668H32.4024Z" fill="#969A9E"/>
<path id="Vector_175" d="M34.5973 66.6858L33.5872 67.2661L34.5973 67.8463L35.6074 67.2661L34.5973 66.6858Z" fill="#969A9E"/>
<path id="Vector_176" d="M31.1995 55.1123L30.1893 54.532L29.1792 55.1123L30.1893 55.6925L31.1995 55.1123Z" fill="#969A9E"/>
<path id="Vector_177" d="M29.1792 58.5849L30.1893 59.1652L31.1995 58.5849L30.1893 58.0046L29.1792 58.5849Z" fill="#969A9E"/>
<path id="Vector_178" d="M31.6586 57.4289L32.6687 56.8486L31.6586 56.2683L30.6484 56.8486L31.6586 57.4289Z" fill="#969A9E"/>
<path id="Vector_179" d="M31.1995 62.0573L30.1893 61.4771L29.1792 62.0573L30.1893 62.6376L31.1995 62.0573Z" fill="#969A9E"/>
<path id="Vector_180" d="M30.6484 60.321L31.6586 60.9013L32.6687 60.321L31.6586 59.7407L30.6484 60.321Z" fill="#969A9E"/>
<path id="Vector_181" d="M30.1893 64.9495L29.1792 65.5297L30.1893 66.11L31.1995 65.5297L30.1893 64.9495Z" fill="#969A9E"/>
<path id="Vector_182" d="M32.6687 63.7936L31.6586 63.2134L30.6484 63.7936L31.6586 64.3739L32.6687 63.7936Z" fill="#969A9E"/>
<path id="Vector_183" d="M31.1995 69.0024L30.1893 68.4221L29.1792 69.0024L30.1893 69.5827L31.1995 69.0024Z" fill="#969A9E"/>
<path id="Vector_184" d="M30.6484 67.2661L31.6586 67.8463L32.6687 67.2661L31.6586 66.6858L30.6484 67.2661Z" fill="#969A9E"/>
<path id="Vector_185" d="M29.1792 72.4748L30.0011 72.9454C30.0975 72.822 30.1893 72.7033 30.2766 72.5845C30.3868 72.4382 30.4878 72.2783 30.598 72.1276L30.1893 71.8945L29.1792 72.4748Z" fill="#969A9E"/>
<path id="Vector_186" d="M30.6484 70.7385L31.2913 71.1086C31.4703 70.8253 31.6494 70.542 31.8193 70.2496L31.6586 70.1582L30.6484 70.7385Z" fill="#969A9E"/>
<path id="Vector_187" d="M28.114 55.0254C27.9487 55.1533 27.7972 55.295 27.6641 55.4549L28.2656 55.1122L28.1186 55.0254H28.114Z" fill="#969A9E"/>
<path id="Vector_188" d="M26.4334 55.0027L26.2451 55.1123L26.9201 55.5007C26.764 55.3271 26.5987 55.1626 26.4334 55.0027Z" fill="#969A9E"/>
<path id="Vector_189" d="M26.5665 58.7722C26.6262 58.754 26.6859 58.7357 26.741 58.7128C26.7364 58.7631 26.7272 58.8088 26.7226 58.8591L27.2553 59.1652L28.2654 58.5849L27.2553 58.0046L26.2451 58.5849L26.5665 58.7722Z" fill="#969A9E"/>
<path id="Vector_190" d="M28.7201 57.4289L29.7302 56.8486L28.7201 56.2683L27.71 56.8486L28.7201 57.4289Z" fill="#969A9E"/>
<path id="Vector_191" d="M27.2506 62.6376L28.2608 62.0573L27.2506 61.4771L26.2405 62.0573L27.2506 62.6376Z" fill="#969A9E"/>
<path id="Vector_192" d="M27.71 60.321L28.7201 60.9013L29.7302 60.321L28.7201 59.7407L27.71 60.321Z" fill="#969A9E"/>
<path id="Vector_193" d="M27.2506 64.9495L26.2405 65.5297L27.2506 66.11L28.2608 65.5297L27.2506 64.9495Z" fill="#969A9E"/>
<path id="Vector_194" d="M28.7201 63.2134L27.71 63.7936L28.7201 64.3739L29.7302 63.7936L28.7201 63.2134Z" fill="#969A9E"/>
<path id="Vector_195" d="M28.2608 69.0024L27.2506 68.4221L26.2405 69.0024L27.2506 69.5827L28.2608 69.0024Z" fill="#969A9E"/>
<path id="Vector_196" d="M29.7302 67.2661L28.7201 66.6858L27.71 67.2661L28.7201 67.8463L29.7302 67.2661Z" fill="#969A9E"/>
<path id="Vector_197" d="M28.2608 72.4748L27.2506 71.8945L26.2405 72.4748L27.2506 73.0551L28.2608 72.4748Z" fill="#969A9E"/>
<path id="Vector_198" d="M29.7302 70.7385L28.7201 70.1582L27.71 70.7385L28.7201 71.3187L29.7302 70.7385Z" fill="#969A9E"/>
<path id="Vector_199" d="M26.2405 75.9472L26.8557 76.299C27.1175 76.0614 27.3746 75.8239 27.6225 75.5817L27.2506 75.3669L26.2405 75.9472Z" fill="#969A9E"/>
<path id="Vector_200" d="M27.71 74.2111L28.5135 74.6726C28.7522 74.4167 28.9818 74.1609 29.2022 73.9096L28.7201 73.6309L27.71 74.2111Z" fill="#969A9E"/>
<path id="Vector_201" d="M24.3121 55.6925L25.3223 55.1123L24.3121 54.532L23.302 55.1123L24.3121 55.6925Z" fill="#969A9E"/>
<path id="Vector_202" d="M23.302 58.5849L24.2892 59.1515C24.2892 59.1515 24.3213 59.1515 24.3351 59.1515L25.3223 58.5849L24.3121 58.0046L23.302 58.5849Z" fill="#969A9E"/>
<path id="Vector_203" d="M25.7814 57.4289L26.7915 56.8486L25.7814 56.2683L24.7712 56.8486L25.7814 57.4289Z" fill="#969A9E"/>
<path id="Vector_204" d="M26.4792 60.504L26.7961 60.3212L26.5343 60.1704C26.516 60.2801 26.4976 60.3943 26.4838 60.504H26.4792Z" fill="#969A9E"/>
<path id="Vector_205" d="M25.0698 65.6761L25.3224 65.5299L25.1708 65.4431C25.1387 65.5208 25.102 65.5985 25.0698 65.6761Z" fill="#969A9E"/>
<path id="Vector_206" d="M25.6069 64.2732L25.7814 64.3737L26.7915 63.7935L25.8962 63.2817C25.8089 63.6153 25.7125 63.9443 25.6023 64.2732H25.6069Z" fill="#969A9E"/>
<path id="Vector_207" d="M25.3223 69.0024L24.3121 68.4221L23.302 69.0024L24.3121 69.5827L25.3223 69.0024Z" fill="#969A9E"/>
<path id="Vector_208" d="M25.7814 67.8463L26.7915 67.2661L25.7814 66.6858L24.7712 67.2661L25.7814 67.8463Z" fill="#969A9E"/>
<path id="Vector_209" d="M25.3223 72.4748L24.3121 71.8945L23.302 72.4748L24.3121 73.0551L25.3223 72.4748Z" fill="#969A9E"/>
<path id="Vector_210" d="M26.7915 70.7385L25.7814 70.1582L24.7712 70.7385L25.7814 71.3187L26.7915 70.7385Z" fill="#969A9E"/>
<path id="Vector_211" d="M24.3121 75.3669L23.302 75.9472L24.3121 76.5275L25.3223 75.9472L24.3121 75.3669Z" fill="#969A9E"/>
<path id="Vector_212" d="M26.7915 74.2111L25.7814 73.6309L24.7712 74.2111L25.7814 74.7914L26.7915 74.2111Z" fill="#969A9E"/>
<path id="Vector_213" d="M24.7712 77.6835L24.9962 77.8115C25.2901 77.5967 25.5794 77.3774 25.8594 77.149L25.7814 77.1033L24.7712 77.6835Z" fill="#969A9E"/>
<path id="Vector_214" d="M21.4333 52.1881C21.3047 52.1378 21.1762 52.083 21.0476 52.0327L21.3736 52.22L21.4287 52.1881H21.4333Z" fill="#969A9E"/>
<path id="Vector_215" d="M20.3633 55.1123L21.3734 55.6925L22.3836 55.1123L21.3734 54.532L20.3633 55.1123Z" fill="#969A9E"/>
<path id="Vector_216" d="M23.853 53.3762L22.8429 52.7959L21.8328 53.3762L22.8429 53.9564L23.853 53.3762Z" fill="#969A9E"/>
<path id="Vector_217" d="M22.3837 58.5849L21.3735 58.0046L20.5425 58.4844C20.9879 58.6352 21.4378 58.7677 21.8832 58.8728L22.3837 58.5849Z" fill="#969A9E"/>
<path id="Vector_218" d="M21.8328 56.8486L22.8429 57.4289L23.853 56.8486L22.8429 56.2683L21.8328 56.8486Z" fill="#969A9E"/>
<path id="Vector_219" d="M21.3734 73.0551L22.3836 72.4748L21.3734 71.8945L20.3633 72.4748L21.3734 73.0551Z" fill="#969A9E"/>
<path id="Vector_220" d="M23.853 70.7385L22.8429 70.1582L21.8328 70.7385L22.8429 71.3187L23.853 70.7385Z" fill="#969A9E"/>
<path id="Vector_221" d="M22.3836 75.9472L21.3734 75.3669L20.3633 75.9472L21.3734 76.5275L22.3836 75.9472Z" fill="#969A9E"/>
<path id="Vector_222" d="M23.853 74.2111L22.8429 73.6309L21.8328 74.2111L22.8429 74.7914L23.853 74.2111Z" fill="#969A9E"/>
<path id="Vector_223" d="M20.3633 79.4199L21.2127 79.9088C21.603 79.7626 21.9841 79.5981 22.3652 79.4107L21.3734 78.8396L20.3633 79.4199Z" fill="#969A9E"/>
<path id="Vector_224" d="M21.8328 77.6835L22.8429 78.2638L23.853 77.6835L22.8429 77.1033L21.8328 77.6835Z" fill="#969A9E"/>
<path id="Vector_225" d="M19.4451 51.6398L18.4349 51.0596L17.4248 51.6398L18.4349 52.2201L19.4451 51.6398Z" fill="#969A9E"/>
<path id="Vector_226" d="M17.4248 55.1123L18.4349 55.6925L19.4451 55.1123L18.4349 54.532L17.4248 55.1123Z" fill="#969A9E"/>
<path id="Vector_227" d="M19.9042 53.9564L20.9143 53.3762L19.9042 52.7959L18.894 53.3762L19.9042 53.9564Z" fill="#969A9E"/>
<path id="Vector_228" d="M18.894 56.8486L19.9042 57.4289L20.9143 56.8486L19.9042 56.2683L18.894 56.8486Z" fill="#969A9E"/>
<path id="Vector_229" d="M19.445 72.4749L19.3669 72.4292C19.1236 72.6074 18.8756 72.7764 18.6277 72.9455L19.445 72.4749Z" fill="#969A9E"/>
<path id="Vector_230" d="M19.4451 75.9472L18.4349 75.3669L17.4248 75.9472L18.4349 76.5275L19.4451 75.9472Z" fill="#969A9E"/>
<path id="Vector_231" d="M20.9143 74.2111L19.9042 73.6309L18.894 74.2111L19.9042 74.7914L20.9143 74.2111Z" fill="#969A9E"/>
<path id="Vector_232" d="M17.4248 79.4199L18.4349 80.0001L19.4451 79.4199L18.4349 78.8396L17.4248 79.4199Z" fill="#969A9E"/>
<path id="Vector_233" d="M19.9042 77.1033L18.894 77.6835L19.9042 78.2638L20.9143 77.6835L19.9042 77.1033Z" fill="#969A9E"/>
<path id="Vector_234" d="M15.4965 52.2201L16.5066 51.6398L15.4965 51.0596L14.4863 51.6398L15.4965 52.2201Z" fill="#969A9E"/>
<path id="Vector_235" d="M17.154 50.3789C16.7775 50.2098 16.4056 50.0362 16.0337 49.8625L15.9602 49.9037L16.9703 50.4839L17.154 50.3789Z" fill="#969A9E"/>
<path id="Vector_236" d="M14.4863 55.1123L15.4965 55.6925L16.5066 55.1123L15.4965 54.532L14.4863 55.1123Z" fill="#969A9E"/>
<path id="Vector_237" d="M15.9556 53.3762L16.9657 53.9564L17.9758 53.3762L16.9657 52.7959L15.9556 53.3762Z" fill="#969A9E"/>
<path id="Vector_238" d="M16.4514 56.5653C16.7912 56.7618 17.1356 56.9491 17.4799 57.1319L17.9758 56.8486L16.9657 56.2683L16.4514 56.5653Z" fill="#969A9E"/>
<path id="Vector_239" d="M16.5065 75.9472L15.4963 75.3669L15.1198 75.5817C14.9775 75.737 14.8443 75.9061 14.7112 76.0752L15.4963 76.5275L16.5065 75.9472Z" fill="#969A9E"/>
<path id="Vector_240" d="M17.9759 74.2111L17.2963 73.8228C16.9887 74.0284 16.6811 74.2385 16.3872 74.4624L16.9657 74.796L17.9759 74.2157V74.2111Z" fill="#969A9E"/>
<path id="Vector_241" d="M14.725 79.2827C14.9409 79.566 15.2026 79.8127 15.501 79.9955L16.5066 79.4152L15.4964 78.835L14.7205 79.2782L14.725 79.2827Z" fill="#969A9E"/>
<path id="Vector_242" d="M16.9657 77.1033L15.9556 77.6835L16.9657 78.2638L17.9758 77.6835L16.9657 77.1033Z" fill="#969A9E"/>
<path id="Vector_243" d="M12.5577 51.0596L11.5476 51.6398L12.5577 52.2201L13.5679 51.6398L12.5577 51.0596Z" fill="#969A9E"/>
<path id="Vector_244" d="M15.0371 49.9035L14.027 49.3232L13.0168 49.9035L14.027 50.4838L15.0371 49.9035Z" fill="#969A9E"/>
<path id="Vector_245" d="M14.027 52.7959L13.0168 53.3762L14.027 53.9564L15.0371 53.3762L14.027 52.7959Z" fill="#969A9E"/>
<path id="Vector_246" d="M14.1648 77.1809C14.1051 77.5099 14.1235 77.8434 14.1969 78.1678L15.0372 77.6835L14.1602 77.1809H14.1648Z" fill="#969A9E"/>
<path id="Vector_247" d="M12.0986 49.9037L11.5247 49.5747C11.2813 49.8123 11.0793 50.091 10.9324 50.3926L11.0885 50.484L12.0986 49.9037Z" fill="#969A9E"/>
<path id="Vector_248" d="M11.0242 52.8324C11.1941 53.1065 11.4236 53.3624 11.7267 53.5863L12.0986 53.3715L11.0885 52.7913L11.0242 52.8278V52.8324Z" fill="#969A9E"/>
</g>
<g id="icons design">
<g id="Group">
<g id="Group_2">
<g id="Group_3">
<path id="Vector_249" d="M118.388 36.2053L53.5007 73.4844L0.688721 43.1412L38.2154 21.5797L58.3401 24.1475L53.115 13.0218L65.5764 5.86206L118.393 36.2053H118.388ZM54.2583 62.6466L61.6139 58.4202L24.6474 37.1831L17.2917 41.4095L54.2583 62.6466ZM75.2324 44.119C78.2583 44.1601 81.3116 43.5113 83.6212 42.1817C88.1163 39.6001 88.1163 35.4149 83.6212 32.8288C79.1261 30.2472 71.8347 30.2427 67.3396 32.8288C65.03 34.1538 63.9005 35.9083 63.9694 37.6491C64.0291 39.2529 63.3449 40.3952 62.8582 41.0211C62.7664 41.1353 62.6837 41.2359 62.6103 41.3135C61.2053 42.8625 57.004 44.7541 59.9105 46.4172L59.9701 46.4492C62.8766 48.1215 66.1412 45.7136 68.8548 44.9003C68.9925 44.8591 69.167 44.8089 69.369 44.7586C70.4526 44.4753 72.4408 44.0824 75.2278 44.119H75.2324ZM44.0237 42.9538L49.304 39.92L34.5927 31.4672L29.3124 34.501L44.0237 42.9538Z" fill="white"/>
<path id="Vector_250" d="M61.6139 58.4201L54.2582 62.6465L17.2871 41.4094L24.6474 37.1785L61.6139 58.4201Z" fill="#969A9E"/>
<path id="Vector_251" d="M62.8627 41.0166L69.3735 44.7541C69.1715 44.8044 68.997 44.8546 68.8593 44.8958C66.1457 45.709 62.8811 48.117 59.9746 46.4447L59.915 46.4127C57.0085 44.7495 61.2144 42.8579 62.6148 41.309C62.6883 41.2314 62.7709 41.1308 62.8627 41.0166Z" fill="white"/>
<path id="Vector_252" d="M49.3041 39.9201L44.0238 42.9539L29.3125 34.5012L34.5928 31.4673L49.3041 39.9201Z" fill="#969A9E"/>
<path id="Vector_253" d="M58.3401 24.1474L38.2153 21.5796L53.1149 13.0217L58.3401 24.1474Z" fill="#373A3A"/>
</g>
<g id="Group_4">
<path id="Vector_254" d="M53.5053 74.1698C53.3859 74.1698 53.2665 74.1378 53.1609 74.0784L0.344366 43.7351C0.133155 43.6118 0 43.3879 0 43.1412C0 42.8944 0.133155 42.6705 0.344366 42.5472L65.2321 5.26806C65.4433 5.1447 65.7096 5.1447 65.9208 5.26806L118.737 35.6113C118.949 35.7347 119.082 35.9586 119.082 36.2053C119.082 36.452 118.949 36.6759 118.737 36.7993L53.8496 74.0784C53.744 74.1378 53.6246 74.1698 53.5053 74.1698ZM2.06619 43.1412L53.5053 72.694L117.015 36.2053L65.5764 6.65249L2.06619 43.1412Z" fill="#373A3A"/>
<path id="Vector_255" d="M54.2583 63.3319C54.1389 63.3319 54.0195 63.2999 53.9139 63.2405L16.9474 42.0035C16.7362 41.8801 16.603 41.6562 16.603 41.4095C16.603 41.1628 16.7362 40.9389 16.9474 40.8155L24.303 36.5891C24.5143 36.4657 24.7806 36.4657 24.9918 36.5891L61.9583 57.8262C62.1695 57.9495 62.3027 58.1734 62.3027 58.4202C62.3027 58.6669 62.1695 58.8908 61.9583 59.0141L54.6026 63.2405C54.497 63.2999 54.3777 63.3319 54.2583 63.3319ZM18.6646 41.4095L54.2537 61.8561L60.2319 58.4202L24.6428 37.9735L18.6646 41.4095Z" fill="#373A3A"/>
<path id="Vector_256" d="M44.0238 43.6393C43.9044 43.6393 43.7851 43.6073 43.6795 43.5479L28.9681 35.0951C28.7569 34.9717 28.6238 34.7479 28.6238 34.5011C28.6238 34.2544 28.7569 34.0305 28.9681 33.9072L34.2484 30.8733C34.4596 30.7499 34.7259 30.7499 34.9372 30.8733L49.6485 39.3261C49.8597 39.4494 49.9928 39.6733 49.9928 39.9201C49.9928 40.1668 49.8597 40.3907 49.6485 40.514L44.3682 43.5479C44.2626 43.6073 44.1432 43.6393 44.0238 43.6393ZM30.69 34.5011L44.0238 42.1635L47.9266 39.9201L34.5928 32.2577L30.69 34.5011Z" fill="#373A3A"/>
<path id="Vector_257" d="M62.1833 47.7147C61.3293 47.7147 60.4753 47.5274 59.635 47.0431L59.5753 47.0111C58.7305 46.5268 58.2805 45.9419 58.2346 45.2657C58.1474 44.0138 59.4605 43.004 60.7324 42.0217C61.2788 41.6013 61.7884 41.2038 62.1099 40.852C62.1741 40.7834 62.243 40.6966 62.3257 40.5961C62.794 39.9976 63.3404 39.0061 63.2899 37.6719C63.2072 35.6204 64.5617 33.6374 67.0044 32.2347C71.6832 29.5481 79.296 29.5481 83.9748 32.2347C86.3716 33.61 87.6893 35.4833 87.6893 37.5028C87.6893 39.5224 86.3716 41.3957 83.9748 42.771C81.6239 44.1189 78.5154 44.8408 75.2325 44.7997C72.6199 44.7722 70.7052 45.1195 69.5527 45.4165C69.3599 45.4667 69.1946 45.5124 69.066 45.549C68.4049 45.7455 67.7024 46.047 66.9539 46.3714C65.4571 47.0111 63.8271 47.7102 62.1879 47.7102L62.1833 47.7147ZM75.4804 31.5722C72.6566 31.5722 69.8374 32.189 67.6886 33.4226C65.6775 34.5786 64.6031 36.0681 64.6628 37.6216C64.727 39.3716 64.0153 40.6646 63.4093 41.4414C63.3082 41.5739 63.2118 41.6835 63.1292 41.7749C62.7297 42.2181 62.165 42.6476 61.5726 43.1091C60.7737 43.7259 59.5661 44.6534 59.6029 45.1743C59.6166 45.3571 59.8554 45.5947 60.2595 45.8231L60.3191 45.8597C62.1787 46.9288 64.3276 46.0105 66.4029 45.1195C67.1881 44.7814 67.9273 44.4661 68.662 44.2468C68.8043 44.2057 68.988 44.1508 69.1992 44.1006C70.4297 43.7807 72.4776 43.4061 75.2417 43.4381C78.2399 43.4929 81.1693 42.8075 83.2769 41.5967C85.2283 40.4727 86.3027 39.0243 86.3027 37.5165C86.3027 36.0087 85.2283 34.5558 83.2769 33.4364C81.128 32.2027 78.2996 31.5813 75.4758 31.5813L75.4804 31.5722Z" fill="#373A3A"/>
<path id="Vector_258" d="M69.3737 45.444C69.2589 45.444 69.1395 45.4166 69.0293 45.3526L62.5185 41.6151C62.1879 41.4278 62.0777 41.0074 62.266 40.6785C62.4542 40.3495 62.8767 40.2398 63.2073 40.4272L69.7181 44.1647C70.0487 44.352 70.1589 44.7724 69.9706 45.1013C69.842 45.3206 69.6125 45.444 69.3737 45.444Z" fill="#373A3A"/>
<path id="Vector_259" d="M63.6985 30.9599C63.5837 30.9599 63.4643 30.9325 63.3541 30.8685L59.5615 28.6891C59.2309 28.5018 59.1207 28.0814 59.309 27.7524C59.4972 27.4235 59.9196 27.3138 60.2502 27.5011L64.0428 29.6806C64.3734 29.8679 64.4836 30.2883 64.2954 30.6172C64.1668 30.8366 63.9372 30.9599 63.6985 30.9599Z" fill="#373A3A"/>
<path id="Vector_260" d="M71.4903 28.5658C71.2286 28.5658 70.9806 28.4196 70.8658 28.1683L69.47 25.1892C69.3093 24.8466 69.4562 24.4399 69.8052 24.28C70.1496 24.1201 70.5582 24.2663 70.7189 24.6135L72.1147 27.5926C72.2754 27.9353 72.1285 28.3419 71.7796 28.5018C71.6831 28.5475 71.5867 28.5658 71.4903 28.5658Z" fill="#373A3A"/>
<path id="Vector_261" d="M80.3154 28.7257C80.219 28.7257 80.118 28.7075 80.0261 28.6618C79.6818 28.5019 79.5302 28.0952 79.6909 27.7525L81.0822 24.7781C81.2429 24.4354 81.6515 24.2892 81.9959 24.4445C82.3403 24.6044 82.4918 25.0111 82.3311 25.3538L80.9398 28.3282C80.8251 28.5795 80.5725 28.7257 80.3154 28.7257Z" fill="#373A3A"/>
<path id="Vector_262" d="M87.8224 31.4031C87.5836 31.4031 87.354 31.2798 87.2255 31.0604C87.0372 30.7315 87.1474 30.3157 87.478 30.1238L91.2706 27.9443C91.6012 27.7524 92.0236 27.8667 92.2119 28.1956C92.4001 28.5246 92.2899 28.9404 91.9593 29.1323L88.1667 31.3117C88.0565 31.3757 87.9417 31.4031 87.8224 31.4031Z" fill="#373A3A"/>
<path id="Vector_263" d="M91.9916 35.8764C91.6564 35.8764 91.3626 35.6343 91.3121 35.2962C91.2524 34.9215 91.5095 34.5743 91.886 34.5149L97.0653 33.7153C97.4418 33.6604 97.7953 33.9117 97.8504 34.2864C97.9101 34.6611 97.653 35.0083 97.2765 35.0677L92.0972 35.8673C92.0605 35.8719 92.0238 35.8764 91.9916 35.8764Z" fill="#373A3A"/>
<path id="Vector_264" d="M96.8954 41.7431C96.8587 41.7431 96.8266 41.743 96.7898 41.7339L91.606 40.9389C91.2295 40.8795 90.9724 40.5322 91.032 40.1576C91.0917 39.7829 91.4407 39.527 91.8172 39.5864L97.0011 40.3815C97.3776 40.4409 97.6347 40.7881 97.575 41.1628C97.5245 41.5009 97.2306 41.7431 96.8954 41.7431Z" fill="#373A3A"/>
<path id="Vector_265" d="M90.8437 47.4406C90.729 47.4406 90.6096 47.4132 90.4994 47.3493L86.7068 45.1698C86.3762 44.9825 86.266 44.5621 86.4542 44.2331C86.6425 43.9042 87.0649 43.7945 87.3955 43.9818L91.1881 46.1613C91.5187 46.3486 91.6289 46.769 91.4406 47.098C91.3121 47.3173 91.0825 47.4406 90.8437 47.4406Z" fill="#373A3A"/>
<path id="Vector_266" d="M58.3401 24.8329C58.3126 24.8329 58.2805 24.8329 58.2529 24.8283L38.1282 22.2605C37.7517 22.2103 37.4854 21.8676 37.5313 21.4929C37.5818 21.1183 37.9216 20.8532 38.3027 20.8989L57.1831 23.3068L52.4859 13.3097C52.3252 12.967 52.4722 12.5604 52.8165 12.4005C53.1609 12.2405 53.5695 12.3867 53.7302 12.7294L58.9554 23.8551C59.061 24.0836 59.0381 24.3486 58.8865 24.5496C58.758 24.7278 58.5468 24.8329 58.331 24.8329H58.3401Z" fill="#373A3A"/>
</g>
</g>
<g id="Group_5">
<g id="Group_6">
<path id="Vector_267" d="M45.6353 11.6465C45.8557 12.7202 45.7823 13.8305 45.3874 14.8448L22.5582 73.1508C23.6097 70.3637 22.5582 66.9917 19.8584 65.091C16.7407 62.9024 12.6221 63.5192 10.6432 66.4617C10.4274 66.7815 10.2529 67.1151 10.106 67.4577L34.4962 9.82339C34.6248 9.51726 34.7855 9.22027 34.9738 8.93242C35.4696 8.19223 36.1125 7.62566 36.8471 7.23729C38.6929 6.2458 41.0943 6.3646 43.0411 7.73075C44.4369 8.70853 45.3231 10.1432 45.6307 11.6465H45.6353Z" fill="white"/>
<path id="Vector_268" d="M44.6021 0.685303L45.6444 11.6465H45.6398C45.3322 10.1387 44.4414 8.70404 43.0502 7.73082C41.1034 6.36467 38.702 6.24587 36.8562 7.23736L44.6021 0.685303Z" fill="white"/>
<path id="Vector_269" d="M19.8583 65.0911C22.5536 66.9872 23.6096 70.3638 22.5581 73.1509L22.5306 73.2194C22.3699 73.6215 22.1679 74.0145 21.9199 74.3846C19.941 77.327 15.8224 77.9439 12.7093 75.7553C9.94059 73.8089 8.9029 70.2998 10.0967 67.4761L10.1059 67.4578C10.2528 67.1152 10.4319 66.7816 10.6431 66.4618C12.622 63.5193 16.7453 62.9025 19.8583 65.0911ZM18.5451 72.0132C19.3395 70.8344 18.9676 69.1621 17.7233 68.2848C16.4698 67.4076 14.8168 67.6543 14.0225 68.8331C13.2327 70.0165 13.6046 71.6888 14.8535 72.5615C16.107 73.4388 17.76 73.192 18.5497 72.0132H18.5451Z" fill="#C2C7CC"/>
<path id="Vector_270" d="M17.7233 68.2802C18.9722 69.1574 19.3441 70.8297 18.5452 72.0085C17.7554 73.1919 16.0979 73.4387 14.849 72.5568C13.6001 71.6841 13.2281 70.0119 14.0179 68.8285C14.8122 67.6496 16.4652 67.4029 17.7187 68.2802H17.7233Z" fill="#373A3A"/>
</g>
<g id="Group_7">
<path id="Vector_271" d="M16.7821 77.7474C15.2209 77.7474 13.6415 77.2494 12.3099 76.3127C9.31622 74.2109 8.11783 70.382 9.46315 67.2065C9.61008 66.8593 10.0141 66.6948 10.3631 66.841C10.712 66.9872 10.8773 67.3893 10.7304 67.7365C9.63763 70.3226 10.634 73.457 13.1042 75.1887C14.5276 76.1893 16.2081 76.5777 17.8335 76.2762C19.2891 76.0066 20.538 75.1978 21.3461 73.9962C21.5619 73.6718 21.7455 73.3245 21.8879 72.959C22.0256 72.6072 22.4297 72.4336 22.7832 72.5706C23.1368 72.7077 23.3112 73.1052 23.1735 73.457C22.9944 73.9139 22.7649 74.3526 22.4939 74.7547C21.4792 76.267 19.9135 77.2859 18.0861 77.6195C17.6545 77.6971 17.2183 77.7383 16.7821 77.7383V77.7474Z" fill="#373A3A"/>
<path id="Vector_272" d="M22.5583 73.8362C22.4756 73.8362 22.3975 73.8225 22.3149 73.7905C21.9568 73.658 21.7777 73.2605 21.9108 72.9087C22.8659 70.3774 21.8374 67.3253 19.459 65.653C18.0539 64.6661 16.3321 64.2685 14.7297 64.5655C13.2696 64.8351 12.0252 65.6438 11.2171 66.8455C11.0381 67.1105 10.8774 67.4075 10.7396 67.7319C10.5881 68.0792 10.184 68.2391 9.83508 68.0929C9.48613 67.9421 9.32542 67.54 9.47235 67.1927C9.64683 66.7952 9.84427 66.4206 10.0693 66.087C11.084 64.5747 12.6497 63.5558 14.4771 63.2222C16.4423 62.8613 18.5452 63.341 20.2533 64.5381C23.1322 66.5668 24.3719 70.2906 23.2011 73.3976C23.0955 73.6717 22.8337 73.8408 22.5583 73.8408V73.8362Z" fill="#373A3A"/>
<path id="Vector_273" d="M16.4882 73.7722C15.7765 73.7722 15.0602 73.5484 14.4541 73.1189C12.9068 72.036 12.4522 69.9388 13.4486 68.4493C13.9215 67.7502 14.6424 67.2796 15.4872 67.1242C16.3826 66.9552 17.3468 67.1745 18.1228 67.7182C19.6747 68.8102 20.1201 70.9074 19.1237 72.3924C18.66 73.0869 17.9391 73.5621 17.0943 73.7174C16.8968 73.754 16.6948 73.7722 16.4928 73.7722H16.4882ZM16.0933 68.4401C15.9739 68.4401 15.8546 68.4493 15.7306 68.4721C15.2577 68.5589 14.849 68.8239 14.5873 69.2123C14.0042 70.0896 14.298 71.3369 15.2393 71.9994C15.7168 72.333 16.2953 72.47 16.8326 72.3695C17.3055 72.2827 17.7095 72.0177 17.9667 71.6293C18.5544 70.7566 18.2651 69.5047 17.3193 68.8376C16.9428 68.5726 16.5157 68.4356 16.0887 68.4356L16.0933 68.4401Z" fill="#373A3A"/>
<path id="Vector_274" d="M45.6399 12.3318C45.2909 12.3318 44.9879 12.0668 44.9558 11.7105L44.0375 2.06056L37.2925 7.7582C37.0032 8.00493 36.567 7.96838 36.3237 7.68052C36.0757 7.39267 36.1124 6.95861 36.4017 6.71645L44.1568 0.164391C44.3543 -9.62385e-05 44.6252 -0.045787 44.8639 0.0501636C45.1027 0.146114 45.268 0.36543 45.2909 0.621299L46.3332 11.5825C46.37 11.9572 46.0899 12.2953 45.7134 12.3273C45.6904 12.3273 45.6674 12.3273 45.6491 12.3273L45.6399 12.3318Z" fill="#373A3A"/>
<path id="Vector_275" d="M22.5352 73.9047C22.4526 73.9047 22.3653 73.891 22.2873 73.859C21.9337 73.722 21.7592 73.3245 21.897 72.9726L44.7491 14.5981C45.0889 13.7254 45.1623 12.7522 44.9649 11.7835C44.6756 10.3717 43.8538 9.12891 42.6508 8.2882C40.9657 7.10481 38.8719 6.93575 37.1776 7.83586C36.5119 8.19225 35.9655 8.68571 35.5476 9.30711C35.3824 9.54927 35.2446 9.8097 35.1298 10.0793L10.7304 67.7365C10.5834 68.0837 10.1794 68.2482 9.83041 68.102C9.48146 67.9558 9.31616 67.5537 9.46309 67.2065L33.8626 9.55384C34.0095 9.20659 34.1886 8.8639 34.4044 8.54864C34.9462 7.73534 35.6624 7.0911 36.5257 6.62962C38.6791 5.47822 41.333 5.68383 43.4405 7.16878C44.9282 8.21053 45.9475 9.75031 46.3102 11.5094C46.5628 12.7385 46.4663 13.9767 46.0301 15.0961L23.1734 73.4707C23.0678 73.7402 22.8061 73.9047 22.5306 73.9047H22.5352Z" fill="#373A3A"/>
</g>
</g>
</g>
</g>
</g>
<defs>
<clipPath id="clip0_2064_3827">
<rect width="120" height="80" fill="white"/>
</clipPath>
</defs>
</svg>
