<svg width="96" height="86" viewBox="0 0 96 86" fill="none" xmlns="http://www.w3.org/2000/svg">
<g clip-path="url(#clip0_3153_8373)">
<path d="M43.2224 63.089L44.2549 62.4972L43.2224 61.9053L42.1899 62.4972L43.2224 63.089Z" fill="#969A9E"/>
<path d="M44.2549 66.0391L43.2224 65.4473L42.1899 66.0391L43.2224 66.631L44.2549 66.0391Z" fill="#969A9E"/>
<path d="M43.2225 68.989L42.772 69.2453C43.1286 69.2966 43.4853 69.3339 43.8467 69.3479L43.2225 68.989Z" fill="#969A9E"/>
<path d="M40.3504 59.4725C40.0735 59.3653 39.8013 59.2581 39.5244 59.1509L40.219 59.547L40.3504 59.4725Z" fill="#969A9E"/>
<path d="M39.1865 62.4972L40.219 63.089L41.2514 62.4972L40.219 61.9053L39.1865 62.4972Z" fill="#969A9E"/>
<path d="M42.7534 60.7262L41.7209 60.1343L40.6885 60.7262L41.7209 61.318L42.7534 60.7262Z" fill="#969A9E"/>
<path d="M41.2514 66.0391L40.219 65.4473L39.1865 66.0391L40.219 66.631L41.2514 66.0391Z" fill="#969A9E"/>
<path d="M40.6885 64.2681L41.7209 64.86L42.7534 64.2681L41.7209 63.6763L40.6885 64.2681Z" fill="#969A9E"/>
<path d="M41.7209 68.402L42.7534 67.8101L41.7209 67.2183L40.6885 67.8101L41.7209 68.402Z" fill="#969A9E"/>
<path d="M38.248 58.9552L37.2156 58.3633L36.1831 58.9552L37.2156 59.547L38.248 58.9552Z" fill="#969A9E"/>
<path d="M36.1831 62.4972L37.2156 63.089L38.248 62.4972L37.2156 61.9053L36.1831 62.4972Z" fill="#969A9E"/>
<path d="M37.6846 60.7262L38.717 61.318L39.7495 60.7262L38.717 60.1343L37.6846 60.7262Z" fill="#969A9E"/>
<path d="M36.1831 66.0391L37.2156 66.631L38.248 66.0391L37.2156 65.4473L36.1831 66.0391Z" fill="#969A9E"/>
<path d="M39.7495 64.2681L38.717 63.6763L37.6846 64.2681L38.717 64.86L39.7495 64.2681Z" fill="#969A9E"/>
<path d="M39.069 68.2016L39.7495 67.8101L38.717 67.2183L37.8535 67.7123C37.9755 67.7635 38.7874 68.0898 39.069 68.2016Z" fill="#969A9E"/>
<path d="M33.1797 58.9552L34.2121 59.547L35.2446 58.9552L34.2121 58.3633L33.1797 58.9552Z" fill="#969A9E"/>
<path d="M35.756 57.7528C35.6809 57.7248 35.6058 57.7015 35.5308 57.6736L35.7138 57.7761L35.756 57.7528Z" fill="#969A9E"/>
<path d="M35.2446 62.4972L34.2121 61.9053L33.1797 62.4972L34.2121 63.089L35.2446 62.4972Z" fill="#969A9E"/>
<path d="M34.6812 60.7262L35.7136 61.318L36.7461 60.7262L35.7136 60.1343L34.6812 60.7262Z" fill="#969A9E"/>
<path d="M35.2445 66.0391L34.212 65.4473L33.4424 65.89C33.8413 66.0578 34.2402 66.2209 34.6438 66.384L35.2445 66.0391Z" fill="#969A9E"/>
<path d="M36.7461 64.2681L35.7136 63.6763L34.6812 64.2681L35.7136 64.86L36.7461 64.2681Z" fill="#969A9E"/>
<path d="M31.2082 59.547L32.2407 58.9552L31.2082 58.3633L30.1758 58.9552L31.2082 59.547Z" fill="#969A9E"/>
<path d="M32.7102 57.776L33.7427 57.1841L33.156 56.8486C32.9683 56.7833 32.7853 56.7227 32.5976 56.6575L31.6777 57.1841L32.7102 57.776Z" fill="#969A9E"/>
<path d="M30.1758 62.4972L31.2082 63.089L32.2407 62.4972L31.2082 61.9053L30.1758 62.4972Z" fill="#969A9E"/>
<path d="M31.6777 60.7262L32.7102 61.318L33.7427 60.7262L32.7102 60.1343L31.6777 60.7262Z" fill="#969A9E"/>
<path d="M31.6777 64.2681L32.7102 64.86L33.7427 64.2681L32.7102 63.6763L31.6777 64.2681Z" fill="#969A9E"/>
<path d="M28.2048 56.005L29.1106 55.4876L27.8153 55.0496L27.1724 55.4131L28.2048 56.005Z" fill="#969A9E"/>
<path d="M27.1724 58.9552L28.2048 59.547L29.2373 58.9552L28.2048 58.3633L27.1724 58.9552Z" fill="#969A9E"/>
<path d="M29.7068 57.776L30.7392 57.1842L29.7068 56.5923L28.6743 57.1842L29.7068 57.776Z" fill="#969A9E"/>
<path d="M27.1724 62.4972L28.2048 63.089L29.2373 62.4972L28.2048 61.9053L27.1724 62.4972Z" fill="#969A9E"/>
<path d="M28.6743 60.7262L29.7068 61.318L30.7392 60.7262L29.7068 60.1343L28.6743 60.7262Z" fill="#969A9E"/>
<path d="M30.2369 64.5617L30.739 64.2728L29.7066 63.6809L29.0308 64.0677C29.1856 64.1283 29.9881 64.4592 30.2369 64.5617Z" fill="#969A9E"/>
<path d="M25.2014 56.0051L26.2339 55.4132L25.2014 54.8213L24.1689 55.4132L25.2014 56.0051Z" fill="#969A9E"/>
<path d="M24.1689 58.9552L25.2014 59.547L26.2339 58.9552L25.2014 58.3633L24.1689 58.9552Z" fill="#969A9E"/>
<path d="M25.6709 57.1842L26.7034 57.776L27.7358 57.1842L26.7034 56.5923L25.6709 57.1842Z" fill="#969A9E"/>
<path d="M26.2341 62.4972L25.2016 61.9053L24.4648 62.3294L25.7179 62.7954L26.2341 62.4972Z" fill="#969A9E"/>
<path d="M25.6709 60.7262L26.7034 61.318L27.7358 60.7262L26.7034 60.1343L25.6709 60.7262Z" fill="#969A9E"/>
<path d="M21.1655 55.4132L22.198 56.0051L23.2304 55.4132L22.198 54.8213L21.1655 55.4132Z" fill="#969A9E"/>
<path d="M23.6998 54.2341L24.2817 53.8986C23.8218 53.7587 23.3619 53.6283 22.9019 53.5071L22.6626 53.6422L23.6951 54.2341H23.6998Z" fill="#969A9E"/>
<path d="M23.2304 58.9552L22.198 58.3633L21.1655 58.9552L22.198 59.547L23.2304 58.9552Z" fill="#969A9E"/>
<path d="M22.667 57.1842L23.6995 57.776L24.7319 57.1842L23.6995 56.5923L22.667 57.1842Z" fill="#969A9E"/>
<path d="M22.667 60.7262L23.6995 61.318L24.7319 60.7262L23.6995 60.1343L22.667 60.7262Z" fill="#969A9E"/>
<path d="M18.1621 55.4132L19.1946 56.0051L20.227 55.4132L19.1946 54.8213L18.1621 55.4132Z" fill="#969A9E"/>
<path d="M19.6636 53.6422L20.696 54.2341L21.7285 53.6422L20.696 53.0503L19.6636 53.6422Z" fill="#969A9E"/>
<path d="M18.1621 58.9552L19.1946 59.547L20.227 58.9552L19.1946 58.3633L18.1621 58.9552Z" fill="#969A9E"/>
<path d="M21.7285 57.1842L20.696 56.5923L19.6636 57.1842L20.696 57.776L21.7285 57.1842Z" fill="#969A9E"/>
<path d="M21.7287 60.7262L20.6962 60.1343L19.9829 60.5444C20.3771 60.7168 20.7713 60.8846 21.1702 61.0477L21.7334 60.7262H21.7287Z" fill="#969A9E"/>
<path d="M17.2231 55.4132L16.1907 54.8213L15.1582 55.4132L16.1907 56.0051L17.2231 55.4132Z" fill="#969A9E"/>
<path d="M16.6602 53.6422L17.6926 54.2341L18.7251 53.6422L17.6926 53.0503L16.6602 53.6422Z" fill="#969A9E"/>
<path d="M16.998 59.0857L17.2232 58.9552L16.1908 58.3633L15.9702 58.4891C16.3081 58.6942 16.6507 58.8946 16.998 59.0857Z" fill="#969A9E"/>
<path d="M17.6926 57.776L18.7251 57.1842L17.6926 56.5923L16.6602 57.1842L17.6926 57.776Z" fill="#969A9E"/>
<path d="M14.2198 55.4132L13.1873 54.8213L12.1689 55.4039C12.1689 55.4039 12.1736 55.4178 12.1783 55.4272L13.1873 56.0051L14.2198 55.4132Z" fill="#969A9E"/>
<path d="M15.7217 53.6422L14.6892 53.0503L13.6567 53.6422L14.6892 54.2341L15.7217 53.6422Z" fill="#969A9E"/>
<path d="M15.7213 57.1842L14.6888 56.5923L13.877 57.0583C14.1726 57.2867 14.4777 57.5104 14.7827 57.7201L15.7213 57.1842Z" fill="#969A9E"/>
<path d="M12.7181 53.642L12.4647 53.4976C12.3521 53.6374 12.2582 53.7912 12.1831 53.9496L12.7181 53.642Z" fill="#969A9E"/>
<path d="M94.4608 62.0078L94.2825 61.9053L93.25 62.4972L94.2825 63.089L94.8597 62.7581C94.7377 62.5065 94.6063 62.2548 94.4608 62.0031V62.0078Z" fill="#969A9E"/>
<path d="M94.2825 65.4473L93.25 66.0391L94.2825 66.631L95.3149 66.0391L94.2825 65.4473Z" fill="#969A9E"/>
<path d="M94.7515 64.268L95.6056 64.7573C95.5305 64.4777 95.446 64.2027 95.3475 63.9231L94.7515 64.2633V64.268Z" fill="#969A9E"/>
<path d="M94.2825 68.989L93.25 69.5809L94.2825 70.1728L95.3149 69.5809L94.2825 68.989Z" fill="#969A9E"/>
<path d="M94.7518 67.8101L95.7842 68.402L95.9813 68.2901C95.9954 67.9732 96.0001 67.6563 95.986 67.3394L95.7795 67.2229L94.7471 67.8148L94.7518 67.8101Z" fill="#969A9E"/>
<path d="M93.25 73.1229L94.2825 73.7148L94.5359 73.5703C94.6532 73.3373 94.7611 73.1042 94.8691 72.8666L94.2825 72.531L93.25 73.1229Z" fill="#969A9E"/>
<path d="M95.3336 71.6876C95.4228 71.4219 95.5025 71.1563 95.5729 70.886L94.7563 71.352L95.3336 71.6829V71.6876Z" fill="#969A9E"/>
<path d="M91.4899 48.8044C91.3585 48.4875 91.213 48.1753 91.0582 47.8677L90.251 48.3337L91.2834 48.9256L91.4946 48.8044H91.4899Z" fill="#969A9E"/>
<path d="M92.3115 51.8712L91.279 51.2793L90.2466 51.8712L91.279 52.4631L92.3115 51.8712Z" fill="#969A9E"/>
<path d="M91.748 50.1001L91.9827 50.2352C91.9592 50.156 91.9405 50.0814 91.917 50.0022L91.748 50.1001Z" fill="#969A9E"/>
<path d="M91.279 54.8213L90.2466 55.4132L91.279 56.0051L92.1472 55.5064C92.1613 55.4505 92.1707 55.3945 92.1848 55.3386L91.279 54.8213Z" fill="#969A9E"/>
<path d="M92.3724 54.001C92.3912 53.7586 92.4006 53.5163 92.4006 53.2739L91.7529 53.6468L92.3724 54.001Z" fill="#969A9E"/>
<path d="M91.4336 58.4518L91.2834 58.3633L90.251 58.9552L91.2834 59.547L92.1329 59.0577C91.9076 58.8433 91.673 58.6476 91.4336 58.4472V58.4518Z" fill="#969A9E"/>
<path d="M91.279 61.9053L90.2466 62.4972L91.279 63.089L92.3115 62.4972L91.279 61.9053Z" fill="#969A9E"/>
<path d="M93.4612 60.5257L92.7854 60.1389L91.7529 60.7308L92.7854 61.3227L93.6771 60.81C93.6067 60.7168 93.5363 60.6189 93.4612 60.5257Z" fill="#969A9E"/>
<path d="M91.279 65.4473L90.2466 66.0391L91.279 66.631L92.3115 66.0391L91.279 65.4473Z" fill="#969A9E"/>
<path d="M92.7805 63.6763L91.748 64.2681L92.7805 64.86L93.813 64.2681L92.7805 63.6763Z" fill="#969A9E"/>
<path d="M91.279 68.989L90.2466 69.5809L91.279 70.1728L92.3115 69.5809L91.279 68.989Z" fill="#969A9E"/>
<path d="M92.7805 67.2183L91.748 67.8101L92.7805 68.402L93.813 67.8101L92.7805 67.2183Z" fill="#969A9E"/>
<path d="M91.279 72.531L90.2466 73.1229L91.279 73.7148L92.3115 73.1229L91.279 72.531Z" fill="#969A9E"/>
<path d="M92.7805 70.76L91.748 71.3519L92.7805 71.9438L93.813 71.3519L92.7805 70.76Z" fill="#969A9E"/>
<path d="M90.2466 76.6649L91.279 77.2568L92.3115 76.6649L91.279 76.073L90.2466 76.6649Z" fill="#969A9E"/>
<path d="M91.748 74.8939L92.7805 75.4858L93.752 74.9312C93.752 74.9312 93.7754 74.8985 93.7848 74.8799L92.7805 74.302L91.748 74.8939Z" fill="#969A9E"/>
<path d="M89.0823 44.9223L89.073 44.913C88.9087 44.7219 88.7351 44.5448 88.5614 44.3631L88.2751 44.2L87.2427 44.7918L88.2751 45.3837L89.0776 44.9223H89.0823Z" fill="#969A9E"/>
<path d="M89.3076 48.3292L88.2751 47.7373L87.2427 48.3292L88.2751 48.9211L89.3076 48.3292Z" fill="#969A9E"/>
<path d="M90.4388 46.7726C90.2933 46.5396 90.1384 46.3112 89.9789 46.0828L89.7771 45.9663L88.7446 46.5582L89.7771 47.1501L90.4388 46.7726Z" fill="#969A9E"/>
<path d="M89.3076 51.8712L88.2751 51.2793L87.2427 51.8712L88.2751 52.4631L89.3076 51.8712Z" fill="#969A9E"/>
<path d="M90.8095 50.1002L89.7771 49.5083L88.7446 50.1002L89.7771 50.6921L90.8095 50.1002Z" fill="#969A9E"/>
<path d="M88.2751 54.8213L87.2427 55.4132L88.2751 56.0051L89.3076 55.4132L88.2751 54.8213Z" fill="#969A9E"/>
<path d="M90.8095 53.6422L89.7771 53.0503L88.7446 53.6422L89.7771 54.2341L90.8095 53.6422Z" fill="#969A9E"/>
<path d="M88.2751 58.3633L87.2427 58.9552L88.2751 59.547L89.3076 58.9552L88.2751 58.3633Z" fill="#969A9E"/>
<path d="M89.7771 56.5923L88.7446 57.1842L89.7771 57.776L90.8095 57.1842L89.7771 56.5923Z" fill="#969A9E"/>
<path d="M88.2751 61.9053L87.2427 62.4972L88.2751 63.089L89.3076 62.4972L88.2751 61.9053Z" fill="#969A9E"/>
<path d="M89.7771 60.1343L88.7446 60.7262L89.7771 61.318L90.8095 60.7262L89.7771 60.1343Z" fill="#969A9E"/>
<path d="M88.2751 65.4473L87.2427 66.0391L88.2751 66.631L89.3076 66.0391L88.2751 65.4473Z" fill="#969A9E"/>
<path d="M89.7771 63.6763L88.7446 64.2681L89.7771 64.86L90.8095 64.2681L89.7771 63.6763Z" fill="#969A9E"/>
<path d="M88.2751 68.989L87.2427 69.5809L88.2751 70.1728L89.3076 69.5809L88.2751 68.989Z" fill="#969A9E"/>
<path d="M89.7771 67.2183L88.7446 67.8101L89.7771 68.402L90.8095 67.8101L89.7771 67.2183Z" fill="#969A9E"/>
<path d="M88.2751 72.531L87.2427 73.1229L88.2751 73.7148L89.3076 73.1229L88.2751 72.531Z" fill="#969A9E"/>
<path d="M89.7771 70.76L88.7446 71.3519L89.7771 71.9438L90.8095 71.3519L89.7771 70.76Z" fill="#969A9E"/>
<path d="M88.2751 76.073L87.2427 76.6649L88.2751 77.2568L89.3076 76.6649L88.2751 76.073Z" fill="#969A9E"/>
<path d="M89.7771 74.302L88.7446 74.8939L89.7771 75.4858L90.8095 74.8939L89.7771 74.302Z" fill="#969A9E"/>
<path d="M87.2427 80.2069L87.8199 80.5378C88.1484 80.3327 88.4676 80.123 88.7867 79.9086L88.2751 79.615L87.2427 80.2069Z" fill="#969A9E"/>
<path d="M88.7446 78.4359L89.7771 79.0278L90.542 78.5897C90.6124 78.5291 90.6828 78.4638 90.7532 78.4033L89.7771 77.844L88.7446 78.4359Z" fill="#969A9E"/>
<path d="M85.2719 41.837L85.4221 41.7531C85.0983 41.5387 84.7651 41.3337 84.4319 41.1379L84.2441 41.2451L85.2766 41.837H85.2719Z" fill="#969A9E"/>
<path d="M86.3042 44.7872L85.2717 44.1953L84.2393 44.7872L85.2717 45.3791L86.3042 44.7872Z" fill="#969A9E"/>
<path d="M87.4072 43.2493C87.1303 43.0117 86.8441 42.7786 86.5484 42.5549L85.7412 43.0163L86.7737 43.6082L87.4072 43.2447V43.2493Z" fill="#969A9E"/>
<path d="M86.3042 48.3292L85.2717 47.7373L84.2393 48.3292L85.2717 48.9211L86.3042 48.3292Z" fill="#969A9E"/>
<path d="M87.8061 46.5582L86.7737 45.9663L85.7412 46.5582L86.7737 47.1501L87.8061 46.5582Z" fill="#969A9E"/>
<path d="M85.2717 51.2793L84.2393 51.8712L85.2717 52.4631L86.3042 51.8712L85.2717 51.2793Z" fill="#969A9E"/>
<path d="M87.8061 50.1002L86.7737 49.5083L85.7412 50.1002L86.7737 50.6921L87.8061 50.1002Z" fill="#969A9E"/>
<path d="M85.2717 54.8213L84.2393 55.4132L85.2717 56.0051L86.3042 55.4132L85.2717 54.8213Z" fill="#969A9E"/>
<path d="M86.7737 53.0503L85.7412 53.6422L86.7737 54.2341L87.8061 53.6422L86.7737 53.0503Z" fill="#969A9E"/>
<path d="M85.2717 58.3633L84.2393 58.9552L85.2717 59.547L86.3042 58.9552L85.2717 58.3633Z" fill="#969A9E"/>
<path d="M86.7737 56.5923L85.7412 57.1842L86.7737 57.776L87.8061 57.1842L86.7737 56.5923Z" fill="#969A9E"/>
<path d="M85.2717 61.9053L84.2393 62.4972L85.2717 63.089L86.3042 62.4972L85.2717 61.9053Z" fill="#969A9E"/>
<path d="M86.7737 60.1343L85.7412 60.7262L86.7737 61.318L87.8061 60.7262L86.7737 60.1343Z" fill="#969A9E"/>
<path d="M85.2717 65.4473L84.2393 66.0391L85.2717 66.631L86.3042 66.0391L85.2717 65.4473Z" fill="#969A9E"/>
<path d="M86.7737 63.6763L85.7412 64.2681L86.7737 64.86L87.8061 64.2681L86.7737 63.6763Z" fill="#969A9E"/>
<path d="M85.2717 68.989L84.2393 69.5809L85.2717 70.1728L86.3042 69.5809L85.2717 68.989Z" fill="#969A9E"/>
<path d="M86.7737 67.2183L85.7412 67.8101L86.7737 68.402L87.8061 67.8101L86.7737 67.2183Z" fill="#969A9E"/>
<path d="M85.2717 72.531L84.2393 73.1229L85.2717 73.7148L86.3042 73.1229L85.2717 72.531Z" fill="#969A9E"/>
<path d="M86.7737 70.76L85.7412 71.3519L86.7737 71.9438L87.8061 71.3519L86.7737 70.76Z" fill="#969A9E"/>
<path d="M85.2717 76.073L84.2393 76.6649L85.2717 77.2568L86.3042 76.6649L85.2717 76.073Z" fill="#969A9E"/>
<path d="M86.7737 74.302L85.7412 74.8939L86.7737 75.4858L87.8061 74.8939L86.7737 74.302Z" fill="#969A9E"/>
<path d="M86.3042 80.2069L85.2717 79.615L84.2393 80.2069L85.2717 80.7988L86.3042 80.2069Z" fill="#969A9E"/>
<path d="M86.7737 77.844L85.7412 78.4359L86.7737 79.0278L87.8061 78.4359L86.7737 77.844Z" fill="#969A9E"/>
<path d="M83.3008 41.2452L82.2683 40.6533L81.2358 41.2452L82.2683 41.8371L83.3008 41.2452Z" fill="#969A9E"/>
<path d="M83.3008 44.7872L82.2683 44.1953L81.2358 44.7872L82.2683 45.3791L83.3008 44.7872Z" fill="#969A9E"/>
<path d="M84.8027 43.0162L83.7703 42.4243L82.7378 43.0162L83.7703 43.6081L84.8027 43.0162Z" fill="#969A9E"/>
<path d="M82.2683 47.7373L81.2358 48.3292L82.2683 48.9211L83.3008 48.3292L82.2683 47.7373Z" fill="#969A9E"/>
<path d="M84.8027 46.5582L83.7703 45.9663L82.7378 46.5582L83.7703 47.1501L84.8027 46.5582Z" fill="#969A9E"/>
<path d="M82.2683 51.2793L81.2358 51.8712L82.2683 52.4631L83.3008 51.8712L82.2683 51.2793Z" fill="#969A9E"/>
<path d="M83.7703 49.5083L82.7378 50.1002L83.7703 50.6921L84.8027 50.1002L83.7703 49.5083Z" fill="#969A9E"/>
<path d="M82.2683 54.8213L81.2358 55.4132L82.2683 56.0051L83.3008 55.4132L82.2683 54.8213Z" fill="#969A9E"/>
<path d="M83.7703 53.0503L82.7378 53.6422L83.7703 54.2341L84.8027 53.6422L83.7703 53.0503Z" fill="#969A9E"/>
<path d="M82.2683 58.3633L81.2358 58.9552L82.2683 59.547L83.3008 58.9552L82.2683 58.3633Z" fill="#969A9E"/>
<path d="M83.7703 56.5923L82.7378 57.1842L83.7703 57.776L84.8027 57.1842L83.7703 56.5923Z" fill="#969A9E"/>
<path d="M82.2683 61.9053L81.2358 62.4972L82.2683 63.089L83.3008 62.4972L82.2683 61.9053Z" fill="#969A9E"/>
<path d="M83.7703 60.1343L82.7378 60.7262L83.7703 61.318L84.8027 60.7262L83.7703 60.1343Z" fill="#969A9E"/>
<path d="M82.2683 65.4473L81.2358 66.0391L82.2683 66.631L83.3008 66.0391L82.2683 65.4473Z" fill="#969A9E"/>
<path d="M83.7703 63.6763L82.7378 64.2681L83.7703 64.86L84.8027 64.2681L83.7703 63.6763Z" fill="#969A9E"/>
<path d="M82.2683 68.989L81.2358 69.5809L82.2683 70.1728L83.3008 69.5809L82.2683 68.989Z" fill="#969A9E"/>
<path d="M83.7703 67.2183L82.7378 67.8101L83.7703 68.402L84.8027 67.8101L83.7703 67.2183Z" fill="#969A9E"/>
<path d="M83.3008 73.1229L82.2683 72.531L81.2358 73.1229L82.2683 73.7148L83.3008 73.1229Z" fill="#969A9E"/>
<path d="M83.7703 70.76L82.7378 71.3519L83.7703 71.9438L84.8027 71.3519L83.7703 70.76Z" fill="#969A9E"/>
<path d="M83.3008 76.6649L82.2683 76.073L81.2358 76.6649L82.2683 77.2568L83.3008 76.6649Z" fill="#969A9E"/>
<path d="M83.7703 74.302L82.7378 74.8939L83.7703 75.4858L84.8027 74.8939L83.7703 74.302Z" fill="#969A9E"/>
<path d="M83.3008 80.2069L82.2683 79.615L81.2358 80.2069L82.2683 80.7988L83.3008 80.2069Z" fill="#969A9E"/>
<path d="M84.8027 78.4359L83.7703 77.844L82.7378 78.4359L83.7703 79.0278L84.8027 78.4359Z" fill="#969A9E"/>
<path d="M81.5879 83.5485C81.8601 83.4459 82.1323 83.3434 82.4045 83.2362L82.2684 83.157L81.5879 83.5485Z" fill="#969A9E"/>
<path d="M84.8027 81.9779L83.7703 81.386L82.7378 81.9779L83.7703 82.5697L84.8027 81.9779Z" fill="#969A9E"/>
<path d="M78.2324 41.2452L79.2649 41.8371L80.2973 41.2452L79.2649 40.6533L78.2324 41.2452Z" fill="#969A9E"/>
<path d="M80.7664 40.0661L81.5078 39.642C81.1183 39.4696 80.7241 39.2972 80.3252 39.134L79.7339 39.4742L80.7664 40.0661Z" fill="#969A9E"/>
<path d="M79.2649 44.1953L78.2324 44.7872L79.2649 45.3791L80.2973 44.7872L79.2649 44.1953Z" fill="#969A9E"/>
<path d="M79.7339 43.0162L80.7664 43.6081L81.7988 43.0162L80.7664 42.4243L79.7339 43.0162Z" fill="#969A9E"/>
<path d="M79.2649 47.7373L78.2324 48.3292L79.2649 48.9211L80.2973 48.3292L79.2649 47.7373Z" fill="#969A9E"/>
<path d="M80.7664 45.9663L79.7339 46.5582L80.7664 47.1501L81.7988 46.5582L80.7664 45.9663Z" fill="#969A9E"/>
<path d="M79.2649 51.2793L78.2324 51.8712L79.2649 52.4631L80.2973 51.8712L79.2649 51.2793Z" fill="#969A9E"/>
<path d="M80.7664 49.5083L79.7339 50.1002L80.7664 50.6921L81.7988 50.1002L80.7664 49.5083Z" fill="#969A9E"/>
<path d="M79.2649 54.8213L78.2324 55.4132L79.2649 56.0051L80.2973 55.4132L79.2649 54.8213Z" fill="#969A9E"/>
<path d="M80.7664 53.0503L79.7339 53.6422L80.7664 54.2341L81.7988 53.6422L80.7664 53.0503Z" fill="#969A9E"/>
<path d="M79.2649 58.3633L78.2324 58.9552L79.2649 59.547L80.2973 58.9552L79.2649 58.3633Z" fill="#969A9E"/>
<path d="M80.7664 56.5923L79.7339 57.1842L80.7664 57.776L81.7988 57.1842L80.7664 56.5923Z" fill="#969A9E"/>
<path d="M79.2649 61.9053L78.2324 62.4972L79.2649 63.089L80.2973 62.4972L79.2649 61.9053Z" fill="#969A9E"/>
<path d="M80.7664 60.1343L79.7339 60.7262L80.7664 61.318L81.7988 60.7262L80.7664 60.1343Z" fill="#969A9E"/>
<path d="M79.2649 65.4473L78.2324 66.0391L79.2649 66.631L80.2973 66.0391L79.2649 65.4473Z" fill="#969A9E"/>
<path d="M80.7664 63.6763L79.7339 64.2681L80.7664 64.86L81.7988 64.2681L80.7664 63.6763Z" fill="#969A9E"/>
<path d="M80.2973 69.5809L79.2649 68.989L78.2324 69.5809L79.2649 70.1728L80.2973 69.5809Z" fill="#969A9E"/>
<path d="M80.7664 67.2183L79.7339 67.8101L80.7664 68.402L81.7988 67.8101L80.7664 67.2183Z" fill="#969A9E"/>
<path d="M80.2973 73.1229L79.2649 72.531L78.2324 73.1229L79.2649 73.7148L80.2973 73.1229Z" fill="#969A9E"/>
<path d="M81.7988 71.3519L80.7664 70.76L79.7339 71.3519L80.7664 71.9438L81.7988 71.3519Z" fill="#969A9E"/>
<path d="M80.2973 76.6649L79.2649 76.073L78.2324 76.6649L79.2649 77.2568L80.2973 76.6649Z" fill="#969A9E"/>
<path d="M81.7988 74.8939L80.7664 74.302L79.7339 74.8939L80.7664 75.4858L81.7988 74.8939Z" fill="#969A9E"/>
<path d="M80.2973 80.2069L79.2649 79.615L78.2324 80.2069L79.2649 80.7988L80.2973 80.2069Z" fill="#969A9E"/>
<path d="M81.7988 78.4359L80.7664 77.844L79.7339 78.4359L80.7664 79.0278L81.7988 78.4359Z" fill="#969A9E"/>
<path d="M79.2649 83.157L78.2324 83.7489L79.2414 84.3268C79.279 84.3174 79.3165 84.3035 79.354 84.2895L80.302 83.7489L79.2696 83.157H79.2649Z" fill="#969A9E"/>
<path d="M80.7664 81.386L79.7339 81.9779L80.7664 82.5697L81.7988 81.9779L80.7664 81.386Z" fill="#969A9E"/>
<path d="M76.2615 38.2952L76.9607 37.8944C76.5243 37.7452 76.0831 37.6008 75.6467 37.4609L75.229 37.6986L76.2615 38.2905V38.2952Z" fill="#969A9E"/>
<path d="M75.229 41.2452L76.2615 41.8371L77.2939 41.2452L76.2615 40.6533L75.229 41.2452Z" fill="#969A9E"/>
<path d="M77.7629 40.0661L78.7954 39.4742L77.7629 38.8823L76.7305 39.4742L77.7629 40.0661Z" fill="#969A9E"/>
<path d="M77.2939 44.7872L76.2615 44.1953L75.229 44.7872L76.2615 45.3791L77.2939 44.7872Z" fill="#969A9E"/>
<path d="M76.7305 43.0162L77.7629 43.6081L78.7954 43.0162L77.7629 42.4243L76.7305 43.0162Z" fill="#969A9E"/>
<path d="M77.2939 48.3291L76.9185 48.1147C76.9607 48.2313 77.0076 48.3431 77.0639 48.4596L77.2939 48.3291Z" fill="#969A9E"/>
<path d="M77.7629 45.9663L76.7305 46.5582L77.7629 47.1501L78.7954 46.5582L77.7629 45.9663Z" fill="#969A9E"/>
<path d="M77.7631 49.5083L77.5425 49.6341C77.641 49.979 77.6974 50.3239 77.7161 50.6641L77.7631 50.6921L78.7955 50.1002L77.7631 49.5083Z" fill="#969A9E"/>
<path d="M76.2615 54.8213L75.229 55.4132L76.2615 56.0051L77.2939 55.4132L76.2615 54.8213Z" fill="#969A9E"/>
<path d="M77.7629 53.0503L76.7305 53.6422L77.7629 54.2341L78.7954 53.6422L77.7629 53.0503Z" fill="#969A9E"/>
<path d="M76.2615 58.3633L75.229 58.9552L76.2615 59.547L77.2939 58.9552L76.2615 58.3633Z" fill="#969A9E"/>
<path d="M77.7629 56.5923L76.7305 57.1842L77.7629 57.776L78.7954 57.1842L77.7629 56.5923Z" fill="#969A9E"/>
<path d="M76.2615 61.9053L75.229 62.4972L76.2615 63.089L77.2939 62.4972L76.2615 61.9053Z" fill="#969A9E"/>
<path d="M77.7629 60.1343L76.7305 60.7262L77.7629 61.318L78.7954 60.7262L77.7629 60.1343Z" fill="#969A9E"/>
<path d="M77.2939 66.0391L76.2615 65.4473L75.229 66.0391L76.2615 66.631L77.2939 66.0391Z" fill="#969A9E"/>
<path d="M77.7629 63.6763L76.7305 64.2681L77.7629 64.86L78.7954 64.2681L77.7629 63.6763Z" fill="#969A9E"/>
<path d="M77.2939 69.5809L76.2615 68.989L75.229 69.5809L76.2615 70.1728L77.2939 69.5809Z" fill="#969A9E"/>
<path d="M78.7954 67.8101L77.7629 67.2183L76.7305 67.8101L77.7629 68.402L78.7954 67.8101Z" fill="#969A9E"/>
<path d="M77.2939 73.1229L76.2615 72.531L75.229 73.1229L76.2615 73.7148L77.2939 73.1229Z" fill="#969A9E"/>
<path d="M78.7954 71.3519L77.7629 70.76L76.7305 71.3519L77.7629 71.9438L78.7954 71.3519Z" fill="#969A9E"/>
<path d="M77.2939 76.6649L76.2615 76.073L75.229 76.6649L76.2615 77.2568L77.2939 76.6649Z" fill="#969A9E"/>
<path d="M78.7954 74.8939L77.7629 74.302L76.7305 74.8939L77.7629 75.4858L78.7954 74.8939Z" fill="#969A9E"/>
<path d="M76.2615 79.615L75.229 80.2069L76.2615 80.7988L77.2939 80.2069L76.2615 79.615Z" fill="#969A9E"/>
<path d="M78.7954 78.4359L77.7629 77.844L76.7305 78.4359L77.7629 79.0278L78.7954 78.4359Z" fill="#969A9E"/>
<path d="M77.2939 83.7489L76.2615 83.157L75.229 83.7489L76.2615 84.3408L77.2939 83.7489Z" fill="#969A9E"/>
<path d="M77.7629 81.386L76.7305 81.9779L77.7629 82.5697L78.7954 81.9779L77.7629 81.386Z" fill="#969A9E"/>
<path d="M74.29 37.7032L73.2576 37.1113L72.2251 37.7032L73.2576 38.2951L74.29 37.7032Z" fill="#969A9E"/>
<path d="M72.2251 41.2452L73.2576 41.8371L74.29 41.2452L73.2576 40.6533L72.2251 41.2452Z" fill="#969A9E"/>
<path d="M73.7271 39.4742L74.7595 40.0661L75.792 39.4742L74.7595 38.8823L73.7271 39.4742Z" fill="#969A9E"/>
<path d="M72.2251 44.7872L73.2576 45.3791L74.29 44.7872L73.2576 44.1953L72.2251 44.7872Z" fill="#969A9E"/>
<path d="M75.792 43.0162L74.7595 42.4243L73.7271 43.0162L74.7595 43.6081L75.792 43.0162Z" fill="#969A9E"/>
<path d="M75.7918 46.5582L74.7593 45.9663L74.4824 46.1248C74.886 46.2879 75.2849 46.451 75.6838 46.6188L75.7871 46.5582H75.7918Z" fill="#969A9E"/>
<path d="M73.2576 54.8213L72.2251 55.4132L73.2576 56.0051L74.29 55.4132L73.2576 54.8213Z" fill="#969A9E"/>
<path d="M74.7595 54.2339L75.792 53.642L75.3508 53.3904C74.7924 53.4323 74.2527 53.5162 73.7317 53.6374H73.7271L74.7595 54.2339Z" fill="#969A9E"/>
<path d="M73.2576 58.3633L72.2251 58.9552L73.2576 59.547L74.29 58.9552L73.2576 58.3633Z" fill="#969A9E"/>
<path d="M74.7595 56.5923L73.7271 57.1842L74.7595 57.776L75.792 57.1842L74.7595 56.5923Z" fill="#969A9E"/>
<path d="M72.7041 62.2268C73.2109 62.3713 73.7178 62.4645 74.234 62.5344L74.295 62.5018L73.2626 61.9099L72.7041 62.2315V62.2268Z" fill="#969A9E"/>
<path d="M74.7595 60.1343L73.7271 60.7262L74.7595 61.318L75.792 60.7262L74.7595 60.1343Z" fill="#969A9E"/>
<path d="M74.29 66.0391L73.2576 65.4473L72.2251 66.0391L73.2576 66.631L74.29 66.0391Z" fill="#969A9E"/>
<path d="M75.792 64.2681L74.7595 63.6763L73.7271 64.2681L74.7595 64.86L75.792 64.2681Z" fill="#969A9E"/>
<path d="M74.29 69.5809L73.2576 68.989L72.2251 69.5809L73.2576 70.1728L74.29 69.5809Z" fill="#969A9E"/>
<path d="M75.792 67.8101L74.7595 67.2183L73.7271 67.8101L74.7595 68.402L75.792 67.8101Z" fill="#969A9E"/>
<path d="M74.29 73.1229L73.2576 72.531L72.2251 73.1229L73.2576 73.7148L74.29 73.1229Z" fill="#969A9E"/>
<path d="M75.792 71.3519L74.7595 70.76L73.7271 71.3519L74.7595 71.9438L75.792 71.3519Z" fill="#969A9E"/>
<path d="M74.29 76.6649L73.2576 76.073L72.2251 76.6649L73.2576 77.2568L74.29 76.6649Z" fill="#969A9E"/>
<path d="M75.792 74.8939L74.7595 74.302L73.7271 74.8939L74.7595 75.4858L75.792 74.8939Z" fill="#969A9E"/>
<path d="M74.29 80.2069L73.2576 79.615L72.2251 80.2069L73.2576 80.7988L74.29 80.2069Z" fill="#969A9E"/>
<path d="M75.792 78.4359L74.7595 77.844L73.7271 78.4359L74.7595 79.0278L75.792 78.4359Z" fill="#969A9E"/>
<path d="M73.2576 83.157L72.2251 83.7489L73.2576 84.3408L74.29 83.7489L73.2576 83.157Z" fill="#969A9E"/>
<path d="M75.792 81.9779L74.7595 81.386L73.7271 81.9779L74.7595 82.5697L75.792 81.9779Z" fill="#969A9E"/>
<path d="M73.7271 85.5199L73.7693 85.5432C74.2949 85.4639 74.8252 85.3707 75.3555 85.2682L74.7595 84.928L73.7271 85.5199Z" fill="#969A9E"/>
<path d="M69.2217 37.7032L70.2541 38.2951L71.2866 37.7032L70.2541 37.1113L69.2217 37.7032Z" fill="#969A9E"/>
<path d="M72.0655 36.3518C71.615 36.212 71.1692 36.0722 70.7327 35.9324H70.728L71.7605 36.5289L72.0702 36.3518H72.0655Z" fill="#969A9E"/>
<path d="M69.2217 41.2452L70.2541 41.8371L71.2866 41.2452L70.2541 40.6533L69.2217 41.2452Z" fill="#969A9E"/>
<path d="M70.7236 39.4742L71.7561 40.0661L72.7886 39.4742L71.7561 38.8823L70.7236 39.4742Z" fill="#969A9E"/>
<path d="M71.2866 44.7872L70.2542 44.1953L69.8506 44.4283C70.2823 44.5728 70.7094 44.7219 71.1365 44.8757L71.2866 44.7872Z" fill="#969A9E"/>
<path d="M70.7236 43.0162L71.7561 43.6081L72.7886 43.0162L71.7561 42.4243L70.7236 43.0162Z" fill="#969A9E"/>
<path d="M70.2544 56.005L71.2869 55.4132L70.8129 55.1382C70.5688 55.3852 70.3529 55.6555 70.1699 55.9538L70.2591 56.005H70.2544Z" fill="#969A9E"/>
<path d="M69.4233 58.8433C69.428 58.9272 69.4421 59.0064 69.4562 59.0903L70.2587 59.5517L71.2912 58.9598L70.2587 58.3679L69.4233 58.8479V58.8433Z" fill="#969A9E"/>
<path d="M70.7236 57.1842L71.7561 57.776L72.7886 57.1842L71.7561 56.5923L70.7236 57.1842Z" fill="#969A9E"/>
<path d="M71.7561 60.1343L70.7236 60.7262L71.7561 61.318L72.7886 60.7262L71.7561 60.1343Z" fill="#969A9E"/>
<path d="M71.2867 66.0391L70.2543 65.4473L70.1557 65.5032C69.9211 65.7083 69.7099 65.9459 69.5269 66.2116L70.259 66.631L71.2914 66.0391H71.2867Z" fill="#969A9E"/>
<path d="M71.7561 64.8599L72.7885 64.268L72.6337 64.1794C72.2535 64.3612 71.8687 64.5243 71.4839 64.7061L71.7514 64.8599H71.7561Z" fill="#969A9E"/>
<path d="M70.2541 68.989L69.2217 69.5809L70.2541 70.1728L71.2866 69.5809L70.2541 68.989Z" fill="#969A9E"/>
<path d="M72.7886 67.8101L71.7561 67.2183L70.7236 67.8101L71.7561 68.402L72.7886 67.8101Z" fill="#969A9E"/>
<path d="M71.2866 73.123L70.6718 72.7734C70.6624 72.862 70.653 72.9505 70.6483 73.0437C70.3292 73.1463 70.0242 73.2721 69.7285 73.4166L70.2494 73.7149L71.2819 73.123H71.2866Z" fill="#969A9E"/>
<path d="M72.7886 71.3519L71.7561 70.76L70.7236 71.3519L71.7561 71.9438L72.7886 71.3519Z" fill="#969A9E"/>
<path d="M71.2866 76.6649L70.2541 76.073L69.2217 76.6649L70.2541 77.2568L71.2866 76.6649Z" fill="#969A9E"/>
<path d="M72.7886 74.8939L71.7561 74.302L70.7236 74.8939L71.7561 75.4858L72.7886 74.8939Z" fill="#969A9E"/>
<path d="M71.2866 80.2069L70.2541 79.615L69.2217 80.2069L70.2541 80.7988L71.2866 80.2069Z" fill="#969A9E"/>
<path d="M72.7886 78.4359L71.7561 77.844L70.7236 78.4359L71.7561 79.0278L72.7886 78.4359Z" fill="#969A9E"/>
<path d="M70.2541 83.157L69.2217 83.7489L70.2541 84.3408L71.2866 83.7489L70.2541 83.157Z" fill="#969A9E"/>
<path d="M72.7886 81.9779L71.7561 81.386L70.7236 81.9779L71.7561 82.5697L72.7886 81.9779Z" fill="#969A9E"/>
<path d="M71.7561 84.928L70.7236 85.5199L71.2915 85.8461C71.6669 85.8135 72.0471 85.7715 72.4272 85.7296L72.7886 85.5199L71.7561 84.928Z" fill="#969A9E"/>
<path d="M66.2183 37.7032L67.2507 38.2951L68.2832 37.7032L67.2507 37.1113L66.2183 37.7032Z" fill="#969A9E"/>
<path d="M67.7202 35.9322L68.7527 36.5241L69.7851 35.9322L68.7527 35.3403L67.7202 35.9322Z" fill="#969A9E"/>
<path d="M66.2183 41.2452L67.2507 41.8371L68.2832 41.2452L67.2507 40.6533L66.2183 41.2452Z" fill="#969A9E"/>
<path d="M67.7202 39.4742L68.7527 40.0661L69.7851 39.4742L68.7527 38.8823L67.7202 39.4742Z" fill="#969A9E"/>
<path d="M67.7202 43.0162L68.7527 43.6081L69.7851 43.0162L68.7527 42.4243L67.7202 43.0162Z" fill="#969A9E"/>
<path d="M69.7847 57.184L69.6299 57.0955C69.6064 57.1654 69.5876 57.2353 69.5688 57.3052L69.7847 57.1793V57.184Z" fill="#969A9E"/>
<path d="M68.9685 67.344C68.8652 67.6842 68.8042 68.0337 68.8042 68.3786L69.785 67.8147L68.9638 67.344H68.9685Z" fill="#969A9E"/>
<path d="M68.2834 76.6649L67.2509 76.073L66.9083 76.2687C66.8661 76.3619 66.8145 76.4505 66.7769 76.553C66.73 76.6742 66.6877 76.7907 66.6455 76.9119L67.2509 77.2568L68.2834 76.6649Z" fill="#969A9E"/>
<path d="M69.7851 74.8939L68.7526 74.302L67.8422 74.824C67.814 74.8519 67.7906 74.8892 67.7671 74.9172L68.7526 75.4858L69.7851 74.8939Z" fill="#969A9E"/>
<path d="M68.2832 80.2069L67.2507 79.615L66.2183 80.2069L67.2507 80.7988L68.2832 80.2069Z" fill="#969A9E"/>
<path d="M69.7851 78.4359L68.7527 77.844L67.7202 78.4359L68.7527 79.0278L69.7851 78.4359Z" fill="#969A9E"/>
<path d="M67.2507 83.157L66.2183 83.7489L67.2507 84.3408L68.2832 83.7489L67.2507 83.157Z" fill="#969A9E"/>
<path d="M69.7851 81.9779L68.7527 81.386L67.7202 81.9779L68.7527 82.5697L69.7851 81.9779Z" fill="#969A9E"/>
<path d="M68.7527 84.928L67.7202 85.5199L68.5509 85.9953C68.687 85.9953 68.8231 85.9953 68.9639 85.9859L69.7851 85.5152L68.7527 84.9233V84.928Z" fill="#969A9E"/>
<path d="M64.2473 34.7533L65.092 34.2686C64.6227 34.1428 64.1487 34.0216 63.6748 33.8958L63.2148 34.1567L64.2473 34.7486V34.7533Z" fill="#969A9E"/>
<path d="M63.2148 37.7032L64.2473 38.2951L65.2798 37.7032L64.2473 37.1113L63.2148 37.7032Z" fill="#969A9E"/>
<path d="M65.7488 36.5241L66.7812 35.9322L65.7488 35.3403L64.7163 35.9322L65.7488 36.5241Z" fill="#969A9E"/>
<path d="M63.2148 41.2452L64.2473 41.8371L65.2798 41.2452L64.2473 40.6533L63.2148 41.2452Z" fill="#969A9E"/>
<path d="M64.7163 39.4742L65.7488 40.0661L66.7812 39.4742L65.7488 38.8823L64.7163 39.4742Z" fill="#969A9E"/>
<path d="M66.7814 43.0162L65.749 42.4243L65.0356 42.8344L66.3497 43.2679L66.7814 43.0162Z" fill="#969A9E"/>
<path d="M64.36 77.1962C64.2708 77.1868 64.1863 77.1822 64.0972 77.1729L64.2473 77.2614L64.3553 77.2008L64.36 77.1962Z" fill="#969A9E"/>
<path d="M65.2798 80.2069L64.2473 79.615L63.2148 80.2069L64.2473 80.7988L65.2798 80.2069Z" fill="#969A9E"/>
<path d="M66.7812 78.4359L65.7488 77.844L64.7163 78.4359L65.7488 79.0278L66.7812 78.4359Z" fill="#969A9E"/>
<path d="M64.2473 83.157L63.2148 83.7489L64.2473 84.3408L65.2798 83.7489L64.2473 83.157Z" fill="#969A9E"/>
<path d="M66.7812 81.9779L65.7488 81.386L64.7163 81.9779L65.7488 82.5697L66.7812 81.9779Z" fill="#969A9E"/>
<path d="M65.7488 84.928L64.7163 85.5199L65.4203 85.9253C65.6174 85.9393 65.8192 85.9486 66.0163 85.9579L66.7765 85.5199L65.7441 84.928H65.7488Z" fill="#969A9E"/>
<path d="M62.2763 34.1612L61.2439 33.5693L60.2114 34.1612L61.2439 34.7531L62.2763 34.1612Z" fill="#969A9E"/>
<path d="M61.2439 38.2951L62.2763 37.7032L61.2439 37.1113L60.2114 37.7032L61.2439 38.2951Z" fill="#969A9E"/>
<path d="M61.7129 35.9322L62.7453 36.5241L63.7778 35.9322L62.7453 35.3403L61.7129 35.9322Z" fill="#969A9E"/>
<path d="M62.2763 41.2452L61.2439 40.6533L60.2114 41.2452L60.3616 41.3338C60.7417 41.4503 61.1266 41.5668 61.5067 41.6879L62.2763 41.2452Z" fill="#969A9E"/>
<path d="M62.7453 40.0661L63.7778 39.4742L62.7453 38.8823L61.7129 39.4742L62.7453 40.0661Z" fill="#969A9E"/>
<path d="M61.2436 77.2568L61.9428 76.856C61.4454 76.7628 60.9479 76.651 60.4505 76.5298L60.2158 76.6649L61.2483 77.2568H61.2436Z" fill="#969A9E"/>
<path d="M60.2114 80.2069L61.2439 80.7988L62.2763 80.2069L61.2439 79.615L60.2114 80.2069Z" fill="#969A9E"/>
<path d="M62.7453 79.0278L63.7778 78.4359L62.7453 77.844L61.7129 78.4359L62.7453 79.0278Z" fill="#969A9E"/>
<path d="M61.2439 83.157L60.2114 83.7489L61.2439 84.3408L62.2763 83.7489L61.2439 83.157Z" fill="#969A9E"/>
<path d="M63.7778 81.9779L62.7453 81.386L61.7129 81.9779L62.7453 82.5697L63.7778 81.9779Z" fill="#969A9E"/>
<path d="M62.7456 84.928L61.793 85.4733C62.3327 85.5711 62.8771 85.655 63.4214 85.7249L63.7781 85.5199L62.7456 84.928Z" fill="#969A9E"/>
<path d="M58.24 34.7531L59.2724 34.1612L58.24 33.5693L57.2075 34.1612L58.24 34.7531Z" fill="#969A9E"/>
<path d="M59.8263 32.9356C59.7325 32.9123 59.6386 32.889 59.54 32.8657L59.7418 32.9822L59.8216 32.9356H59.8263Z" fill="#969A9E"/>
<path d="M57.2075 37.7032L58.24 38.2951L59.2724 37.7032L58.24 37.1113L57.2075 37.7032Z" fill="#969A9E"/>
<path d="M58.7095 35.9322L59.7419 36.5241L60.7744 35.9322L59.7419 35.3403L58.7095 35.9322Z" fill="#969A9E"/>
<path d="M58.2399 40.6533L58.207 40.6766L58.3572 40.7232L58.2399 40.6533Z" fill="#969A9E"/>
<path d="M58.7095 39.4742L59.7419 40.0661L60.7744 39.4742L59.7419 38.8823L58.7095 39.4742Z" fill="#969A9E"/>
<path d="M59.2724 76.6649L58.24 76.073L57.2075 76.6649L58.24 77.2568L59.2724 76.6649Z" fill="#969A9E"/>
<path d="M57.2075 80.2069L58.24 80.7988L59.2724 80.2069L58.24 79.615L57.2075 80.2069Z" fill="#969A9E"/>
<path d="M59.7419 79.0278L60.7744 78.4359L59.7419 77.844L58.7095 78.4359L59.7419 79.0278Z" fill="#969A9E"/>
<path d="M58.24 84.3408L59.2724 83.7489L58.24 83.157L57.2075 83.7489L58.24 84.3408Z" fill="#969A9E"/>
<path d="M58.7095 81.9779L59.7419 82.5697L60.7744 81.9779L59.7419 81.386L58.7095 81.9779Z" fill="#969A9E"/>
<path d="M59.7418 84.928L59.6245 84.9979C59.7747 85.0352 59.9202 85.0818 60.0703 85.1191L59.7418 84.9326V84.928Z" fill="#969A9E"/>
<path d="M55.2366 34.7531L56.269 34.1612L55.2366 33.5693L54.2041 34.1612L55.2366 34.7531Z" fill="#969A9E"/>
<path d="M56.7385 32.9822L57.7194 32.4183C57.2219 32.3017 56.7197 32.1899 56.2129 32.0967L55.7061 32.3856L56.7385 32.9775V32.9822Z" fill="#969A9E"/>
<path d="M54.2041 37.7032L55.2366 38.2951L56.269 37.7032L55.2366 37.1113L54.2041 37.7032Z" fill="#969A9E"/>
<path d="M55.7061 35.9322L56.7385 36.5241L57.771 35.9322L56.7385 35.3403L55.7061 35.9322Z" fill="#969A9E"/>
<path d="M55.7061 39.4742L56.7385 40.0661L57.771 39.4742L56.7385 38.8823L55.7061 39.4742Z" fill="#969A9E"/>
<path d="M54.2041 76.6649L55.2366 77.2568L56.269 76.6649L55.2366 76.073L54.2041 76.6649Z" fill="#969A9E"/>
<path d="M56.7382 75.4857L57.0292 75.318C56.6537 75.1409 56.2783 74.9591 55.9076 74.7773L55.7104 74.8939L56.7429 75.4857H56.7382Z" fill="#969A9E"/>
<path d="M56.269 80.2069L55.2366 79.615L54.2041 80.2069L55.2366 80.7988L56.269 80.2069Z" fill="#969A9E"/>
<path d="M55.7061 78.4359L56.7385 79.0278L57.771 78.4359L56.7385 77.844L55.7061 78.4359Z" fill="#969A9E"/>
<path d="M56.2691 83.7489L55.2366 83.157L54.9175 83.3387C55.3211 83.5112 55.72 83.6743 56.1236 83.8328L56.2738 83.7489H56.2691Z" fill="#969A9E"/>
<path d="M57.771 81.9779L56.7385 81.386L55.7061 81.9779L56.7385 82.5697L57.771 81.9779Z" fill="#969A9E"/>
<path d="M51.2007 34.1612L52.2331 34.7531L53.2656 34.1612L52.2331 33.5693L51.2007 34.1612Z" fill="#969A9E"/>
<path d="M53.7346 32.9822L54.7671 32.3903L53.7956 31.8311C53.7534 31.8311 53.7158 31.8311 53.6736 31.8311L52.7021 32.3857L53.7346 32.9775V32.9822Z" fill="#969A9E"/>
<path d="M52.2331 37.1113L51.2007 37.7032L52.2331 38.2951L53.2656 37.7032L52.2331 37.1113Z" fill="#969A9E"/>
<path d="M52.7021 35.9322L53.7346 36.5241L54.7671 35.9322L53.7346 35.3403L52.7021 35.9322Z" fill="#969A9E"/>
<path d="M54.7673 39.4742L53.7348 38.8823L53.2515 39.1573C53.6973 39.3111 54.1431 39.4462 54.5843 39.5767L54.7673 39.4742Z" fill="#969A9E"/>
<path d="M52.7257 73.4353C52.5567 73.3841 52.3925 73.3235 52.2188 73.2815C51.9091 73.2023 51.6041 73.179 51.3037 73.1837L52.2329 73.715L52.7257 73.4307V73.4353Z" fill="#969A9E"/>
<path d="M51.2007 76.6649L52.2331 77.2568L53.2656 76.6649L52.2331 76.073L51.2007 76.6649Z" fill="#969A9E"/>
<path d="M53.7346 75.4858L54.7671 74.8939L53.7346 74.302L52.7021 74.8939L53.7346 75.4858Z" fill="#969A9E"/>
<path d="M52.2331 80.7988L53.2656 80.2069L52.2331 79.615L51.2007 80.2069L52.2331 80.7988Z" fill="#969A9E"/>
<path d="M52.7021 78.4359L53.7346 79.0278L54.7671 78.4359L53.7346 77.844L52.7021 78.4359Z" fill="#969A9E"/>
<path d="M53.7346 82.5697L54.7671 81.9779L53.7346 81.386L52.7021 81.9779L53.7346 82.5697Z" fill="#969A9E"/>
<path d="M49.2295 34.7531L50.2619 34.1612L49.2295 33.5693L48.962 33.7231C48.8446 33.9562 48.7743 34.2125 48.7461 34.4781L49.2295 34.7531Z" fill="#969A9E"/>
<path d="M50.7311 32.9822L51.7636 32.3903L51.3459 32.1526C50.9423 32.2784 50.5481 32.4462 50.168 32.6606L50.7311 32.9822Z" fill="#969A9E"/>
<path d="M49.6987 35.9322L50.7312 36.5241L51.7637 35.9322L50.7312 35.3403L49.6987 35.9322Z" fill="#969A9E"/>
<path d="M49.2297 63.0889L49.3142 63.0376C49.1453 62.7347 48.9435 62.4551 48.7088 62.1987L48.1973 62.4923L49.2297 63.0842V63.0889Z" fill="#969A9E"/>
<path d="M49.2297 66.631L49.7741 66.3188C49.8164 66.151 49.8492 65.9832 49.868 65.8108L49.2297 65.4473L48.1973 66.0391L49.2297 66.631Z" fill="#969A9E"/>
<path d="M49.774 64.2307L49.7036 64.2727L49.7975 64.3239C49.7928 64.2913 49.7834 64.2633 49.7787 64.2307H49.774Z" fill="#969A9E"/>
<path d="M49.2297 77.2568L50.2622 76.6649L49.2297 76.073L48.1973 76.6649L49.2297 77.2568Z" fill="#969A9E"/>
<path d="M49.6987 74.8939L50.7312 75.4858L51.7637 74.8939L50.7312 74.302L49.6987 74.8939Z" fill="#969A9E"/>
<path d="M50.0084 80.356L50.2618 80.2115L49.3232 79.6709C49.5391 79.9086 49.7691 80.1369 50.0084 80.356Z" fill="#969A9E"/>
<path d="M50.7312 79.0278L51.7637 78.4359L50.7312 77.844L49.6987 78.4359L50.7312 79.0278Z" fill="#969A9E"/>
<path d="M46.2258 63.089L47.2583 62.4972L46.2258 61.9053L45.1934 62.4972L46.2258 63.089Z" fill="#969A9E"/>
<path d="M44.7244 61.318L45.5128 60.8659C44.9684 60.7867 44.424 60.7168 43.8843 60.6143L43.6919 60.7261L44.7244 61.318Z" fill="#969A9E"/>
<path d="M47.2583 66.0391L46.2258 65.4473L45.1934 66.0391L46.2258 66.631L47.2583 66.0391Z" fill="#969A9E"/>
<path d="M47.7278 64.86L48.7602 64.2681L47.7278 63.6763L46.6953 64.2681L47.7278 64.86Z" fill="#969A9E"/>
<path d="M43.6919 64.2681L44.7244 64.86L45.7568 64.2681L44.7244 63.6763L43.6919 64.2681Z" fill="#969A9E"/>
<path d="M46.3902 69.0822L46.2306 68.989L45.8599 69.2034C46.0382 69.1708 46.2165 69.1288 46.3949 69.0822H46.3902Z" fill="#969A9E"/>
<path d="M47.7278 68.402L48.7602 67.8101L47.7278 67.2183L46.6953 67.8101L47.7278 68.402Z" fill="#969A9E"/>
<path d="M45.7568 67.8101L44.7244 67.2183L43.6919 67.8101L44.7244 68.402L45.7568 67.8101Z" fill="#969A9E"/>
<path d="M48.7604 74.8939L48.4647 74.7261C48.3474 74.8892 48.2488 75.057 48.1597 75.2387L48.7557 74.8939H48.7604Z" fill="#969A9E"/>
<path d="M48.1924 78.1096C48.2299 78.1842 48.2628 78.2634 48.3097 78.338C48.366 78.4265 48.427 78.5104 48.4833 78.599L48.7649 78.4405L48.1924 78.1143V78.1096Z" fill="#969A9E"/>
<path d="M81.7146 62.0079C81.7146 67.018 79.9453 70.4807 77.1248 72.0979L65.1483 78.9675C67.9688 77.3503 69.738 73.8875 69.738 68.8775C69.738 58.4567 61.9617 45.4073 52.3458 41.0124C50.3607 21.8206 31.1944 2.8011 19.5229 8.65001L31.4854 1.79443L31.4995 1.78511C43.171 -4.0638 62.3372 14.9557 64.327 34.1475C73.943 38.5424 81.7193 51.5871 81.7193 62.0079H81.7146Z" fill="#DAE0E5"/>
<path d="M13.5629 18.1202C14.6799 10.6401 19.4386 8.73399 19.5183 8.6501C31.1898 2.80119 50.356 21.8206 52.3459 41.0125C61.9618 45.4074 69.7381 58.4521 69.7381 68.8776C69.7381 73.8876 67.9689 77.3457 65.1484 78.9676C62.6329 80.4123 59.2774 80.3843 55.5934 78.6786C54.7346 78.2825 56.6822 79.3963 36.1597 67.6286V47.8914L44.5414 52.6964L31.7577 28.9978L18.9739 38.0345L27.3556 42.8394V62.5719L14.1449 54.9987C6.72053 50.739 0.704102 40.388 0.704102 31.8826C0.704102 27.623 2.21055 24.6309 4.64153 23.2374C6.91294 21.9372 9.99155 22.0257 13.4127 23.7734C13.4174 23.7827 13.4268 23.7874 13.4362 23.7874C13.2532 21.6156 13.3236 19.7374 13.5676 18.1202H13.5629Z" fill="white"/>
<path d="M36.8967 47.4578L40.5572 45.3047L44.5462 52.6962L36.1646 47.8913L36.8967 47.4578Z" fill="#DAE0E5"/>
<path d="M36.8965 38.5144L40.557 45.3047L36.8965 47.4579V38.5144Z" fill="white"/>
<path d="M36.8963 38.5143V47.4578L36.1642 47.8912V57.4732L27.3555 62.5718V42.8393L36.4223 37.6428L36.8963 38.5143Z" fill="#373A3A"/>
<path d="M36.0003 36.8599L36.4227 37.6429L27.3558 42.8393L18.9741 38.0344L28.515 32.5676L36.0003 36.8599Z" fill="#DAE0E5"/>
<path d="M32.255 29.9158L36 36.8599L28.5146 32.5676L32.255 29.9158Z" fill="white"/>
<path d="M32.2553 29.9159L28.515 32.5677L18.9741 38.0345L31.7579 28.9978L32.2553 29.9159Z" fill="#373A3A"/>
<path d="M31.4573 1.80835L30.6924 2.24644C31.0772 1.99943 31.3541 1.86428 31.4573 1.80835Z" fill="white"/>
<path d="M4.6416 23.2373L13.5677 18.1201C13.3283 19.7373 13.2533 21.6108 13.4363 23.7873C13.4269 23.7873 13.4175 23.7826 13.4128 23.7733C9.99162 22.0256 6.91301 21.9371 4.6416 23.2373Z" fill="#DAE0E5"/>
<path d="M61.0559 80.7012C59.2491 80.7012 57.3015 80.2352 55.2976 79.3124L55.1381 79.2425C54.7845 79.0902 49.0356 75.8186 37.8913 69.4275L35.8123 68.2344C35.5964 68.1086 35.4603 67.8802 35.4603 67.6285V47.8914C35.4603 47.6397 35.5964 47.4113 35.8123 47.2855C36.0282 47.1597 36.3004 47.1597 36.5162 47.2855L42.7579 50.8648L31.5135 30.0277L20.2738 37.9738L27.7075 42.2335C27.9233 42.3594 28.0594 42.5877 28.0594 42.8394V62.5719C28.0594 62.8236 27.928 63.0519 27.7075 63.1778C27.4916 63.3036 27.2194 63.3036 27.0035 63.1778L13.7927 55.6045C6.18537 51.2423 0 40.5977 0 31.8826C0 27.5017 1.52523 24.2207 4.2894 22.6315C6.58897 21.3126 9.52679 21.3266 12.657 22.6455C12.5866 21.0003 12.657 19.4484 12.8682 18.0176C13.849 11.4463 17.5565 8.87841 19.1052 8.07681L19.1427 8.05816C19.1427 8.05816 19.185 8.03486 19.2038 8.02554C22.9816 6.13338 27.6136 6.56681 32.6023 9.27455C42.8612 14.8485 51.5761 28.2334 53.0074 40.5464C62.4967 45.1137 70.4466 57.9767 70.4466 68.8729C70.4466 73.9435 68.6914 77.7371 65.5049 79.564C64.1908 80.319 62.6844 80.6965 61.0559 80.6965V80.7012ZM36.8682 67.2231L38.5952 68.2158C54.9316 77.5833 55.2413 77.7651 55.7012 77.9608C55.7528 77.9841 55.8138 78.0074 55.8936 78.0447C59.2679 79.606 62.431 79.7178 64.7962 78.3616C67.5276 76.7957 69.034 73.4262 69.034 68.8775C69.034 58.508 61.0982 45.7848 52.0501 41.651C51.8248 41.5484 51.6699 41.3341 51.6418 41.0871C50.3981 29.0863 41.9226 15.9344 31.9218 10.5049C28.7493 8.78054 24.0845 7.16801 19.8702 9.26057C19.8326 9.28387 19.7951 9.30251 19.7528 9.32582C18.3966 10.0249 15.1443 12.2945 14.2573 18.2274C14.0086 19.9005 13.9664 21.7507 14.1306 23.7314C14.1494 23.9271 14.079 24.1182 13.9476 24.2627C13.727 24.5004 13.3422 24.5516 13.0559 24.3839C9.97732 22.8179 7.10989 22.6269 4.98397 23.8479C2.67032 25.1715 1.39851 28.0284 1.39851 31.8872C1.39851 40.1596 7.26946 50.2589 14.4873 54.3974L26.6422 61.3648V43.2449L18.6124 38.6403C18.4059 38.5238 18.2745 38.3047 18.2605 38.0671C18.2511 37.8294 18.359 37.601 18.5561 37.4659L31.3399 28.4292C31.5041 28.3127 31.7106 28.2707 31.9077 28.3173C32.1048 28.3639 32.2738 28.4897 32.3676 28.6668L45.1513 52.3654C45.3015 52.6404 45.2452 52.9806 45.0199 53.1997C44.7947 53.4187 44.4521 53.4607 44.1799 53.3022L36.8541 49.1031V67.2231H36.8682Z" fill="#373A3A"/>
<path d="M30.6923 2.94561C30.4623 2.94561 30.2371 2.83376 30.101 2.62869C29.8898 2.30712 29.979 1.87369 30.3075 1.65931C30.6641 1.43095 30.9363 1.28647 31.0724 1.21657L31.1241 1.1886C31.4667 1.00684 31.8937 1.13268 32.0767 1.47289C32.2598 1.81311 32.1331 2.23721 31.7905 2.41897L31.7248 2.4516C31.6027 2.51684 31.3775 2.63335 31.0771 2.82443C30.9598 2.899 30.8237 2.93629 30.6923 2.93629V2.94561Z" fill="#373A3A"/>
<path d="M65.148 79.6619C64.9039 79.6619 64.6693 79.536 64.5379 79.3123C64.3455 78.9768 64.4581 78.5527 64.796 78.3569L76.7725 71.4874C79.5039 69.9214 81.0103 66.5519 81.0103 62.0033C81.0103 51.6337 73.0744 38.9106 64.0263 34.7767C63.8011 34.6742 63.6462 34.4598 63.6181 34.2128C62.3744 22.2074 53.8989 9.06012 43.8981 3.63065C40.7209 1.90627 36.0561 0.293743 31.8371 2.39096C31.8277 2.39562 31.8183 2.40028 31.8089 2.40494C31.4663 2.5867 31.0393 2.46087 30.8562 2.12065C30.6779 1.79442 30.7905 1.38896 31.105 1.19322C31.1284 1.17924 31.1519 1.16525 31.1754 1.15127C34.9532 -0.740886 39.5852 -0.30746 44.5739 2.40028C54.8328 7.97423 63.5477 21.3592 64.979 33.6722C74.4683 38.2394 82.4182 51.1024 82.4182 61.9986C82.4182 67.0692 80.663 70.8675 77.4765 72.6898L65.5 79.5593C65.3873 79.6246 65.27 79.6525 65.148 79.6525V79.6619Z" fill="#373A3A"/>
<path d="M19.5231 9.34902C19.2791 9.34902 19.0444 9.22319 18.913 8.99949C18.7206 8.66393 18.8333 8.23983 19.1711 8.04409L31.1336 1.18851C31.4715 0.997428 31.9033 1.10928 32.0957 1.44483C32.2881 1.78039 32.1754 2.20449 31.8376 2.40023L19.8751 9.26047C19.7625 9.32572 19.6451 9.35368 19.5231 9.35368V9.34902Z" fill="#373A3A"/>
<path d="M4.64129 23.9362C4.39725 23.9362 4.1626 23.8104 4.0312 23.5867C3.83878 23.2511 3.95142 22.827 4.28931 22.6313L13.2154 17.5141C13.5533 17.3183 13.9804 17.4348 14.1775 17.7704C14.3699 18.1059 14.2572 18.5301 13.9193 18.7258L4.99326 23.843C4.88063 23.9083 4.76331 23.9362 4.64129 23.9362Z" fill="#373A3A"/>
<path d="M36.8963 48.1568C36.5068 48.1568 36.1924 47.8446 36.1924 47.4577V38.5143C36.1924 38.1274 36.5068 37.8152 36.8963 37.8152C37.2859 37.8152 37.6003 38.1274 37.6003 38.5143V47.4577C37.6003 47.8446 37.2859 48.1568 36.8963 48.1568Z" fill="#373A3A"/>
<path d="M36.0002 37.559C35.8829 37.559 35.7609 37.531 35.6482 37.4658L28.1582 33.1735C27.9517 33.057 27.8203 32.8379 27.8062 32.6002C27.7968 32.3626 27.9048 32.1342 28.1019 31.999L31.8469 29.3519C32.166 29.1282 32.6025 29.2027 32.8277 29.515C33.053 29.8273 32.9779 30.2653 32.6635 30.489L29.8101 32.507L36.3522 36.2587C36.6901 36.4498 36.8027 36.8786 36.6103 37.2141C36.4789 37.4378 36.2442 37.5637 36.0002 37.5637V37.559Z" fill="#373A3A"/>
<path d="M18.9738 38.7335C18.7298 38.7335 18.4951 38.6077 18.3637 38.384C18.1713 38.0484 18.2839 37.6243 18.6218 37.4286L28.158 31.9618C28.4959 31.7661 28.923 31.8826 29.1201 32.2181C29.3125 32.5537 29.1999 32.9778 28.862 33.1735L19.3258 38.6403C19.2132 38.7055 19.0958 38.7335 18.9738 38.7335Z" fill="#373A3A"/>
<path d="M27.3556 43.5384C27.1116 43.5384 26.877 43.4126 26.7456 43.1889C26.5531 42.8533 26.6658 42.4292 27.0037 42.2335L36.0705 37.0324C36.4084 36.8366 36.8355 36.9531 37.0326 37.2887C37.225 37.6243 37.1124 38.0484 36.7745 38.2441L27.7076 43.4452C27.595 43.5105 27.4777 43.5384 27.3556 43.5384Z" fill="#373A3A"/>
<path d="M27.3555 63.2708C27.1115 63.2708 26.8768 63.1449 26.7454 62.9259C26.5483 62.5903 26.661 62.1662 26.9988 61.9705L35.8076 56.8673C36.1455 56.6715 36.5726 56.788 36.7697 57.1189C36.9668 57.4545 36.8541 57.8786 36.5162 58.0743L27.7075 63.1776C27.5949 63.2428 27.4728 63.2708 27.3555 63.2708Z" fill="#373A3A"/>
<path d="M36.1641 48.5903C35.9247 48.5903 35.6901 48.4692 35.5587 48.2455C35.3616 47.9146 35.4695 47.4858 35.8074 47.2901L40.2 44.7035C40.5332 44.5078 40.965 44.6149 41.1668 44.9505C41.3639 45.2814 41.256 45.7102 40.9181 45.9059L36.5254 48.4925C36.4128 48.5577 36.2908 48.5903 36.1688 48.5903H36.1641Z" fill="#373A3A"/>
</g>
<defs>
<clipPath id="clip0_3153_8373">
<rect width="96" height="86" fill="white"/>
</clipPath>
</defs>
</svg>
