<svg width="113" height="94" viewBox="0 0 113 94" fill="none" xmlns="http://www.w3.org/2000/svg">
<g id="icons_design" clip-path="url(#clip0_2062_3492)">
<path id="Vector" d="M113 66.0358C113 65.795 112.98 65.5543 112.951 65.3135L112.348 65.6624L113 66.0407V66.0358Z" fill="#969A9E"/>
<path id="Vector_2" d="M108.718 60.68L109.797 60.0559L108.718 59.4319L107.638 60.0559L108.718 60.68Z" fill="#969A9E"/>
<path id="Vector_3" d="M110.287 62.5472L111.367 61.9231L110.287 61.2991L109.208 61.9231L110.287 62.5472Z" fill="#969A9E"/>
<path id="Vector_4" d="M109.208 65.6575L110.287 66.2815L111.367 65.6575L110.287 65.0334L109.208 65.6575Z" fill="#969A9E"/>
<path id="Vector_5" d="M107.638 67.5247L108.718 68.1487L109.797 67.5247L108.718 66.9006L107.638 67.5247Z" fill="#969A9E"/>
<path id="Vector_6" d="M111.857 64.4144L112.637 63.9623C112.617 63.9034 112.603 63.8395 112.583 63.7805C112.549 63.6921 112.509 63.6085 112.475 63.5201L111.857 63.1614L110.778 63.7854L111.857 64.4095V64.4144Z" fill="#969A9E"/>
<path id="Vector_7" d="M107.638 63.7903L108.718 64.4143L109.797 63.7903L108.718 63.1663L107.638 63.7903Z" fill="#969A9E"/>
<path id="Vector_8" d="M110.287 68.7678L109.208 69.3919L110.287 70.0159L111.367 69.3919L110.287 68.7678Z" fill="#969A9E"/>
<path id="Vector_9" d="M112.853 67.4755L111.857 66.9006L110.778 67.5247L111.857 68.1487L112.833 67.5836C112.843 67.5492 112.843 67.5099 112.853 67.4755Z" fill="#969A9E"/>
<path id="Vector_10" d="M110.846 71.2249L110.783 71.2642L110.802 71.2789C110.802 71.2789 110.832 71.2445 110.846 71.2298V71.2249Z" fill="#969A9E"/>
<path id="Vector_11" d="M107.148 58.8125L108.144 58.2376C107.844 58.0214 107.535 57.8101 107.221 57.6087L107.148 57.5645L106.069 58.1885L107.148 58.8125Z" fill="#969A9E"/>
<path id="Vector_12" d="M106.069 61.9231L107.148 62.5472L108.227 61.9231L107.148 61.2991L106.069 61.9231Z" fill="#969A9E"/>
<path id="Vector_13" d="M106.069 65.6575L107.148 66.2815L108.227 65.6575L107.148 65.0334L106.069 65.6575Z" fill="#969A9E"/>
<path id="Vector_14" d="M106.069 69.3919L107.148 70.0159L108.227 69.3919L107.148 68.7678L106.069 69.3919Z" fill="#969A9E"/>
<path id="Vector_15" d="M107.148 72.5024L106.069 73.1265L107.148 73.7505L108.227 73.1265L107.148 72.5024Z" fill="#969A9E"/>
<path id="Vector_16" d="M108.718 70.635L107.638 71.2591L108.718 71.8831L109.797 71.2591L108.718 70.635Z" fill="#969A9E"/>
<path id="Vector_17" d="M104.499 60.0559L105.578 60.68L106.657 60.0559L105.578 59.4319L104.499 60.0559Z" fill="#969A9E"/>
<path id="Vector_18" d="M102.929 58.1885L104.008 58.8125L105.088 58.1885L104.008 57.5645L102.929 58.1885Z" fill="#969A9E"/>
<path id="Vector_19" d="M105.843 56.793C105.475 56.5867 105.097 56.3901 104.715 56.1985L104.494 56.3262L105.573 56.9503L105.838 56.798L105.843 56.793Z" fill="#969A9E"/>
<path id="Vector_20" d="M102.929 61.9231L104.008 62.5472L105.088 61.9231L104.008 61.2991L102.929 61.9231Z" fill="#969A9E"/>
<path id="Vector_21" d="M102.929 65.6575L104.008 66.2815L105.088 65.6575L104.008 65.0334L102.929 65.6575Z" fill="#969A9E"/>
<path id="Vector_22" d="M104.499 63.7903L105.578 64.4143L106.657 63.7903L105.578 63.1663L104.499 63.7903Z" fill="#969A9E"/>
<path id="Vector_23" d="M102.929 69.3919L104.008 70.0159L105.088 69.3919L104.008 68.7678L102.929 69.3919Z" fill="#969A9E"/>
<path id="Vector_24" d="M104.499 67.5247L105.578 68.1487L106.657 67.5247L105.578 66.9006L104.499 67.5247Z" fill="#969A9E"/>
<path id="Vector_25" d="M105.578 74.3696L104.499 74.9937L105.549 75.603C105.887 75.3819 106.216 75.1558 106.545 74.9298L105.578 74.3696Z" fill="#969A9E"/>
<path id="Vector_26" d="M102.929 73.1265L104.008 73.7505L105.088 73.1265L104.008 72.5024L102.929 73.1265Z" fill="#969A9E"/>
<path id="Vector_27" d="M104.499 71.2591L105.578 71.8831L106.657 71.2591L105.578 70.635L104.499 71.2591Z" fill="#969A9E"/>
<path id="Vector_28" d="M102.929 76.8609L103.248 77.0476C103.596 76.8363 103.945 76.6201 104.293 76.4039L104.003 76.2368L102.924 76.8609H102.929Z" fill="#969A9E"/>
<path id="Vector_29" d="M100.344 54.1348L99.7898 54.4542L100.869 55.0782L101.546 54.6851C101.144 54.5033 100.741 54.3166 100.344 54.1299V54.1348Z" fill="#969A9E"/>
<path id="Vector_30" d="M102.439 59.4319L101.36 60.0559L102.439 60.68L103.518 60.0559L102.439 59.4319Z" fill="#969A9E"/>
<path id="Vector_31" d="M100.869 57.5645L99.7898 58.1885L100.869 58.8125L101.948 58.1885L100.869 57.5645Z" fill="#969A9E"/>
<path id="Vector_32" d="M102.439 55.6973L101.36 56.3213L102.439 56.9454L103.518 56.3213L102.439 55.6973Z" fill="#969A9E"/>
<path id="Vector_33" d="M100.869 61.2991L99.7898 61.9231L100.869 62.5472L101.948 61.9231L100.869 61.2991Z" fill="#969A9E"/>
<path id="Vector_34" d="M99.7898 65.6575L100.869 66.2815L101.948 65.6575L100.869 65.0334L99.7898 65.6575Z" fill="#969A9E"/>
<path id="Vector_35" d="M101.36 63.7903L102.439 64.4143L103.518 63.7903L102.439 63.1663L101.36 63.7903Z" fill="#969A9E"/>
<path id="Vector_36" d="M99.7898 69.3919L100.869 70.0159L101.948 69.3919L100.869 68.7678L99.7898 69.3919Z" fill="#969A9E"/>
<path id="Vector_37" d="M101.36 67.5247L102.439 68.1487L103.518 67.5247L102.439 66.9006L101.36 67.5247Z" fill="#969A9E"/>
<path id="Vector_38" d="M99.7898 73.1265L100.869 73.7505L101.948 73.1265L100.869 72.5024L99.7898 73.1265Z" fill="#969A9E"/>
<path id="Vector_39" d="M101.36 71.2591L102.439 71.8831L103.518 71.2591L102.439 70.635L101.36 71.2591Z" fill="#969A9E"/>
<path id="Vector_40" d="M99.7898 76.8609L100.869 77.4849L101.948 76.8609L100.869 76.2368L99.7898 76.8609Z" fill="#969A9E"/>
<path id="Vector_41" d="M101.36 74.9937L102.439 75.6177L103.518 74.9937L102.439 74.3696L101.36 74.9937Z" fill="#969A9E"/>
<path id="Vector_42" d="M96.6504 54.4541L97.7296 55.0782L98.8087 54.4541L97.7296 53.8301L96.6504 54.4541Z" fill="#969A9E"/>
<path id="Vector_43" d="M99.2994 59.4319L98.2202 60.0559L99.2994 60.68L100.379 60.0559L99.2994 59.4319Z" fill="#969A9E"/>
<path id="Vector_44" d="M96.6504 58.1885L97.7296 58.8125L98.8087 58.1885L97.7296 57.5645L96.6504 58.1885Z" fill="#969A9E"/>
<path id="Vector_45" d="M99.2994 55.6973L98.2202 56.3213L99.2994 56.9454L100.379 56.3213L99.2994 55.6973Z" fill="#969A9E"/>
<path id="Vector_46" d="M97.7296 61.2991L96.6504 61.9231L97.7296 62.5472L98.8087 61.9231L97.7296 61.2991Z" fill="#969A9E"/>
<path id="Vector_47" d="M97.7296 65.0334L96.6504 65.6575L97.7296 66.2815L98.8087 65.6575L97.7296 65.0334Z" fill="#969A9E"/>
<path id="Vector_48" d="M99.2994 63.1663L98.2202 63.7903L99.2994 64.4143L100.379 63.7903L99.2994 63.1663Z" fill="#969A9E"/>
<path id="Vector_49" d="M96.6504 69.3919L97.7296 70.0159L98.8087 69.3919L97.7296 68.7678L96.6504 69.3919Z" fill="#969A9E"/>
<path id="Vector_50" d="M98.2202 67.5247L99.2994 68.1487L100.379 67.5247L99.2994 66.9006L98.2202 67.5247Z" fill="#969A9E"/>
<path id="Vector_51" d="M96.6504 73.1265L97.7296 73.7505L98.8087 73.1265L97.7296 72.5024L96.6504 73.1265Z" fill="#969A9E"/>
<path id="Vector_52" d="M98.2202 71.2591L99.2994 71.8831L100.379 71.2591L99.2994 70.635L98.2202 71.2591Z" fill="#969A9E"/>
<path id="Vector_53" d="M98.2202 78.7281L99.2994 79.3521L100.379 78.7281L99.2994 78.104L98.2202 78.7281Z" fill="#969A9E"/>
<path id="Vector_54" d="M96.6504 76.8609L97.7296 77.4849L98.8087 76.8609L97.7296 76.2368L96.6504 76.8609Z" fill="#969A9E"/>
<path id="Vector_55" d="M98.2202 74.9937L99.2994 75.6177L100.379 74.9937L99.2994 74.3696L98.2202 74.9937Z" fill="#969A9E"/>
<path id="Vector_56" d="M96.6504 80.5952L97.0673 80.836C97.3862 80.6149 97.7247 80.3938 98.0729 80.1677L97.7296 79.9712L96.6504 80.5952Z" fill="#969A9E"/>
<path id="Vector_57" d="M96.16 51.9629L95.0808 52.5869L96.16 53.211L97.2392 52.5869L96.16 51.9629Z" fill="#969A9E"/>
<path id="Vector_58" d="M93.8642 50.5183L93.511 50.7247L94.5902 51.3487L94.9777 51.1227C94.9483 51.0981 94.9139 51.0785 94.8845 51.0539C94.5509 50.8033 94.2125 50.6264 93.8642 50.5183Z" fill="#969A9E"/>
<path id="Vector_59" d="M93.511 54.4541L94.5902 55.0782L95.6693 54.4541L94.5902 53.8301L93.511 54.4541Z" fill="#969A9E"/>
<path id="Vector_60" d="M95.0808 60.0559L96.16 60.68L97.2392 60.0559L96.16 59.4319L95.0808 60.0559Z" fill="#969A9E"/>
<path id="Vector_61" d="M93.511 58.1885L94.5902 58.8125L95.6693 58.1885L94.5902 57.5645L93.511 58.1885Z" fill="#969A9E"/>
<path id="Vector_62" d="M95.0808 56.3213L96.16 56.9454L97.2392 56.3213L96.16 55.6973L95.0808 56.3213Z" fill="#969A9E"/>
<path id="Vector_63" d="M94.5902 62.5472L95.6694 61.9231L94.8551 61.4514C94.8551 61.4514 94.8943 61.4858 94.909 61.5006C94.5853 61.7266 94.2615 61.9477 93.9329 62.1688L94.5853 62.5472H94.5902Z" fill="#969A9E"/>
<path id="Vector_64" d="M94.5902 65.0334L93.511 65.6575L94.5902 66.2815L95.6693 65.6575L94.5902 65.0334Z" fill="#969A9E"/>
<path id="Vector_65" d="M96.16 63.1663L95.0808 63.7903L96.16 64.4143L97.2392 63.7903L96.16 63.1663Z" fill="#969A9E"/>
<path id="Vector_66" d="M94.5902 68.7678L93.511 69.3919L94.5902 70.0159L95.6693 69.3919L94.5902 68.7678Z" fill="#969A9E"/>
<path id="Vector_67" d="M96.16 66.9006L95.0808 67.5247L96.16 68.1487L97.2392 67.5247L96.16 66.9006Z" fill="#969A9E"/>
<path id="Vector_68" d="M95.0808 74.9937L96.16 75.6177L97.2392 74.9937L96.16 74.3696L95.0808 74.9937Z" fill="#969A9E"/>
<path id="Vector_69" d="M93.511 73.1265L94.5902 73.7505L95.6693 73.1265L94.5902 72.5024L93.511 73.1265Z" fill="#969A9E"/>
<path id="Vector_70" d="M95.0808 71.2591L96.16 71.8831L97.2392 71.2591L96.16 70.635L95.0808 71.2591Z" fill="#969A9E"/>
<path id="Vector_71" d="M95.0808 78.7281L96.16 79.3521L97.2392 78.7281L96.16 78.104L95.0808 78.7281Z" fill="#969A9E"/>
<path id="Vector_72" d="M93.511 76.8609L94.5902 77.4849L95.6693 76.8609L94.5902 76.2368L93.511 76.8609Z" fill="#969A9E"/>
<path id="Vector_73" d="M93.511 80.5952L94.5902 81.2193L95.6693 80.5952L94.5902 79.9712L93.511 80.5952Z" fill="#969A9E"/>
<path id="Vector_74" d="M93.0203 51.9629L91.9412 52.5869L93.0203 53.211L94.0995 52.5869L93.0203 51.9629Z" fill="#969A9E"/>
<path id="Vector_75" d="M91.4507 51.3438L92.5299 50.7197L92.1227 50.4839C91.7009 50.5969 91.2986 50.7885 90.9209 51.0391L91.4507 51.3438Z" fill="#969A9E"/>
<path id="Vector_76" d="M90.3716 54.4541L91.4508 55.0782L92.5299 54.4541L91.4508 53.8301L90.3716 54.4541Z" fill="#969A9E"/>
<path id="Vector_77" d="M92.7358 59.599C93.0253 59.8446 93.3098 60.1002 93.5943 60.3508L94.0995 60.0559L93.0204 59.4319L92.7358 59.599Z" fill="#969A9E"/>
<path id="Vector_78" d="M90.7639 57.9625C91.0631 58.2032 91.3575 58.4489 91.6567 58.6946L92.5348 58.1885L91.4556 57.5645L90.7639 57.9625Z" fill="#969A9E"/>
<path id="Vector_79" d="M91.9412 56.3213L93.0203 56.9454L94.0995 56.3213L93.0203 55.6973L91.9412 56.3213Z" fill="#969A9E"/>
<path id="Vector_80" d="M90.3716 65.6575L91.4508 66.2815L92.5299 65.6575L91.4508 65.0334L90.3716 65.6575Z" fill="#969A9E"/>
<path id="Vector_81" d="M93.0203 64.4143L94.0995 63.7903L93.0203 63.1663L91.9412 63.7903L93.0203 64.4143Z" fill="#969A9E"/>
<path id="Vector_82" d="M91.4508 70.0159L92.5299 69.3919L91.4508 68.7678L90.3716 69.3919L91.4508 70.0159Z" fill="#969A9E"/>
<path id="Vector_83" d="M91.9412 67.5247L93.0203 68.1487L94.0995 67.5247L93.0203 66.9006L91.9412 67.5247Z" fill="#969A9E"/>
<path id="Vector_84" d="M91.4508 73.7505L92.5299 73.1265L91.4508 72.5024L90.3716 73.1265L91.4508 73.7505Z" fill="#969A9E"/>
<path id="Vector_85" d="M93.0203 70.635L91.9412 71.2591L93.0203 71.8831L94.0995 71.2591L93.0203 70.635Z" fill="#969A9E"/>
<path id="Vector_86" d="M91.9412 78.7281L93.0203 79.3521L94.0995 78.7281L93.0203 78.104L91.9412 78.7281Z" fill="#969A9E"/>
<path id="Vector_87" d="M90.3716 76.8609L91.4508 77.4849L92.5299 76.8609L91.4508 76.2368L90.3716 76.8609Z" fill="#969A9E"/>
<path id="Vector_88" d="M93.0203 75.6177L94.0995 74.9937L93.0203 74.3696L91.9412 74.9937L93.0203 75.6177Z" fill="#969A9E"/>
<path id="Vector_89" d="M90.3716 80.5952L91.4508 81.2193L92.5299 80.5952L91.4508 79.9712L90.3716 80.5952Z" fill="#969A9E"/>
<path id="Vector_90" d="M90.3716 84.3299L91.387 84.9195C91.7157 84.6984 92.0443 84.4724 92.3779 84.2414L91.4508 83.7058L90.3716 84.3299Z" fill="#969A9E"/>
<path id="Vector_91" d="M91.9412 82.4624L93.0203 83.0865L94.0995 82.4624L93.0203 81.8384L91.9412 82.4624Z" fill="#969A9E"/>
<path id="Vector_92" d="M89.2925 52.8719L89.886 53.2158L90.9652 52.5918L89.8958 51.9727C89.6653 52.2527 89.4593 52.5525 89.2925 52.8719Z" fill="#969A9E"/>
<path id="Vector_93" d="M88.7773 54.808L89.3905 54.4542L88.8411 54.1348C88.8019 54.3559 88.7773 54.5819 88.7773 54.808Z" fill="#969A9E"/>
<path id="Vector_94" d="M89.0715 56.169C89.1451 56.3311 89.2432 56.4884 89.3511 56.6358L89.8858 56.9454L90.965 56.3213L89.8858 55.6973L89.0715 56.169Z" fill="#969A9E"/>
<path id="Vector_95" d="M88.3112 66.2815L89.3904 65.6575L88.9833 65.4216L87.9482 66.0752L88.3112 66.2815Z" fill="#969A9E"/>
<path id="Vector_96" d="M88.3114 70.0159L89.3905 69.3919L88.3114 68.7678L87.2322 69.3919L88.3114 70.0159Z" fill="#969A9E"/>
<path id="Vector_97" d="M89.8809 68.1487L90.9601 67.5247L89.8809 66.9006L88.8018 67.5247L89.8809 68.1487Z" fill="#969A9E"/>
<path id="Vector_98" d="M87.2322 73.1265L88.3114 73.7505L89.3905 73.1265L88.3114 72.5024L87.2322 73.1265Z" fill="#969A9E"/>
<path id="Vector_99" d="M89.8809 71.8831L90.9601 71.2591L89.8809 70.635L88.8018 71.2591L89.8809 71.8831Z" fill="#969A9E"/>
<path id="Vector_100" d="M88.8018 78.7281L89.8809 79.3521L90.9601 78.7281L89.8809 78.104L88.8018 78.7281Z" fill="#969A9E"/>
<path id="Vector_101" d="M87.2322 76.8609L88.3114 77.4849L89.3905 76.8609L88.3114 76.2368L87.2322 76.8609Z" fill="#969A9E"/>
<path id="Vector_102" d="M88.8018 74.9937L89.8809 75.6177L90.9601 74.9937L89.8809 74.3696L88.8018 74.9937Z" fill="#969A9E"/>
<path id="Vector_103" d="M87.2322 80.5952L88.3114 81.2193L89.3905 80.5952L88.3114 79.9712L87.2322 80.5952Z" fill="#969A9E"/>
<path id="Vector_104" d="M89.8809 85.573L88.8018 86.1971L89.1353 86.3887C89.4738 86.1774 89.8123 85.9563 90.1605 85.7303L89.8809 85.5681V85.573Z" fill="#969A9E"/>
<path id="Vector_105" d="M87.2322 84.3299L88.3114 84.9539L89.3905 84.3299L88.3114 83.7058L87.2322 84.3299Z" fill="#969A9E"/>
<path id="Vector_106" d="M88.8018 82.4624L89.8809 83.0865L90.9601 82.4624L89.8809 81.8384L88.8018 82.4624Z" fill="#969A9E"/>
<path id="Vector_107" d="M84.0928 69.3919L85.172 70.0159L86.2511 69.3919L85.172 68.7678L84.0928 69.3919Z" fill="#969A9E"/>
<path id="Vector_108" d="M86.7415 68.1487L87.8207 67.5247L86.7415 66.9006L85.6624 67.5247L86.7415 68.1487Z" fill="#969A9E"/>
<path id="Vector_109" d="M84.0928 73.1265L85.172 73.7505L86.2511 73.1265L85.172 72.5024L84.0928 73.1265Z" fill="#969A9E"/>
<path id="Vector_110" d="M85.6624 71.2591L86.7415 71.8831L87.8207 71.2591L86.7415 70.635L85.6624 71.2591Z" fill="#969A9E"/>
<path id="Vector_111" d="M85.6624 78.7281L86.7415 79.3521L87.8207 78.7281L86.7415 78.104L85.6624 78.7281Z" fill="#969A9E"/>
<path id="Vector_112" d="M84.0928 76.8609L85.172 77.4849L86.2511 76.8609L85.172 76.2368L84.0928 76.8609Z" fill="#969A9E"/>
<path id="Vector_113" d="M85.6624 74.9937L86.7415 75.6177L87.8207 74.9937L86.7415 74.3696L85.6624 74.9937Z" fill="#969A9E"/>
<path id="Vector_114" d="M84.0928 80.5952L85.172 81.2193L86.2511 80.5952L85.172 79.9712L84.0928 80.5952Z" fill="#969A9E"/>
<path id="Vector_115" d="M85.6624 86.197L86.7415 86.8211L87.8207 86.197L86.7415 85.573L85.6624 86.197Z" fill="#969A9E"/>
<path id="Vector_116" d="M84.0928 84.3299L85.172 84.9539L86.2511 84.3299L85.172 83.7058L84.0928 84.3299Z" fill="#969A9E"/>
<path id="Vector_117" d="M85.6624 82.4624L86.7415 83.0865L87.8207 82.4624L86.7415 81.8384L85.6624 82.4624Z" fill="#969A9E"/>
<path id="Vector_118" d="M84.0928 88.0642L85.172 88.6883L86.2511 88.0642L85.172 87.4402L84.0928 88.0642Z" fill="#969A9E"/>
<path id="Vector_119" d="M81.8755 69.9275L82.0325 70.0208L83.1116 69.3968L82.8958 69.2739C82.5524 69.4901 82.214 69.7113 81.8755 69.9324V69.9275Z" fill="#969A9E"/>
<path id="Vector_120" d="M82.0323 73.7505L83.1115 73.1265L82.0323 72.5024L80.9531 73.1265L82.0323 73.7505Z" fill="#969A9E"/>
<path id="Vector_121" d="M82.5229 71.2591L83.6021 71.8831L84.6813 71.2591L83.6021 70.635L82.5229 71.2591Z" fill="#969A9E"/>
<path id="Vector_122" d="M82.5229 78.7281L83.6021 79.3521L84.6813 78.7281L83.6021 78.104L82.5229 78.7281Z" fill="#969A9E"/>
<path id="Vector_123" d="M80.9531 76.8609L82.0323 77.4849L83.1115 76.8609L82.0323 76.2368L80.9531 76.8609Z" fill="#969A9E"/>
<path id="Vector_124" d="M82.5229 74.9937L83.6021 75.6177L84.6813 74.9937L83.6021 74.3696L82.5229 74.9937Z" fill="#969A9E"/>
<path id="Vector_125" d="M80.9531 80.5952L82.0323 81.2193L83.1115 80.5952L82.0323 79.9712L80.9531 80.5952Z" fill="#969A9E"/>
<path id="Vector_126" d="M82.5229 86.197L83.6021 86.8211L84.6813 86.197L83.6021 85.573L82.5229 86.197Z" fill="#969A9E"/>
<path id="Vector_127" d="M80.9531 84.3299L82.0323 84.9539L83.1115 84.3299L82.0323 83.7058L80.9531 84.3299Z" fill="#969A9E"/>
<path id="Vector_128" d="M82.5229 82.4624L83.6021 83.0865L84.6813 82.4624L83.6021 81.8384L82.5229 82.4624Z" fill="#969A9E"/>
<path id="Vector_129" d="M80.9531 88.0642L82.0323 88.6883L83.1115 88.0642L82.0323 87.4402L80.9531 88.0642Z" fill="#969A9E"/>
<path id="Vector_130" d="M82.5229 89.9314L82.572 89.9609C82.9693 89.784 83.3716 89.6022 83.7738 89.4056L83.6021 89.3074L82.5229 89.9314Z" fill="#969A9E"/>
<path id="Vector_131" d="M77.8137 73.1265L78.8929 73.7505L79.9721 73.1265L78.8929 72.5024L77.8137 73.1265Z" fill="#969A9E"/>
<path id="Vector_132" d="M79.6289 71.4016L80.4628 71.8832L81.542 71.2591L80.6394 70.7383C80.3009 70.9594 79.9674 71.1805 79.6289 71.4016Z" fill="#969A9E"/>
<path id="Vector_133" d="M79.3835 78.7281L80.4627 79.3521L81.5419 78.7281L80.4627 78.104L79.3835 78.7281Z" fill="#969A9E"/>
<path id="Vector_134" d="M77.8137 76.8609L78.8929 77.4849L79.9721 76.8609L78.8929 76.2368L77.8137 76.8609Z" fill="#969A9E"/>
<path id="Vector_135" d="M79.3835 74.9937L80.4627 75.6177L81.5419 74.9937L80.4627 74.3696L79.3835 74.9937Z" fill="#969A9E"/>
<path id="Vector_136" d="M77.8137 80.5952L78.8929 81.2193L79.9721 80.5952L78.8929 79.9712L77.8137 80.5952Z" fill="#969A9E"/>
<path id="Vector_137" d="M79.3835 86.197L80.4627 86.8211L81.5419 86.197L80.4627 85.573L79.3835 86.197Z" fill="#969A9E"/>
<path id="Vector_138" d="M77.8137 84.3299L78.8929 84.9539L79.9721 84.3299L78.8929 83.7058L77.8137 84.3299Z" fill="#969A9E"/>
<path id="Vector_139" d="M79.3835 82.4624L80.4627 83.0865L81.5419 82.4624L80.4627 81.8384L79.3835 82.4624Z" fill="#969A9E"/>
<path id="Vector_140" d="M77.8137 88.0642L78.8929 88.6883L79.9721 88.0642L78.8929 87.4402L77.8137 88.0642Z" fill="#969A9E"/>
<path id="Vector_141" d="M78.3828 91.4694C78.6085 91.4055 78.8341 91.3367 79.0598 91.2728L78.893 91.1746L78.3828 91.4694Z" fill="#969A9E"/>
<path id="Vector_142" d="M79.3835 89.9314L80.4627 90.5555L81.5419 89.9314L80.4627 89.3074L79.3835 89.9314Z" fill="#969A9E"/>
<path id="Vector_143" d="M76.2441 78.7281L77.3233 79.3521L78.4025 78.7281L77.3233 78.104L76.2441 78.7281Z" fill="#969A9E"/>
<path id="Vector_144" d="M74.6743 76.8609L75.7535 77.4849L76.8327 76.8609L75.7535 76.2368L74.6743 76.8609Z" fill="#969A9E"/>
<path id="Vector_145" d="M76.2441 74.9937L77.3233 75.6177L78.4025 74.9937L77.3233 74.3696L76.2441 74.9937Z" fill="#969A9E"/>
<path id="Vector_146" d="M74.6743 80.5952L75.7535 81.2193L76.8327 80.5952L75.7535 79.9712L74.6743 80.5952Z" fill="#969A9E"/>
<path id="Vector_147" d="M76.2441 86.197L77.3233 86.8211L78.4025 86.197L77.3233 85.573L76.2441 86.197Z" fill="#969A9E"/>
<path id="Vector_148" d="M74.6743 84.3299L75.7535 84.9539L76.8327 84.3299L75.7535 83.7058L74.6743 84.3299Z" fill="#969A9E"/>
<path id="Vector_149" d="M76.2441 82.4624L77.3233 83.0865L78.4025 82.4624L77.3233 81.8384L76.2441 82.4624Z" fill="#969A9E"/>
<path id="Vector_150" d="M74.6743 88.0642L75.7535 88.6883L76.8327 88.0642L75.7535 87.4402L74.6743 88.0642Z" fill="#969A9E"/>
<path id="Vector_151" d="M74.6743 91.7986L75.2139 92.1082C75.7192 92.0394 76.2244 91.9558 76.7297 91.8576L76.8327 91.7986L75.7535 91.1746L74.6743 91.7986Z" fill="#969A9E"/>
<path id="Vector_152" d="M76.2441 89.9314L77.3233 90.5555L78.4025 89.9314L77.3233 89.3074L76.2441 89.9314Z" fill="#969A9E"/>
<path id="Vector_153" d="M73.9583 75.4898L74.1839 75.6225L75.2631 74.9984L74.8903 74.7822C74.5812 75.0181 74.2673 75.2539 73.9583 75.4947V75.4898Z" fill="#969A9E"/>
<path id="Vector_154" d="M71.9763 77.1165L72.6189 77.485L73.6981 76.8609L72.8642 76.3794C72.565 76.6251 72.2706 76.8659 71.9812 77.1165H71.9763Z" fill="#969A9E"/>
<path id="Vector_155" d="M73.1047 82.4624L74.1839 83.0865L75.2631 82.4624L74.1839 81.8384L73.1047 82.4624Z" fill="#969A9E"/>
<path id="Vector_156" d="M71.5349 80.5952L72.6141 81.2193L73.6933 80.5952L72.6141 79.9712L71.5349 80.5952Z" fill="#969A9E"/>
<path id="Vector_157" d="M74.1839 79.3521L75.2631 78.7281L74.1839 78.104L73.1047 78.7281L74.1839 79.3521Z" fill="#969A9E"/>
<path id="Vector_158" d="M73.1047 86.197L74.1839 86.8211L75.2631 86.197L74.1839 85.573L73.1047 86.197Z" fill="#969A9E"/>
<path id="Vector_159" d="M71.5349 84.3299L72.6141 84.9539L73.6933 84.3299L72.6141 83.7058L71.5349 84.3299Z" fill="#969A9E"/>
<path id="Vector_160" d="M73.1047 89.9314L74.1839 90.5555L75.2631 89.9314L74.1839 89.3074L73.1047 89.9314Z" fill="#969A9E"/>
<path id="Vector_161" d="M71.5349 88.0642L72.6141 88.6883L73.6933 88.0642L72.6141 87.4402L71.5349 88.0642Z" fill="#969A9E"/>
<path id="Vector_162" d="M71.5349 91.7986L72.4179 92.3096C72.5552 92.3096 72.6877 92.3047 72.825 92.2998L73.6933 91.7986L72.6141 91.1746L71.5349 91.7986Z" fill="#969A9E"/>
<path id="Vector_163" d="M70.4754 78.4381C70.3429 78.556 70.2203 78.6838 70.0928 78.8017L71.0493 79.357L72.1285 78.7329L71.0493 78.1089L70.4754 78.4381Z" fill="#969A9E"/>
<path id="Vector_164" d="M68.3955 80.5952L69.4747 81.2193L70.5539 80.5952L69.4747 79.9712L68.3955 80.5952Z" fill="#969A9E"/>
<path id="Vector_165" d="M69.9653 86.197L71.0445 86.8211L72.1237 86.197L71.0445 85.573L69.9653 86.197Z" fill="#969A9E"/>
<path id="Vector_166" d="M68.3955 84.3299L69.4747 84.9539L70.5539 84.3299L69.4747 83.7058L68.3955 84.3299Z" fill="#969A9E"/>
<path id="Vector_167" d="M69.9653 82.4624L71.0445 83.0865L72.1237 82.4624L71.0445 81.8384L69.9653 82.4624Z" fill="#969A9E"/>
<path id="Vector_168" d="M68.3955 88.0642L69.4747 88.6883L70.5539 88.0642L69.4747 87.4402L68.3955 88.0642Z" fill="#969A9E"/>
<path id="Vector_169" d="M68.3955 91.7986L68.8468 92.059C69.1902 92.1082 69.5385 92.1573 69.8769 92.1917L70.5539 91.7986L69.4747 91.1746L68.3955 91.7986Z" fill="#969A9E"/>
<path id="Vector_170" d="M69.9653 89.9314L71.0445 90.5555L72.1237 89.9314L71.0445 89.3074L69.9653 89.9314Z" fill="#969A9E"/>
<path id="Vector_171" d="M66.8257 86.197L67.9049 86.8211L68.984 86.197L67.9049 85.573L66.8257 86.197Z" fill="#969A9E"/>
<path id="Vector_172" d="M65.2561 84.3299L66.3353 84.9539L67.4145 84.3299L66.3353 83.7058L65.2561 84.3299Z" fill="#969A9E"/>
<path id="Vector_173" d="M66.8257 82.4624L67.9049 83.0865L68.984 82.4624L67.9049 81.8384L66.8257 82.4624Z" fill="#969A9E"/>
<path id="Vector_174" d="M65.2561 88.0642L66.3353 88.6883L67.4145 88.0642L66.3353 87.4402L65.2561 88.0642Z" fill="#969A9E"/>
<path id="Vector_175" d="M65.8496 91.4595C66.3745 91.5971 66.8895 91.7101 67.3997 91.8133L67.4193 91.8035L66.3401 91.1794L65.8496 91.4644V91.4595Z" fill="#969A9E"/>
<path id="Vector_176" d="M66.8257 89.9314L67.9049 90.5555L68.984 89.9314L67.9049 89.3074L66.8257 89.9314Z" fill="#969A9E"/>
<path id="Vector_177" d="M63.1959 84.9539L64.2751 84.3299L63.1959 83.7058L62.1167 84.3299L63.1959 84.9539Z" fill="#969A9E"/>
<path id="Vector_178" d="M63.8923 82.3445L63.6863 82.4624L64.7655 83.0865L65.1873 82.8457C64.7556 82.6835 64.324 82.5214 63.8923 82.3445Z" fill="#969A9E"/>
<path id="Vector_179" d="M62.1167 88.0642L63.1959 88.6883L64.2751 88.0642L63.1959 87.4402L62.1167 88.0642Z" fill="#969A9E"/>
<path id="Vector_180" d="M64.7655 86.8211L65.8446 86.197L64.7655 85.573L63.6863 86.197L64.7655 86.8211Z" fill="#969A9E"/>
<path id="Vector_181" d="M63.6863 89.9314L64.7655 90.5555L65.8446 89.9314L64.7655 89.3074L63.6863 89.9314Z" fill="#969A9E"/>
<path id="Vector_182" d="M60.0565 81.2192L60.6157 80.8949C60.2233 80.7082 59.8308 80.5166 59.4433 80.325L58.9773 80.5952L60.0565 81.2192Z" fill="#969A9E"/>
<path id="Vector_183" d="M60.9442 85.971L60.5469 86.197L61.6261 86.8211L62.7052 86.197L61.6261 85.573L60.9442 85.971Z" fill="#969A9E"/>
<path id="Vector_184" d="M58.9773 84.3299L60.0565 84.9539L61.1357 84.3299L60.0565 83.7058L58.9773 84.3299Z" fill="#969A9E"/>
<path id="Vector_185" d="M61.6261 81.8384L60.5469 82.4624L61.6261 83.0865L62.7052 82.4624L61.6261 81.8384Z" fill="#969A9E"/>
<path id="Vector_186" d="M60.856 89.7545C61.2876 89.9314 61.7144 90.1034 62.1363 90.2606L62.7053 89.9314L61.6261 89.3074L60.856 89.7545Z" fill="#969A9E"/>
<path id="Vector_187" d="M58.9773 88.0642L60.0565 88.6883L61.1357 88.0642L60.0565 87.4402L58.9773 88.0642Z" fill="#969A9E"/>
<path id="Vector_188" d="M57.4075 82.4624L58.4867 83.0865L59.5658 82.4624L58.4867 81.8384L57.4075 82.4624Z" fill="#969A9E"/>
<path id="Vector_189" d="M56.9171 81.2193L57.9963 80.5952L56.9171 79.9712L55.8379 80.5952L56.9171 81.2193Z" fill="#969A9E"/>
<path id="Vector_190" d="M57.4075 86.197L58.4867 86.8211L59.5658 86.197L58.4867 85.573L57.4075 86.197Z" fill="#969A9E"/>
<path id="Vector_191" d="M55.8379 84.3299L56.9171 84.9539L57.9963 84.3299L56.9171 83.7058L55.8379 84.3299Z" fill="#969A9E"/>
<path id="Vector_192" d="M57.9961 88.0642L56.9169 87.4402L56.4607 87.7055C56.8482 87.907 57.2357 88.0986 57.6135 88.2854L57.9961 88.0642Z" fill="#969A9E"/>
<path id="Vector_193" d="M54.2681 78.7281L55.3472 79.3521L56.4019 78.7428C56.0291 78.5414 55.6612 78.3399 55.2933 78.1384L54.2681 78.733V78.7281Z" fill="#969A9E"/>
<path id="Vector_194" d="M53.7774 77.485L53.9491 77.3867C53.5861 77.1803 53.2182 76.974 52.8601 76.7676L52.6982 76.8609L53.7774 77.485Z" fill="#969A9E"/>
<path id="Vector_195" d="M54.2681 82.4624L55.3472 83.0865L56.4264 82.4624L55.3472 81.8384L54.2681 82.4624Z" fill="#969A9E"/>
<path id="Vector_196" d="M52.6982 80.5952L53.7774 81.2193L54.8566 80.5952L53.7774 79.9712L52.6982 80.5952Z" fill="#969A9E"/>
<path id="Vector_197" d="M54.2681 86.197L55.3472 86.8211L56.4264 86.197L55.3472 85.573L54.2681 86.197Z" fill="#969A9E"/>
<path id="Vector_198" d="M52.6982 84.3299L53.7774 84.9539L54.8566 84.3299L53.7774 83.7058L52.6982 84.3299Z" fill="#969A9E"/>
<path id="Vector_199" d="M51.1287 78.7281L52.2078 79.3521L53.287 78.7281L52.2078 78.104L51.1287 78.7281Z" fill="#969A9E"/>
<path id="Vector_200" d="M50.638 77.4849L51.7172 76.8609L50.638 76.2368L49.5588 76.8609L50.638 77.4849Z" fill="#969A9E"/>
<path id="Vector_201" d="M50.638 81.2193L51.7172 80.5952L50.638 79.9712L49.5588 80.5952L50.638 81.2193Z" fill="#969A9E"/>
<path id="Vector_202" d="M50.638 84.9539L51.7172 84.3299L50.638 83.7058L49.5588 84.3299L50.638 84.9539Z" fill="#969A9E"/>
<path id="Vector_203" d="M51.1287 82.4624L52.2078 83.0865L53.287 82.4624L52.2078 81.8384L51.1287 82.4624Z" fill="#969A9E"/>
<path id="Vector_204" d="M51.2022 86.2413L52.2912 85.6221L52.2078 85.573L51.1287 86.197L51.2022 86.2413Z" fill="#969A9E"/>
<path id="Vector_205" d="M47.4986 77.4849L48.5778 76.8609L47.4986 76.2368L46.4194 76.8609L47.4986 77.4849Z" fill="#969A9E"/>
<path id="Vector_206" d="M49.0685 75.6176L49.9465 75.1115C49.5884 74.9101 49.2352 74.7086 48.8772 74.5071C48.8673 74.5071 48.8624 74.4973 48.8526 74.4973L47.9844 74.9985L49.0636 75.6226L49.0685 75.6176Z" fill="#969A9E"/>
<path id="Vector_207" d="M47.4986 81.2193L48.5778 80.5952L47.4986 79.9712L46.4194 80.5952L47.4986 81.2193Z" fill="#969A9E"/>
<path id="Vector_208" d="M49.0684 79.3521L50.1476 78.7281L49.0684 78.104L47.9893 78.7281L49.0684 79.3521Z" fill="#969A9E"/>
<path id="Vector_209" d="M47.9893 86.197L49.0684 86.8211L50.1476 86.197L49.0684 85.573L47.9893 86.197Z" fill="#969A9E"/>
<path id="Vector_210" d="M46.4194 84.3299L47.4986 84.9539L48.5778 84.3299L47.4986 83.7058L46.4194 84.3299Z" fill="#969A9E"/>
<path id="Vector_211" d="M49.0684 83.0865L50.1476 82.4624L49.0684 81.8384L47.9893 82.4624L49.0684 83.0865Z" fill="#969A9E"/>
<path id="Vector_212" d="M46.4194 88.0642L47.1896 88.5114L48.2786 87.8922L47.4986 87.4402L46.4194 88.0642Z" fill="#969A9E"/>
<path id="Vector_213" d="M45.4384 76.8609L44.3592 76.2368L43.28 76.8609L44.3592 77.4849L45.4384 76.8609Z" fill="#969A9E"/>
<path id="Vector_214" d="M45.929 75.6177L47.0082 74.9937L45.929 74.3696L44.8499 74.9937L45.929 75.6177Z" fill="#969A9E"/>
<path id="Vector_215" d="M43.28 80.5952L44.3592 81.2193L45.4384 80.5952L44.3592 79.9712L43.28 80.5952Z" fill="#969A9E"/>
<path id="Vector_216" d="M45.929 79.3521L47.0082 78.7281L45.929 78.104L44.8499 78.7281L45.929 79.3521Z" fill="#969A9E"/>
<path id="Vector_217" d="M44.8499 86.197L45.929 86.8211L47.0082 86.197L45.929 85.573L44.8499 86.197Z" fill="#969A9E"/>
<path id="Vector_218" d="M43.28 84.3299L44.3592 84.9539L45.4384 84.3299L44.3592 83.7058L43.28 84.3299Z" fill="#969A9E"/>
<path id="Vector_219" d="M44.8499 82.4624L45.929 83.0865L47.0082 82.4624L45.929 81.8384L44.8499 82.4624Z" fill="#969A9E"/>
<path id="Vector_220" d="M43.28 88.0642L44.3592 88.6883L45.4384 88.0642L44.3592 87.4402L43.28 88.0642Z" fill="#969A9E"/>
<path id="Vector_221" d="M41.7102 78.7281L42.7894 79.3521L43.8686 78.7281L42.7894 78.104L41.7102 78.7281Z" fill="#969A9E"/>
<path id="Vector_222" d="M41.2198 77.4849L42.299 76.8609L41.2198 76.2368L40.1406 76.8609L41.2198 77.4849Z" fill="#969A9E"/>
<path id="Vector_223" d="M40.1406 80.5952L41.2198 81.2193L42.299 80.5952L41.2198 79.9712L40.1406 80.5952Z" fill="#969A9E"/>
<path id="Vector_224" d="M41.7102 86.197L42.7894 86.8211L43.8686 86.197L42.7894 85.573L41.7102 86.197Z" fill="#969A9E"/>
<path id="Vector_225" d="M40.1406 84.3299L41.2198 84.9539L42.299 84.3299L41.2198 83.7058L40.1406 84.3299Z" fill="#969A9E"/>
<path id="Vector_226" d="M41.7102 82.4624L42.7894 83.0865L43.8686 82.4624L42.7894 81.8384L41.7102 82.4624Z" fill="#969A9E"/>
<path id="Vector_227" d="M40.1406 88.0642L41.2198 88.6883L42.299 88.0642L41.2198 87.4402L40.1406 88.0642Z" fill="#969A9E"/>
<path id="Vector_228" d="M40.1406 91.7986L40.7489 92.1524L41.8379 91.5333L41.2198 91.1746L40.1406 91.7986Z" fill="#969A9E"/>
<path id="Vector_229" d="M41.7102 89.9314L42.7894 90.5555L43.8686 89.9314L42.7894 89.3074L41.7102 89.9314Z" fill="#969A9E"/>
<path id="Vector_230" d="M38.5708 78.7281L39.65 79.3521L40.7292 78.7281L39.65 78.104L38.5708 78.7281Z" fill="#969A9E"/>
<path id="Vector_231" d="M38.0804 77.4849L39.1596 76.8609L38.0804 76.2368L37.0012 76.8609L38.0804 77.4849Z" fill="#969A9E"/>
<path id="Vector_232" d="M40.7292 74.9935L40.1013 74.6299L39.5519 74.4285L38.5708 74.9935L39.65 75.6176L40.7292 74.9935Z" fill="#969A9E"/>
<path id="Vector_233" d="M37.0012 80.5952L38.0804 81.2193L39.1596 80.5952L38.0804 79.9712L37.0012 80.5952Z" fill="#969A9E"/>
<path id="Vector_234" d="M38.5708 86.197L39.65 86.8211L40.7292 86.197L39.65 85.573L38.5708 86.197Z" fill="#969A9E"/>
<path id="Vector_235" d="M37.0012 84.3299L38.0804 84.9539L39.1596 84.3299L38.0804 83.7058L37.0012 84.3299Z" fill="#969A9E"/>
<path id="Vector_236" d="M38.5708 82.4624L39.65 83.0865L40.7292 82.4624L39.65 81.8384L38.5708 82.4624Z" fill="#969A9E"/>
<path id="Vector_237" d="M37.0012 88.0642L38.0804 88.6883L39.1596 88.0642L38.0804 87.4402L37.0012 88.0642Z" fill="#969A9E"/>
<path id="Vector_238" d="M37.0012 91.7986L38.0804 92.4226L39.1596 91.7986L38.0804 91.1746L37.0012 91.7986Z" fill="#969A9E"/>
<path id="Vector_239" d="M38.5708 89.9314L39.65 90.5555L40.7292 89.9314L39.65 89.3074L38.5708 89.9314Z" fill="#969A9E"/>
<path id="Vector_240" d="M36.0153 73.1314L35.044 72.7776L34.4456 73.4655L34.941 73.7505L36.0153 73.1314Z" fill="#969A9E"/>
<path id="Vector_241" d="M35.4314 78.7281L36.5106 79.3521L37.5898 78.7281L36.5106 78.104L35.4314 78.7281Z" fill="#969A9E"/>
<path id="Vector_242" d="M33.8618 76.8609L34.941 77.4849L36.0202 76.8609L34.941 76.2368L33.8618 76.8609Z" fill="#969A9E"/>
<path id="Vector_243" d="M32.292 78.7281L33.3712 79.3521L34.4504 78.7281L33.3712 78.104L32.292 78.7281Z" fill="#969A9E"/>
<path id="Vector_244" d="M36.5106 75.6177L37.5898 74.9937L36.5106 74.3696L35.4314 74.9937L36.5106 75.6177Z" fill="#969A9E"/>
<path id="Vector_245" d="M34.4503 74.9937L33.5624 74.4827L32.8413 75.3131L33.3711 75.6177L34.4503 74.9937Z" fill="#969A9E"/>
<path id="Vector_246" d="M33.8618 80.5952L34.941 81.2193L36.0202 80.5952L34.941 79.9712L33.8618 80.5952Z" fill="#969A9E"/>
<path id="Vector_247" d="M35.4314 86.197L36.5106 86.8211L37.5898 86.197L36.5106 85.573L35.4314 86.197Z" fill="#969A9E"/>
<path id="Vector_248" d="M33.8618 84.3299L34.941 84.9539L36.0202 84.3299L34.941 83.7058L33.8618 84.3299Z" fill="#969A9E"/>
<path id="Vector_249" d="M32.292 86.197L33.3712 86.8211L34.4504 86.197L33.3712 85.573L32.292 86.197Z" fill="#969A9E"/>
<path id="Vector_250" d="M35.4314 82.4624L36.5106 83.0865L37.5898 82.4624L36.5106 81.8384L35.4314 82.4624Z" fill="#969A9E"/>
<path id="Vector_251" d="M32.292 82.4624L33.3712 83.0865L34.4504 82.4624L33.3712 81.8384L32.292 82.4624Z" fill="#969A9E"/>
<path id="Vector_252" d="M33.8618 88.0642L34.941 88.6883L36.0202 88.0642L34.941 87.4402L33.8618 88.0642Z" fill="#969A9E"/>
<path id="Vector_253" d="M35.4314 93.6658L35.8827 93.9262L37.0109 93.9999L37.5898 93.6658L36.5106 93.0417L35.4314 93.6658Z" fill="#969A9E"/>
<path id="Vector_254" d="M33.8618 91.7986L34.941 92.4226L36.0202 91.7986L34.941 91.1746L33.8618 91.7986Z" fill="#969A9E"/>
<path id="Vector_255" d="M32.292 93.6658L32.3361 93.6953L34.1953 93.8132L34.4504 93.6658L33.3712 93.0417L32.292 93.6658Z" fill="#969A9E"/>
<path id="Vector_256" d="M35.4314 89.9314L36.5106 90.5555L37.5898 89.9314L36.5106 89.3074L35.4314 89.9314Z" fill="#969A9E"/>
<path id="Vector_257" d="M32.292 89.9314L33.3712 90.5555L34.4504 89.9314L33.3712 89.3074L32.292 89.9314Z" fill="#969A9E"/>
<path id="Vector_258" d="M32.8806 76.8608L31.9584 76.3301L31.2373 77.1605L31.8014 77.4848L32.8806 76.8608Z" fill="#969A9E"/>
<path id="Vector_259" d="M30.7224 80.5952L31.8016 81.2193L32.8808 80.5952L31.8016 79.9712L30.7224 80.5952Z" fill="#969A9E"/>
<path id="Vector_260" d="M30.7224 84.3299L31.8016 84.9539L32.8808 84.3299L31.8016 83.7058L30.7224 84.3299Z" fill="#969A9E"/>
<path id="Vector_261" d="M30.7224 88.0642L31.8016 88.6883L32.8808 88.0642L31.8016 87.4402L30.7224 88.0642Z" fill="#969A9E"/>
<path id="Vector_262" d="M30.7224 91.7986L31.8016 92.4226L32.8808 91.7986L31.8016 91.1746L30.7224 91.7986Z" fill="#969A9E"/>
<path id="Vector_263" d="M29.7413 80.5954L28.7504 80.0254L28.0293 80.8558L28.6621 81.2194L29.7413 80.5954Z" fill="#969A9E"/>
<path id="Vector_264" d="M31.3109 78.7281L30.3544 78.1777L29.6333 79.0082L30.2318 79.3521L31.3109 78.7281Z" fill="#969A9E"/>
<path id="Vector_265" d="M29.1526 86.197L30.2318 86.8211L31.3109 86.197L30.2318 85.573L29.1526 86.197Z" fill="#969A9E"/>
<path id="Vector_266" d="M27.5828 84.3299L28.6619 84.9539L29.7411 84.3299L28.6619 83.7058L27.5828 84.3299Z" fill="#969A9E"/>
<path id="Vector_267" d="M29.1526 82.4624L30.2318 83.0865L31.3109 82.4624L30.2318 81.8384L29.1526 82.4624Z" fill="#969A9E"/>
<path id="Vector_268" d="M27.5828 88.0642L28.6619 88.6883L29.7411 88.0642L28.6619 87.4402L27.5828 88.0642Z" fill="#969A9E"/>
<path id="Vector_269" d="M29.4419 93.5036L31.2324 93.6216L30.2317 93.0417L29.4419 93.5036Z" fill="#969A9E"/>
<path id="Vector_270" d="M27.5828 91.7986L28.6619 92.4226L29.7411 91.7986L28.6619 91.1746L27.5828 91.7986Z" fill="#969A9E"/>
<path id="Vector_271" d="M29.1526 89.9314L30.2318 90.5555L31.3109 89.9314L30.2318 89.3074L29.1526 89.9314Z" fill="#969A9E"/>
<path id="Vector_272" d="M26.0132 86.197L27.0924 86.8211L28.1715 86.197L27.0924 85.573L26.0132 86.197Z" fill="#969A9E"/>
<path id="Vector_273" d="M26.6017 84.3298L25.5421 83.7205L24.821 84.5509L25.5225 84.9538L26.6017 84.3298Z" fill="#969A9E"/>
<path id="Vector_274" d="M28.1716 82.4625L27.1464 81.8728L26.4253 82.7032L27.0924 83.0865L28.1716 82.4625Z" fill="#969A9E"/>
<path id="Vector_275" d="M24.4434 88.0642L25.5225 88.6883L26.6017 88.0642L25.5225 87.4402L24.4434 88.0642Z" fill="#969A9E"/>
<path id="Vector_276" d="M26.6213 93.3169L27.6858 93.3857L27.0923 93.0417L26.6213 93.3169Z" fill="#969A9E"/>
<path id="Vector_277" d="M24.4434 91.7986L25.5225 92.4226L26.6017 91.7986L25.5225 91.1746L24.4434 91.7986Z" fill="#969A9E"/>
<path id="Vector_278" d="M26.0132 89.9314L27.0924 90.5555L28.1715 89.9314L27.0924 89.3074L26.0132 89.9314Z" fill="#969A9E"/>
<path id="Vector_279" d="M23.4624 88.0642L22.3832 87.4402L22.236 87.5237L21.613 88.246L22.3832 88.6883L23.4624 88.0642Z" fill="#969A9E"/>
<path id="Vector_280" d="M25.032 86.197L23.9528 85.573L23.9087 85.5976L23.217 86.3985L23.9528 86.8211L25.032 86.197Z" fill="#969A9E"/>
<path id="Vector_281" d="M23.8057 93.1302L24.1441 93.1499L23.9528 93.0417L23.8057 93.1302Z" fill="#969A9E"/>
<path id="Vector_282" d="M21.304 91.7986L22.3831 92.4226L23.4623 91.7986L22.3831 91.1746L21.304 91.7986Z" fill="#969A9E"/>
<path id="Vector_283" d="M22.8738 89.9314L23.953 90.5555L25.0321 89.9314L23.953 89.3074L22.8738 89.9314Z" fill="#969A9E"/>
<path id="Vector_284" d="M20.323 91.7986L19.2438 91.1746L18.8907 91.3809L18.405 91.9411L19.2438 92.4226L20.323 91.7986Z" fill="#969A9E"/>
<path id="Vector_285" d="M21.8927 89.9314L20.8135 89.3074L20.5633 89.4548L20.009 90.0936L20.8135 90.5555L21.8927 89.9314Z" fill="#969A9E"/>
<g id="Group">
<g id="Group_2">
<g id="Group_3">
<g id="Group_4">
<path id="Vector_286" d="M59.0606 62.5864V86.2559C58.207 86.3836 57.3486 86.4426 56.5 86.4377C55.2932 86.423 54.1209 86.2608 53.0662 85.9512C52.3794 85.7547 51.7467 85.4943 51.1825 85.165L40.6851 79.1015V55.7317L50.7803 61.5741C51.4523 61.9623 52.2225 62.2571 53.0662 62.4635C54.1307 62.7338 55.303 62.8517 56.5 62.8321C57.3486 62.8222 58.2119 62.7387 59.0606 62.5864Z" fill="#DAE0E5"/>
<path id="Vector_287" d="M94.7029 42.9707L63.4459 61.0483C62.1509 61.7952 60.6303 62.3063 59.0605 62.5863V86.2559C60.7725 85.9954 62.4453 85.4549 63.8482 84.6442L94.7029 66.7974C96.7534 65.6132 97.808 64.0949 97.808 62.6551V38.8284C97.808 40.273 96.7534 41.7864 94.7029 42.9707Z" fill="#C2C7CC"/>
</g>
<path id="Vector_288" d="M56.505 62.8322V86.4378C55.2983 86.4231 54.1259 86.2609 53.0713 85.9513V62.4636C54.1358 62.7339 55.3081 62.8518 56.505 62.8322Z" fill="#C2C7CC"/>
<path id="Vector_289" d="M95.6153 35.6443C97.0869 36.4993 97.808 37.6393 97.808 38.8284C97.808 40.2731 96.7534 41.7865 94.7029 42.9707L63.4459 61.0484C59.6982 63.2154 54.0276 63.4512 50.7803 61.5742L40.685 55.7317L33.0229 60.1639L16.1533 50.4101L23.8155 45.9779L14.2059 40.4205C12.7343 39.5704 12.0132 38.4304 12.0132 37.2413C12.0132 35.8016 13.0678 34.2832 15.1183 33.099L46.3704 15.0213C50.1181 12.8544 55.7936 12.6185 59.036 14.4956L95.6153 35.6443Z" fill="white"/>
<path id="Vector_290" d="M40.6852 55.7317V79.1015L17.6055 92.4423V86.5016L22.7463 83.5238V77.991L27.8822 75.0231V69.0774L33.023 66.1095V60.1639L40.6852 55.7317Z" fill="#C2C7CC"/>
<path id="Vector_291" d="M33.0229 60.1639V66.1096L16.1533 56.3558V50.4102L33.0229 60.1639Z" fill="#DAE0E5"/>
<path id="Vector_292" d="M27.8822 69.0775V75.0232L11.0127 65.2694V59.3237L27.8822 69.0775Z" fill="#DAE0E5"/>
<path id="Vector_293" d="M27.8822 75.0231L22.7463 77.991L5.87671 68.2372L11.0126 65.2693L27.8822 75.0231Z" fill="white"/>
<path id="Vector_294" d="M22.7462 83.5238L17.6054 86.5015L0.73584 76.7477L5.87666 73.7749L22.7462 83.5238Z" fill="white"/>
<path id="Vector_295" d="M22.7463 77.9911V83.524L5.87671 73.7751V68.2373L22.7463 77.9911Z" fill="#DAE0E5"/>
<path id="Vector_296" d="M17.6054 86.5016V92.4423L0.73584 82.6885V76.7478L17.6054 86.5016Z" fill="#DAE0E5"/>
<path id="Vector_297" d="M12.0132 37.2412C12.0132 38.4304 12.7343 39.5704 14.2059 40.4204L23.8155 45.9779L16.1533 50.4101V56.3508L12.0181 58.7389V37.2363L12.0132 37.2412Z" fill="#DAE0E5"/>
<path id="Vector_298" d="M12.0134 58.7438L16.1535 56.3557L33.0231 66.1095L27.8822 69.0774L11.0127 59.3236L12.0134 58.7438Z" fill="white"/>
</g>
<g id="Group_5">
<path id="Vector_299" d="M17.6053 93.1793C17.3502 93.1793 17.1049 93.0467 16.9676 92.8108C16.7664 92.457 16.8842 92.005 17.2374 91.8035L39.9492 78.674V57.0092L33.7586 60.5914V66.1095C33.7586 66.3748 33.6164 66.6156 33.3907 66.7483L28.6178 69.5049V75.023C28.6178 75.2884 28.4756 75.5292 28.2499 75.6618L23.4819 78.4184V83.5287C23.4819 83.9366 23.1532 84.2658 22.7461 84.2658C22.3389 84.2658 22.0103 83.9366 22.0103 83.5287V77.9959C22.0103 77.7305 22.1525 77.4897 22.3782 77.3571L27.1462 74.6005V69.0823C27.1462 68.817 27.2885 68.5762 27.5141 68.4435L32.287 65.6869V60.1688C32.287 59.9034 32.4293 59.6627 32.6549 59.53L40.3171 55.0978C40.5428 54.9651 40.8273 54.9651 41.0529 55.0978C41.2786 55.2305 41.4208 55.4712 41.4208 55.7366V79.1064C41.4208 79.3717 41.2786 79.6125 41.0529 79.7452L17.9732 93.086C17.8554 93.1548 17.7328 93.1843 17.6053 93.1843V93.1793Z" fill="#373A3A"/>
<path id="Vector_300" d="M5.87667 74.512C5.46953 74.512 5.14087 74.1828 5.14087 73.775V68.2372C5.14087 67.9718 5.28312 67.7311 5.50877 67.5984L10.2768 64.8418V59.3237C10.2768 59.0583 10.419 58.8175 10.6447 58.6849L15.4176 55.9283V50.4101C15.4176 50.1448 15.5599 49.904 15.7855 49.7713L22.3489 45.9779L13.843 41.0543C12.1899 40.1011 11.2824 38.7449 11.2824 37.2364C11.2824 35.4723 12.548 33.7329 14.7554 32.4553L46.0075 14.3776C49.9563 12.0927 55.9654 11.8568 59.4089 13.8518L95.9882 35.0006C97.6413 35.9588 98.5488 37.315 98.5488 38.8235C98.5488 40.5875 97.2833 42.327 95.0758 43.6046L63.8189 61.6823C59.8063 64.0015 53.9198 64.2325 50.4174 62.208L40.3222 56.3656C39.969 56.1641 39.8512 55.712 40.0524 55.3583C40.2535 55.0045 40.7048 54.8865 41.058 55.088L51.1532 60.9304C54.1896 62.6847 59.5414 62.4537 63.083 60.4047L94.34 42.327C96.0765 41.3197 97.0772 40.0421 97.0772 38.8235C97.0772 37.8506 96.4444 36.971 95.2524 36.2782L58.6682 15.1343C55.6318 13.3752 50.28 13.6111 46.7384 15.6601L15.4863 33.7378C13.7449 34.7451 12.7491 36.0227 12.7491 37.2413C12.7491 38.1994 13.3966 39.1036 14.5739 39.7817L24.1835 45.3391C24.4091 45.4718 24.5514 45.7126 24.5514 45.9779C24.5514 46.2433 24.4091 46.484 24.1835 46.6167L16.8892 50.8376V56.3558C16.8892 56.6211 16.747 56.8619 16.5213 56.9945L11.7484 59.7511V65.2693C11.7484 65.5346 11.6061 65.7754 11.3805 65.9081L6.61248 68.6647V73.775C6.61248 74.1828 6.28382 74.512 5.87667 74.512Z" fill="#373A3A"/>
<path id="Vector_301" d="M33.0229 60.9011C32.9003 60.9011 32.7727 60.8716 32.655 60.8028L15.7855 51.049C15.4323 50.8476 15.3145 50.3955 15.5157 50.0417C15.7168 49.6879 16.1681 49.57 16.5213 49.7714L33.3908 59.5252C33.744 59.7267 33.8617 60.1788 33.6606 60.5326C33.5233 60.7684 33.278 60.9011 33.0229 60.9011Z" fill="#373A3A"/>
<path id="Vector_302" d="M27.882 69.8144C27.7594 69.8144 27.6319 69.7849 27.5141 69.7161L10.6446 59.9623C10.2914 59.7609 10.1737 59.3088 10.3748 58.955C10.5759 58.6012 11.0272 58.4833 11.3804 58.6848L28.2499 68.4386C28.6031 68.64 28.7209 69.0921 28.5197 69.4459C28.3824 69.6817 28.1371 69.8144 27.882 69.8144Z" fill="#373A3A"/>
<path id="Vector_303" d="M22.7463 78.728C22.6237 78.728 22.4961 78.6985 22.3784 78.6297L5.50885 68.8759C5.15566 68.6745 5.03793 68.2224 5.23905 67.8686C5.44017 67.5148 5.89146 67.3969 6.24465 67.5984L23.1142 77.3521C23.4674 77.5536 23.5851 78.0057 23.384 78.3595C23.2466 78.5953 23.0014 78.728 22.7463 78.728Z" fill="#373A3A"/>
<path id="Vector_304" d="M27.882 75.7602C27.7594 75.7602 27.6319 75.7307 27.5141 75.6619L10.6446 65.9082C10.2914 65.7067 10.1737 65.2546 10.3748 64.9008C10.5759 64.547 11.0272 64.4291 11.3804 64.6306L28.2499 74.3844C28.6031 74.5858 28.7209 75.0379 28.5197 75.3917C28.3824 75.6275 28.1371 75.7602 27.882 75.7602Z" fill="#373A3A"/>
<path id="Vector_305" d="M33.0229 66.8466C32.9003 66.8466 32.7727 66.8172 32.655 66.7484L15.7855 56.9946C15.4323 56.7931 15.3145 56.341 15.5157 55.9873C15.7168 55.6335 16.1681 55.5155 16.5213 55.717L33.3908 65.4708C33.744 65.6723 33.8617 66.1243 33.6606 66.4781C33.5233 66.714 33.278 66.8466 33.0229 66.8466Z" fill="#373A3A"/>
<path id="Vector_306" d="M17.6054 87.2387C17.4828 87.2387 17.3553 87.2092 17.2375 87.1405L0.367977 77.3867C0.0147908 77.1852 -0.102938 76.7331 0.098182 76.3793C0.299302 76.0256 0.750596 75.9076 1.10378 76.1091L17.9733 85.8629C18.3265 86.0643 18.4443 86.5164 18.2431 86.8702C18.1058 87.1061 17.8605 87.2387 17.6054 87.2387Z" fill="#373A3A"/>
<path id="Vector_307" d="M17.6054 93.1793C17.4778 93.1793 17.3503 93.1449 17.2375 93.081L0.367902 83.3272C0.142256 83.1946 0 82.9538 0 82.6885V76.7477C0 76.4824 0.142256 76.2416 0.367902 76.1089L5.50873 73.1361C5.73437 73.0035 6.01888 73.0035 6.24453 73.1361L23.1141 82.885C23.3397 83.0177 23.482 83.2584 23.482 83.5238C23.482 83.7891 23.3397 84.0299 23.1141 84.1626L18.3461 86.9241V92.4422C18.3461 92.7076 18.2038 92.9484 17.9782 93.081C17.8653 93.1449 17.7378 93.1793 17.6103 93.1793H17.6054ZM1.47161 82.2659L16.8696 91.1696V86.5015C16.8696 86.2362 17.0118 85.9954 17.2375 85.8627L21.2697 83.5287L5.87172 74.6299L1.4667 77.1752V82.2659H1.47161Z" fill="#373A3A"/>
<path id="Vector_308" d="M56.7011 87.1846C54.5133 87.1846 52.4187 86.7325 50.8147 85.8038L40.3172 79.7403C39.964 79.5388 39.8463 79.0867 40.0474 78.7329C40.2485 78.3792 40.6998 78.2612 41.053 78.4627L51.5505 84.5263C54.5918 86.2854 59.9436 86.0495 63.4803 84.0005L94.3351 66.1538C96.0716 65.1464 97.0723 63.8689 97.0723 62.6503V38.8235C97.0723 38.4156 97.4009 38.0864 97.8081 38.0864C98.2152 38.0864 98.5439 38.4156 98.5439 38.8235V62.6503C98.5439 64.4143 97.2783 66.1538 95.0709 67.4313L64.2161 85.2781C62.0382 86.5409 59.301 87.1846 56.7011 87.1846Z" fill="#373A3A"/>
<path id="Vector_309" d="M12.0131 59.4808C11.606 59.4808 11.2773 59.1516 11.2773 58.7438V37.2412C11.2773 36.8334 11.606 36.5042 12.0131 36.5042C12.4203 36.5042 12.749 36.8334 12.749 37.2412V58.7438C12.749 59.1516 12.4203 59.4808 12.0131 59.4808Z" fill="#373A3A"/>
</g>
</g>
<g id="Group_6">
<g id="Group_7">
<path id="Vector_310" d="M80.0749 34.5041C81.3651 36.7399 81.3651 39.1624 80.0749 39.9093L72.5011 44.2923C73.7912 43.5454 73.7912 41.1279 72.5011 38.8872L64.1767 24.4408C62.8964 22.2148 60.8165 21.0012 59.5264 21.7186L67.0757 17.3552C67.3308 17.2077 67.6251 17.134 67.9342 17.134C69.1752 17.134 70.7155 18.2691 71.7505 20.0626L80.0749 34.509V34.5041Z" fill="#5F646B"/>
<path id="Vector_311" d="M72.5012 38.8823C73.7913 41.123 73.7913 43.5405 72.5012 44.2874L64.1768 49.1078C63.5293 49.4812 62.6856 49.3633 61.837 48.8769C60.9932 48.3855 60.1446 47.5207 59.502 46.4052C58.2119 44.1646 58.2119 41.7421 59.502 40.9952L65.4915 37.531L59.502 27.1433C59.0458 26.3424 58.7466 25.5218 58.619 24.7553C58.3787 23.3843 58.6779 22.2099 59.502 21.7284H59.5216L59.5265 21.7186C60.8166 20.9962 62.8965 22.2099 64.1768 24.4359L72.5012 38.8823Z" fill="white"/>
<path id="Vector_312" d="M59.5508 8.16644C61.307 9.77815 62.3028 12.4856 61.7828 14.2103L59.5263 21.7087L59.5018 21.7235C58.6728 22.205 58.3736 23.3794 58.6188 24.7503H58.6139L54.8613 37.2018C54.6994 37.7374 54.41 38.1206 54.0323 38.3368L46.5271 42.6757C46.8705 42.4546 47.1354 42.086 47.2874 41.5848L54.2089 18.5934C54.7289 16.8736 53.7282 14.1612 51.9819 12.5495C50.8095 11.4685 49.593 11.154 48.759 11.5815L56.279 7.23774C57.108 6.75619 58.3539 7.06084 59.5558 8.17135L59.5508 8.16644Z" fill="#5F646B"/>
<path id="Vector_313" d="M59.5227 21.7136C59.5227 21.7136 59.5073 21.7239 59.4971 21.729L59.5227 21.7136Z" fill="white"/>
<path id="Vector_314" d="M59.5227 21.7185V21.7339L59.4971 21.7288C59.5073 21.7236 59.5124 21.7185 59.5227 21.7185Z" fill="white"/>
<path id="Vector_315" d="M43.1181 28.5043L47.8616 12.7508C48.0284 12.2152 48.3129 11.832 48.6906 11.6158L48.7544 11.5814C49.5883 11.1539 50.7999 11.4683 51.9772 12.5494C53.7284 14.1611 54.7242 16.8735 54.2042 18.5933L47.2827 41.5847C47.1307 42.0908 46.8658 42.4544 46.5224 42.6756L46.4488 42.7149C45.8357 43.0637 44.9919 42.99 44.1139 42.4839C43.7999 42.3021 43.486 42.0712 43.172 41.7813C41.4159 40.1695 40.4201 37.4621 40.9401 35.7373L43.123 28.4945L43.1181 28.5043Z" fill="white"/>
<path id="Vector_316" d="M44.2069 24.8929L43.1228 28.4996L35.8334 32.7107C37.1236 31.9638 37.1236 29.5413 35.8334 27.3056L29.844 16.913L35.8334 13.4488C36.2357 13.2129 36.5104 12.8149 36.6625 12.3137L37.4228 12.5299L43.4122 22.9225C43.7899 23.576 44.0548 24.2492 44.2118 24.8929H44.2069Z" fill="#5F646B"/>
<path id="Vector_317" d="M43.4025 3.6605C44.6975 5.90117 44.6975 8.32364 43.4074 9.07053L37.418 12.5347L36.6576 12.3185C36.9912 11.208 36.7214 9.58156 35.8286 8.03865C34.5385 5.80289 32.4439 4.5892 31.1538 5.33609L38.7326 0.953022C40.0227 0.206133 42.1173 1.41491 43.4025 3.65558V3.6605Z" fill="#5F646B"/>
<path id="Vector_318" d="M35.8286 8.03858C36.7165 9.5815 36.9912 11.2079 36.6576 12.3185C36.5105 12.8197 36.2309 13.2177 35.8286 13.4535L29.8392 16.9177L35.8286 27.3103C37.1187 29.5461 37.1236 31.9685 35.8286 32.7154C35.186 33.0938 34.3374 32.9709 33.4937 32.4845C32.645 31.9931 31.8013 31.1332 31.1538 30.0129L22.8294 15.5714C21.5393 13.3307 21.5393 10.9082 22.8294 10.1613L31.1538 5.34584C32.4439 4.59895 34.5385 5.80774 35.8286 8.04841V8.03858Z" fill="white"/>
</g>
<g id="Group_8">
<path id="Vector_319" d="M34.9752 33.6688C34.3865 33.6688 33.7537 33.4821 33.1258 33.1185C32.135 32.5485 31.2078 31.5706 30.5162 30.3766L22.1918 15.9351C20.676 13.3013 20.7938 10.4808 22.4616 9.51775L30.786 4.70227C32.4538 3.73918 34.9506 5.04132 36.4664 7.67018C37.4377 9.35068 37.7712 11.1688 37.3641 12.5299C37.1581 13.2227 36.7558 13.7632 36.2064 14.0875L30.8498 17.1881L36.4713 26.9419C37.9871 29.5658 37.8693 32.3863 36.2015 33.3543C35.8336 33.5656 35.4216 33.6737 34.9752 33.6737V33.6688ZM32.0172 5.857C31.8308 5.857 31.6591 5.89631 31.5218 5.97985L23.1974 10.7953C22.3929 11.2621 22.3046 13.1834 23.4672 15.203L31.7916 29.6445C32.3557 30.6174 33.0915 31.4036 33.8616 31.8458C34.4993 32.2143 35.0831 32.2979 35.4608 32.0768C36.2653 31.61 36.3536 29.6887 35.191 27.679L29.2015 17.2864C29.1034 17.1193 29.0789 16.9178 29.128 16.7262C29.177 16.5395 29.2997 16.3773 29.4713 16.2791L35.4608 12.8149C35.6864 12.6822 35.8532 12.4414 35.9513 12.1073C36.2358 11.154 35.9366 9.70447 35.191 8.41215C34.2345 6.75131 32.9051 5.857 32.0172 5.857Z" fill="#373A3A"/>
<path id="Vector_320" d="M35.8287 33.4526C35.5736 33.4526 35.3283 33.3199 35.191 33.084C34.9898 32.7302 35.1076 32.2831 35.4608 32.0767L42.7354 27.8754C43.0199 27.7035 43.3976 27.7379 43.6429 27.9835C43.9274 28.2735 43.9323 28.7354 43.6429 29.0253C43.5988 29.0695 43.5399 29.1137 43.4859 29.1481L36.1966 33.3592C36.0788 33.428 35.9513 33.4575 35.8287 33.4575V33.4526Z" fill="#373A3A"/>
<path id="Vector_321" d="M44.207 25.63C43.8735 25.63 43.5742 25.4039 43.4908 25.0649C43.3486 24.4752 43.1082 23.8758 42.7698 23.291L36.7803 12.9034C36.5792 12.5496 36.6969 12.1024 37.0501 11.896L43.0395 8.43186C43.2799 8.29427 43.4516 8.03384 43.5546 7.6604C43.8097 6.70222 43.5105 5.30671 42.7698 4.02422C42.034 2.74174 40.9793 1.78847 40.0227 1.53295C39.6548 1.43468 39.3409 1.45433 39.1005 1.59192L31.5218 5.97498C31.1686 6.17645 30.7173 6.05852 30.5162 5.70473C30.315 5.35094 30.4328 4.90379 30.7859 4.69741L38.3647 0.319258C38.9485 -0.0197906 39.6548 -0.088583 40.4054 0.112881C41.7445 0.471584 43.1033 1.66071 44.0451 3.29208C44.987 4.92344 45.3402 6.70222 44.9772 8.04367C44.7761 8.79547 44.364 9.37038 43.7803 9.70943L38.4285 12.8051L44.0501 22.5589C44.4572 23.2665 44.7515 23.9937 44.9281 24.7258C45.0213 25.1239 44.781 25.5219 44.3836 25.6152C44.3248 25.63 44.2659 25.6349 44.2119 25.6349L44.207 25.63Z" fill="#373A3A"/>
<path id="Vector_322" d="M63.3136 50.066C62.7298 50.066 62.1019 49.8793 61.4691 49.5157C60.4733 48.9359 59.5462 47.963 58.8644 46.7689C57.3486 44.1352 57.4664 41.3147 59.1342 40.3516L64.4859 37.2559L58.8644 27.507C58.3788 26.6569 58.0403 25.7479 57.8931 24.8782C57.589 23.1289 58.055 21.7137 59.1342 21.0897C59.1489 21.0798 59.1587 21.0749 59.1734 21.0651C60.8413 20.1413 63.3185 21.4582 64.8195 24.0625L73.1439 38.5089C74.6597 41.1427 74.5419 43.9583 72.8741 44.9213L64.5497 49.7417C64.1769 49.9579 63.7599 50.0611 63.3185 50.0611L63.3136 50.066ZM59.8357 22.3869C59.3451 22.7112 59.1538 23.576 59.3353 24.6325C59.4579 25.3352 59.7326 26.0771 60.1349 26.7798L66.1243 37.1625C66.2224 37.3296 66.247 37.5311 66.1979 37.7227C66.1489 37.9094 66.0262 38.0716 65.8545 38.1699L59.8651 41.6341C59.0606 42.1009 58.9723 44.0221 60.1349 46.0417C60.6843 46.9999 61.4397 47.8057 62.2 48.248C62.8377 48.6165 63.4215 48.7 63.809 48.4789L72.1334 43.6634C72.9379 43.1966 73.0262 41.2754 71.8636 39.2607L63.5392 24.8143C62.4159 22.8586 60.7628 21.9594 59.9338 22.3427C59.9043 22.3623 59.87 22.382 59.8406 22.3967L59.8357 22.3869Z" fill="#373A3A"/>
<path id="Vector_323" d="M46.5223 43.4177C46.282 43.4177 46.0416 43.2998 45.9042 43.0787C45.6835 42.7347 45.7865 42.2777 46.125 42.0615C46.3261 41.9338 46.4782 41.6979 46.5812 41.3736L53.5027 18.3822C53.9392 16.9277 53.017 14.5052 51.4816 13.09C50.6036 12.2793 49.6667 11.9451 49.0927 12.2351C48.7297 12.4218 48.2883 12.2793 48.1018 11.9157C47.9154 11.552 48.0577 11.1098 48.4207 10.9231C49.5784 10.3285 51.0941 10.7315 52.4774 12.0041C54.4445 13.8173 55.5139 16.8048 54.9105 18.8047L47.989 41.7962C47.783 42.4595 47.4151 42.9755 46.9197 43.2949C46.797 43.3735 46.6597 43.4128 46.5223 43.4128V43.4177Z" fill="#373A3A"/>
<path id="Vector_324" d="M45.5953 43.6733C45.0066 43.6733 44.3738 43.4915 43.7459 43.1279C43.378 42.9166 43.02 42.6463 42.6766 42.3319C40.7046 40.5187 39.6352 37.5311 40.2386 35.5312L47.165 12.5398C47.3808 11.8322 47.7831 11.2966 48.3325 10.9821C48.6856 10.7807 49.1369 10.8986 49.3381 11.2524C49.5392 11.6062 49.4215 12.0533 49.0683 12.2597C48.8475 12.3875 48.6807 12.6282 48.5777 12.9722L41.6514 35.9636C41.2148 37.4181 42.1419 39.8406 43.6773 41.2557C43.9422 41.5014 44.2169 41.7029 44.4916 41.8601C45.1244 42.2287 45.7081 42.3122 46.0956 42.0911C46.4488 41.8896 46.9001 42.0125 47.1012 42.3662C47.3023 42.72 47.1797 43.1672 46.8265 43.3736C46.4635 43.5799 46.0466 43.688 45.6051 43.688L45.5953 43.6733Z" fill="#373A3A"/>
<path id="Vector_325" d="M46.4488 43.462C46.1937 43.462 45.9484 43.3294 45.8111 43.0935C45.61 42.7397 45.7277 42.2877 46.0809 42.0862L53.6597 37.708C53.8804 37.5803 54.0521 37.3346 54.1502 37.0005L57.9028 24.5441C58.0205 24.1559 58.4326 23.9348 58.8201 24.0527C59.2076 24.1707 59.4284 24.5834 59.3106 24.9716L55.558 37.423C55.3471 38.1257 54.9449 38.6613 54.3906 38.9807L46.8118 43.3638C46.694 43.4326 46.5714 43.462 46.4439 43.462H46.4488Z" fill="#373A3A"/>
<path id="Vector_326" d="M72.5011 45.0294C72.246 45.0294 72.0008 44.8968 71.8634 44.6609C71.6623 44.3071 71.78 43.86 72.1332 43.6536L79.7071 39.2705C80.0897 39.0494 80.3055 38.4991 80.3055 37.762C80.3055 36.8824 79.9867 35.826 79.4373 34.8678L71.1129 20.4214C70.0975 18.6623 68.7534 17.8613 67.9293 17.8613C67.7429 17.8613 67.581 17.9006 67.4388 17.9842L59.9728 22.3034C59.7962 22.4459 59.5657 22.5048 59.3351 22.4508C59.0457 22.3771 58.8151 22.1314 58.7759 21.8365C58.7514 21.6793 58.7808 21.5172 58.8544 21.3796L61.0765 14.004C61.5131 12.5496 60.586 10.1271 59.0506 8.71193C58.148 7.8815 57.2013 7.54737 56.6372 7.87659L49.0584 12.2597C48.7052 12.4611 48.2588 12.3432 48.0528 11.9894C47.8517 11.6356 47.9694 11.1835 48.3226 10.9821L55.9014 6.59901C57.0443 5.93566 58.6336 6.32876 60.0464 7.62599C62.0183 9.43916 63.0877 12.4267 62.4844 14.4266L60.7626 20.1462L66.703 16.7115C67.0709 16.5002 67.4829 16.3921 67.9293 16.3921C69.4794 16.3921 71.2306 17.6844 72.3834 19.6892L80.7078 34.1357C81.3945 35.3297 81.7772 36.6171 81.7772 37.7669C81.7772 39.0641 81.3013 40.0518 80.4429 40.5481L72.869 44.9312C72.7513 45 72.6287 45.0294 72.5011 45.0294Z" fill="#373A3A"/>
</g>
</g>
</g>
</g>
<defs>
<clipPath id="clip0_2062_3492">
<rect width="113" height="94" fill="white"/>
</clipPath>
</defs>
</svg>
