<svg width="109" height="79" viewBox="0 0 109 79" fill="none" xmlns="http://www.w3.org/2000/svg">
<g id="Frame" clip-path="url(#clip0_2064_4448)">
<g id="shadow">
<path id="Vector" d="M108.87 64.0615L108.762 64.1226L108.896 64.201C108.887 64.1531 108.879 64.1095 108.87 64.0615Z" fill="#969A9E"/>
<path id="Vector_2" d="M108.784 67.4495C108.784 67.4495 108.784 67.4314 108.789 67.4224L108.762 67.4359L108.784 67.4495Z" fill="#969A9E"/>
<path id="Vector_3" d="M106.947 61.3631L107.696 60.9272C107.618 60.8008 107.536 60.6743 107.454 60.5523L106.943 60.2559L105.99 60.8095L106.943 61.3631H106.947Z" fill="#969A9E"/>
<path id="Vector_4" d="M106.947 63.5688L105.994 64.1225L106.947 64.6761L107.9 64.1225L106.947 63.5688Z" fill="#969A9E"/>
<path id="Vector_5" d="M108.333 63.0198L108.58 62.8759C108.48 62.5708 108.372 62.2656 108.238 61.9648L107.376 62.4661L108.329 63.0198H108.333Z" fill="#969A9E"/>
<path id="Vector_6" d="M107.9 67.4354L106.947 66.8818L105.994 67.4354L106.947 67.9891L107.9 67.4354Z" fill="#969A9E"/>
<path id="Vector_7" d="M107.38 65.7789L108.333 66.3326L108.996 65.9489C109 65.8356 109 65.7266 109.004 65.6133L108.337 65.2253L107.384 65.7789H107.38Z" fill="#969A9E"/>
<path id="Vector_8" d="M105.994 70.7484L106.856 71.2497C107.064 71.0056 107.263 70.7528 107.449 70.4869L106.947 70.1948L105.994 70.7484Z" fill="#969A9E"/>
<path id="Vector_9" d="M107.38 69.0919L108.051 69.4799C108.199 69.1922 108.324 68.8958 108.437 68.5994L108.333 68.5383L107.38 69.0919Z" fill="#969A9E"/>
<path id="Vector_10" d="M104.803 57.6842C104.53 57.4662 104.253 57.257 103.967 57.0652L103.222 57.4967L104.175 58.0503L104.807 57.6842H104.803Z" fill="#969A9E"/>
<path id="Vector_11" d="M103.222 60.8095L104.175 61.3631L105.128 60.8095L104.175 60.2559L103.222 60.8095Z" fill="#969A9E"/>
<path id="Vector_12" d="M105.561 59.7068L106.414 59.2099C106.345 59.1314 106.271 59.0486 106.202 58.9701L105.561 58.5996L104.608 59.1532L105.561 59.7068Z" fill="#969A9E"/>
<path id="Vector_13" d="M105.128 64.1225L104.175 63.5688L103.222 64.1225L104.175 64.6761L105.128 64.1225Z" fill="#969A9E"/>
<path id="Vector_14" d="M105.561 61.9124L104.608 62.466L105.561 63.0196L106.514 62.466L105.561 61.9124Z" fill="#969A9E"/>
<path id="Vector_15" d="M105.128 67.4354L104.175 66.8818L103.222 67.4354L104.175 67.9891L105.128 67.4354Z" fill="#969A9E"/>
<path id="Vector_16" d="M106.514 65.7789L105.561 65.2253L104.608 65.7789L105.561 66.3326L106.514 65.7789Z" fill="#969A9E"/>
<path id="Vector_17" d="M104.175 70.1948L103.222 70.7484L104.175 71.302L105.128 70.7484L104.175 70.1948Z" fill="#969A9E"/>
<path id="Vector_18" d="M106.514 69.0919L105.561 68.5383L104.608 69.0919L105.561 69.6455L106.514 69.0919Z" fill="#969A9E"/>
<path id="Vector_19" d="M104.608 72.4049L105.232 72.7667C105.505 72.5618 105.765 72.3439 106.016 72.1128L105.561 71.8469L104.608 72.4005V72.4049Z" fill="#969A9E"/>
<path id="Vector_20" d="M100.45 57.4967L101.403 58.0503L102.356 57.4967L101.403 56.9431L100.45 57.4967Z" fill="#969A9E"/>
<path id="Vector_21" d="M102.832 56.3676C102.542 56.2063 102.252 56.0538 101.953 55.9099L102.785 56.3938L102.832 56.3676Z" fill="#969A9E"/>
<path id="Vector_22" d="M100.45 60.8095L101.403 61.3631L102.356 60.8095L101.403 60.2559L100.45 60.8095Z" fill="#969A9E"/>
<path id="Vector_23" d="M101.836 59.1532L102.789 59.7068L103.742 59.1532L102.789 58.5996L101.836 59.1532Z" fill="#969A9E"/>
<path id="Vector_24" d="M102.356 64.1225L101.403 63.5688L100.45 64.1225L101.403 64.6761L102.356 64.1225Z" fill="#969A9E"/>
<path id="Vector_25" d="M103.742 62.466L102.789 61.9124L101.836 62.466L102.789 63.0196L103.742 62.466Z" fill="#969A9E"/>
<path id="Vector_26" d="M102.356 67.4354L101.403 66.8818L100.45 67.4354L101.403 67.9891L102.356 67.4354Z" fill="#969A9E"/>
<path id="Vector_27" d="M103.742 65.7789L102.789 65.2253L101.836 65.7789L102.789 66.3326L103.742 65.7789Z" fill="#969A9E"/>
<path id="Vector_28" d="M102.356 70.7484L101.403 70.1948L100.45 70.7484L101.403 71.302L102.356 70.7484Z" fill="#969A9E"/>
<path id="Vector_29" d="M103.742 69.0919L102.789 68.5383L101.836 69.0919L102.789 69.6455L103.742 69.0919Z" fill="#969A9E"/>
<path id="Vector_30" d="M100.45 74.0612L101.403 74.6148L102.356 74.0612L101.403 73.5076L100.45 74.0612Z" fill="#969A9E"/>
<path id="Vector_31" d="M101.836 72.4047L102.789 72.9583L103.742 72.4047L102.789 71.8511L101.836 72.4047Z" fill="#969A9E"/>
<path id="Vector_32" d="M98.6963 54.6982C98.614 54.6764 98.5274 54.6546 98.4451 54.6284L98.6313 54.7374L98.7006 54.6982H98.6963Z" fill="#969A9E"/>
<path id="Vector_33" d="M98.6313 58.0503L99.5841 57.4967L98.6313 56.9431L97.6785 57.4967L98.6313 58.0503Z" fill="#969A9E"/>
<path id="Vector_34" d="M99.0645 55.8402L100.017 56.3938L100.97 55.8402L100.017 55.2866L99.0645 55.8402Z" fill="#969A9E"/>
<path id="Vector_35" d="M97.6785 60.8095L98.6313 61.3631L99.5841 60.8095L98.6313 60.2559L97.6785 60.8095Z" fill="#969A9E"/>
<path id="Vector_36" d="M99.0645 59.1532L100.017 59.7068L100.97 59.1532L100.017 58.5996L99.0645 59.1532Z" fill="#969A9E"/>
<path id="Vector_37" d="M99.5841 64.1225L98.6313 63.5688L97.6785 64.1225L98.6313 64.6761L99.5841 64.1225Z" fill="#969A9E"/>
<path id="Vector_38" d="M100.97 62.466L100.017 61.9124L99.0645 62.466L100.017 63.0196L100.97 62.466Z" fill="#969A9E"/>
<path id="Vector_39" d="M99.5841 67.4354L98.6313 66.8818L97.6785 67.4354L98.6313 67.9891L99.5841 67.4354Z" fill="#969A9E"/>
<path id="Vector_40" d="M100.97 65.7789L100.017 65.2253L99.0645 65.7789L100.017 66.3326L100.97 65.7789Z" fill="#969A9E"/>
<path id="Vector_41" d="M99.5841 70.7484L98.6313 70.1948L97.6785 70.7484L98.6313 71.302L99.5841 70.7484Z" fill="#969A9E"/>
<path id="Vector_42" d="M100.97 69.0919L100.017 68.5383L99.0645 69.0919L100.017 69.6455L100.97 69.0919Z" fill="#969A9E"/>
<path id="Vector_43" d="M98.6313 73.5076L97.6785 74.0612L98.6313 74.6148L99.5841 74.0612L98.6313 73.5076Z" fill="#969A9E"/>
<path id="Vector_44" d="M100.97 72.4047L100.017 71.8511L99.0645 72.4047L100.017 72.9583L100.97 72.4047Z" fill="#969A9E"/>
<path id="Vector_45" d="M99.385 75.5302C99.6535 75.4431 99.9221 75.3559 100.186 75.2643L100.017 75.1641L99.385 75.5302Z" fill="#969A9E"/>
<path id="Vector_46" d="M94.9065 54.1837L95.8593 54.7373L96.7429 54.2229C96.2664 54.1226 95.7857 54.0355 95.3006 53.9526L94.9065 54.1837Z" fill="#969A9E"/>
<path id="Vector_47" d="M96.8122 57.4967L95.8593 56.9431L94.9065 57.4967L95.8593 58.0503L96.8122 57.4967Z" fill="#969A9E"/>
<path id="Vector_48" d="M97.2453 55.2866L96.2925 55.8402L97.2453 56.3938L98.1981 55.8402L97.2453 55.2866Z" fill="#969A9E"/>
<path id="Vector_49" d="M96.8122 60.8095L95.8593 60.2559L94.9065 60.8095L95.8593 61.3631L96.8122 60.8095Z" fill="#969A9E"/>
<path id="Vector_50" d="M98.1981 59.1532L97.2453 58.5996L96.2925 59.1532L97.2453 59.7068L98.1981 59.1532Z" fill="#969A9E"/>
<path id="Vector_51" d="M96.8122 64.1225L95.8593 63.5688L94.9065 64.1225L95.8593 64.6761L96.8122 64.1225Z" fill="#969A9E"/>
<path id="Vector_52" d="M98.1981 62.466L97.2453 61.9124L96.2925 62.466L97.2453 63.0196L98.1981 62.466Z" fill="#969A9E"/>
<path id="Vector_53" d="M96.8122 67.4354L95.8593 66.8818L94.9065 67.4354L95.8593 67.9891L96.8122 67.4354Z" fill="#969A9E"/>
<path id="Vector_54" d="M98.1981 65.7789L97.2453 65.2253L96.2925 65.7789L97.2453 66.3326L98.1981 65.7789Z" fill="#969A9E"/>
<path id="Vector_55" d="M96.8122 70.7484L95.8593 70.1948L94.9065 70.7484L95.8593 71.302L96.8122 70.7484Z" fill="#969A9E"/>
<path id="Vector_56" d="M98.1981 69.0919L97.2453 68.5383L96.2925 69.0919L97.2453 69.6455L98.1981 69.0919Z" fill="#969A9E"/>
<path id="Vector_57" d="M95.8593 73.5076L94.9065 74.0612L95.8593 74.6148L96.8122 74.0612L95.8593 73.5076Z" fill="#969A9E"/>
<path id="Vector_58" d="M98.1981 72.4047L97.2453 71.8511L96.2925 72.4047L97.2453 72.9583L98.1981 72.4047Z" fill="#969A9E"/>
<path id="Vector_59" d="M96.2925 75.7176L97.1587 76.2189C97.2756 76.1841 97.3926 76.1492 97.5095 76.1143L98.1981 75.7133L97.2453 75.1597L96.2925 75.7133V75.7176Z" fill="#969A9E"/>
<path id="Vector_60" d="M93.0703 53.6389L92.1348 54.1838L93.0876 54.7374L94.0404 54.1838L93.1136 53.6433C93.1136 53.6433 93.0876 53.6433 93.0746 53.6389H93.0703Z" fill="#969A9E"/>
<path id="Vector_61" d="M94.0404 57.4967L93.0876 56.9431L92.1348 57.4967L93.0876 58.0503L94.0404 57.4967Z" fill="#969A9E"/>
<path id="Vector_62" d="M95.4264 55.8402L94.4736 55.2866L93.5208 55.8402L94.4736 56.3938L95.4264 55.8402Z" fill="#969A9E"/>
<path id="Vector_63" d="M94.0404 60.8095L93.0876 60.2559L92.1348 60.8095L93.0876 61.3631L94.0404 60.8095Z" fill="#969A9E"/>
<path id="Vector_64" d="M95.4264 59.1532L94.4736 58.5996L93.5208 59.1532L94.4736 59.7068L95.4264 59.1532Z" fill="#969A9E"/>
<path id="Vector_65" d="M94.0404 64.1225L93.0876 63.5688L92.1348 64.1225L93.0876 64.6761L94.0404 64.1225Z" fill="#969A9E"/>
<path id="Vector_66" d="M95.4264 62.466L94.4736 61.9124L93.5208 62.466L94.4736 63.0196L95.4264 62.466Z" fill="#969A9E"/>
<path id="Vector_67" d="M94.0404 67.4354L93.0876 66.8818L92.1348 67.4354L93.0876 67.9891L94.0404 67.4354Z" fill="#969A9E"/>
<path id="Vector_68" d="M95.4264 65.7789L94.4736 65.2253L93.5208 65.7789L94.4736 66.3326L95.4264 65.7789Z" fill="#969A9E"/>
<path id="Vector_69" d="M94.0404 70.7484L93.0876 70.1948L92.1348 70.7484L93.0876 71.302L94.0404 70.7484Z" fill="#969A9E"/>
<path id="Vector_70" d="M95.4264 69.0919L94.4736 68.5383L93.5208 69.0919L94.4736 69.6455L95.4264 69.0919Z" fill="#969A9E"/>
<path id="Vector_71" d="M93.0876 73.5076L92.1348 74.0612L93.0876 74.6148L94.0404 74.0612L93.0876 73.5076Z" fill="#969A9E"/>
<path id="Vector_72" d="M95.4264 72.4047L94.4736 71.8511L93.5208 72.4047L94.4736 72.9583L95.4264 72.4047Z" fill="#969A9E"/>
<path id="Vector_73" d="M92.1347 77.3742L92.269 77.4526C92.7324 77.3524 93.1958 77.2608 93.6549 77.1519L93.0832 76.8206L92.1304 77.3742H92.1347Z" fill="#969A9E"/>
<path id="Vector_74" d="M93.5208 75.7177L94.4736 76.2713L95.4264 75.7177L94.4736 75.1641L93.5208 75.7177Z" fill="#969A9E"/>
<path id="Vector_75" d="M91.2685 54.1837L90.3156 53.6301L89.3628 54.1837L90.3156 54.7373L91.2685 54.1837Z" fill="#969A9E"/>
<path id="Vector_76" d="M91.2685 57.4967L90.3156 56.9431L89.3628 57.4967L90.3156 58.0503L91.2685 57.4967Z" fill="#969A9E"/>
<path id="Vector_77" d="M92.6544 55.8402L91.7016 55.2866L90.7488 55.8402L91.7016 56.3938L92.6544 55.8402Z" fill="#969A9E"/>
<path id="Vector_78" d="M91.2685 60.8095L90.3156 60.2559L89.3628 60.8095L90.3156 61.3631L91.2685 60.8095Z" fill="#969A9E"/>
<path id="Vector_79" d="M92.6544 59.1532L91.7016 58.5996L90.7488 59.1532L91.7016 59.7068L92.6544 59.1532Z" fill="#969A9E"/>
<path id="Vector_80" d="M92.6546 62.466L91.7017 61.9124L90.9395 62.357C91.2989 62.5183 91.6497 62.6839 92.0092 62.8452L92.6589 62.4703L92.6546 62.466Z" fill="#969A9E"/>
<path id="Vector_81" d="M91.2685 67.4354L90.3156 66.8818L89.3628 67.4354L90.3156 67.9891L91.2685 67.4354Z" fill="#969A9E"/>
<path id="Vector_82" d="M92.6544 65.7789L91.7016 65.2253L90.7488 65.7789L91.7016 66.3326L92.6544 65.7789Z" fill="#969A9E"/>
<path id="Vector_83" d="M90.3156 70.1948L89.3628 70.7484L90.3156 71.302L91.2685 70.7484L90.3156 70.1948Z" fill="#969A9E"/>
<path id="Vector_84" d="M92.6544 69.0919L91.7016 68.5383L90.7488 69.0919L91.7016 69.6455L92.6544 69.0919Z" fill="#969A9E"/>
<path id="Vector_85" d="M90.3156 73.5076L89.3628 74.0612L90.3156 74.6148L91.2685 74.0612L90.3156 73.5076Z" fill="#969A9E"/>
<path id="Vector_86" d="M91.7016 71.8511L90.7488 72.4047L91.7016 72.9583L92.6544 72.4047L91.7016 71.8511Z" fill="#969A9E"/>
<path id="Vector_87" d="M90.5235 77.8057L91.2685 77.3742L90.3156 76.8206L89.3628 77.3742L90.2074 77.8624C90.3113 77.8449 90.4196 77.8232 90.5235 77.8057Z" fill="#969A9E"/>
<path id="Vector_88" d="M91.7016 75.1641L90.7488 75.7177L91.7016 76.2713L92.6544 75.7177L91.7016 75.1641Z" fill="#969A9E"/>
<path id="Vector_89" d="M88.4965 54.1837L88.1674 53.9919C87.8945 54.1837 87.652 54.4148 87.4441 54.6763L87.548 54.7373L88.5009 54.1837H88.4965Z" fill="#969A9E"/>
<path id="Vector_90" d="M88.4967 57.4967L87.5439 56.9431L86.5911 57.4967L87.5439 58.0503L88.4967 57.4967Z" fill="#969A9E"/>
<path id="Vector_91" d="M89.8825 55.8402L88.9296 55.2866L87.9768 55.8402L88.9296 56.3938L89.8825 55.8402Z" fill="#969A9E"/>
<path id="Vector_92" d="M88.0245 61.0841L88.4966 60.8095L87.5438 60.2559L87.3489 60.3692C87.5438 60.6307 87.7647 60.8749 88.0289 61.0841H88.0245Z" fill="#969A9E"/>
<path id="Vector_93" d="M89.8825 59.1532L88.9296 58.5996L87.9768 59.1532L88.9296 59.7068L89.8825 59.1532Z" fill="#969A9E"/>
<path id="Vector_94" d="M87.5439 66.8818L86.5911 67.4354L87.5439 67.9891L88.4967 67.4354L87.5439 66.8818Z" fill="#969A9E"/>
<path id="Vector_95" d="M89.8825 65.7789L88.9296 65.2253L87.9768 65.7789L88.9296 66.3326L89.8825 65.7789Z" fill="#969A9E"/>
<path id="Vector_96" d="M87.5439 70.1948L86.5911 70.7484L87.5439 71.302L88.4967 70.7484L87.5439 70.1948Z" fill="#969A9E"/>
<path id="Vector_97" d="M88.9296 68.5383L87.9768 69.0919L88.9296 69.6455L89.8825 69.0919L88.9296 68.5383Z" fill="#969A9E"/>
<path id="Vector_98" d="M88.4967 74.0612L87.5439 73.5076L86.5911 74.0612L87.5439 74.6148L88.4967 74.0612Z" fill="#969A9E"/>
<path id="Vector_99" d="M88.9296 71.8511L87.9768 72.4047L88.9296 72.9583L89.8825 72.4047L88.9296 71.8511Z" fill="#969A9E"/>
<path id="Vector_100" d="M88.4967 77.3742L87.5439 76.8206L86.5911 77.3742L87.5439 77.9278L88.4967 77.3742Z" fill="#969A9E"/>
<path id="Vector_101" d="M89.8825 75.7177L88.9296 75.1641L87.9768 75.7177L88.9296 76.2713L89.8825 75.7177Z" fill="#969A9E"/>
<path id="Vector_102" d="M87.1106 55.8403L86.8507 55.6877C86.7988 55.8142 86.7511 55.9406 86.7122 56.0713L87.1106 55.8403Z" fill="#969A9E"/>
<path id="Vector_103" d="M86.6387 58.8828C86.6777 59.0397 86.7296 59.1923 86.7859 59.3405L87.1064 59.1531L86.6387 58.8828Z" fill="#969A9E"/>
<path id="Vector_104" d="M84.772 66.8818L84.6421 66.9559C84.5901 66.9995 84.5381 67.0431 84.4905 67.0911C84.3259 67.2436 84.196 67.4136 84.0747 67.5837L84.7677 67.9891L85.7205 67.4354L84.7677 66.8818H84.772Z" fill="#969A9E"/>
<path id="Vector_105" d="M86.9591 65.6917C86.5737 65.8181 86.2012 65.9619 85.8374 66.145L86.1579 66.3324L87.1107 65.7788L86.9591 65.6917Z" fill="#969A9E"/>
<path id="Vector_106" d="M85.7248 70.7484L84.7719 70.1948L83.8191 70.7484L84.7719 71.302L85.7248 70.7484Z" fill="#969A9E"/>
<path id="Vector_107" d="M86.1579 68.5383L85.2051 69.0919L86.1579 69.6455L87.1108 69.0919L86.1579 68.5383Z" fill="#969A9E"/>
<path id="Vector_108" d="M85.7248 74.0612L84.7719 73.5076L83.8191 74.0612L84.7719 74.6148L85.7248 74.0612Z" fill="#969A9E"/>
<path id="Vector_109" d="M87.1108 72.4047L86.1579 71.8511L85.2051 72.4047L86.1579 72.9583L87.1108 72.4047Z" fill="#969A9E"/>
<path id="Vector_110" d="M84.7719 76.8206L83.8191 77.3742L84.7719 77.9278L85.7248 77.3742L84.7719 76.8206Z" fill="#969A9E"/>
<path id="Vector_111" d="M86.1579 75.1641L85.2051 75.7177L86.1579 76.2713L87.1108 75.7177L86.1579 75.1641Z" fill="#969A9E"/>
<path id="Vector_112" d="M86.106 78.5076C86.1319 78.5076 86.1623 78.5032 86.1882 78.4989L86.1536 78.4814L86.106 78.512V78.5076Z" fill="#969A9E"/>
<path id="Vector_113" d="M82.8705 70.7964C82.381 70.8574 81.8873 70.9054 81.3936 70.9533L81.9956 71.3064L82.8661 70.8007L82.8705 70.7964Z" fill="#969A9E"/>
<path id="Vector_114" d="M84.3388 69.0918L83.6241 68.6777C83.5722 68.9611 83.5592 69.2444 83.5808 69.5321L84.3388 69.0918Z" fill="#969A9E"/>
<path id="Vector_115" d="M82 73.5076L81.0471 74.0612L82 74.6148L82.9528 74.0612L82 73.5076Z" fill="#969A9E"/>
<path id="Vector_116" d="M84.3388 72.4047L83.3859 71.8511L82.4331 72.4047L83.3859 72.9583L84.3388 72.4047Z" fill="#969A9E"/>
<path id="Vector_117" d="M82.9528 77.3742L82 76.8206L81.0471 77.3742L82 77.9278L82.9528 77.3742Z" fill="#969A9E"/>
<path id="Vector_118" d="M83.3859 75.1641L82.4331 75.7177L83.3859 76.2713L84.3388 75.7177L83.3859 75.1641Z" fill="#969A9E"/>
<path id="Vector_119" d="M83.3859 78.4771L82.7666 78.8389C83.1304 78.8127 83.4942 78.7909 83.8624 78.756L83.3859 78.4814V78.4771Z" fill="#969A9E"/>
<path id="Vector_120" d="M79.2282 70.1948L78.2754 70.7484L79.2282 71.302L80.1811 70.7484L79.2282 70.1948Z" fill="#969A9E"/>
<path id="Vector_121" d="M80.1811 74.0612L79.2282 73.5076L78.2754 74.0612L79.2282 74.6148L80.1811 74.0612Z" fill="#969A9E"/>
<path id="Vector_122" d="M80.614 71.8511L79.6611 72.4047L80.614 72.9583L81.5668 72.4047L80.614 71.8511Z" fill="#969A9E"/>
<path id="Vector_123" d="M80.1811 77.3742L79.2282 76.8206L78.2754 77.3742L79.2282 77.9278L80.1811 77.3742Z" fill="#969A9E"/>
<path id="Vector_124" d="M81.5668 75.7177L80.614 75.1641L79.6611 75.7177L80.614 76.2713L81.5668 75.7177Z" fill="#969A9E"/>
<path id="Vector_125" d="M81.4067 78.9391L80.6141 78.4771L79.7219 78.9958C80.2763 78.9871 80.8307 78.9696 81.3894 78.9391C81.398 78.9391 81.4024 78.9391 81.411 78.9391H81.4067Z" fill="#969A9E"/>
<path id="Vector_126" d="M77.4091 70.7484L76.4563 70.1948L75.5034 70.7484L76.4563 71.302L77.4091 70.7484Z" fill="#969A9E"/>
<path id="Vector_127" d="M77.9202 68.5862C77.8812 68.5775 77.8422 68.5688 77.8033 68.5601L76.8894 69.0919L77.8422 69.6455L78.7951 69.0919L77.9245 68.5862H77.9202Z" fill="#969A9E"/>
<path id="Vector_128" d="M77.4091 74.0612L76.4563 73.5076L75.5034 74.0612L76.4563 74.6148L77.4091 74.0612Z" fill="#969A9E"/>
<path id="Vector_129" d="M78.7951 72.4047L77.8422 71.8511L76.8894 72.4047L77.8422 72.9583L78.7951 72.4047Z" fill="#969A9E"/>
<path id="Vector_130" d="M77.4091 77.3742L76.4563 76.8206L75.5034 77.3742L76.4563 77.9278L77.4091 77.3742Z" fill="#969A9E"/>
<path id="Vector_131" d="M78.7951 75.7177L77.8422 75.1641L76.8894 75.7177L77.8422 76.2713L78.7951 75.7177Z" fill="#969A9E"/>
<path id="Vector_132" d="M77.8421 78.4771L77.0322 78.9478C77.5996 78.9783 78.1713 78.9958 78.743 79.0001L77.8421 78.4771Z" fill="#969A9E"/>
<path id="Vector_133" d="M74.6371 70.7484L73.6843 70.1948L72.7314 70.7484L73.6843 71.302L74.6371 70.7484Z" fill="#969A9E"/>
<path id="Vector_134" d="M76.0231 69.0919L75.0703 68.5383L74.1174 69.0919L75.0703 69.6455L76.0231 69.0919Z" fill="#969A9E"/>
<path id="Vector_135" d="M74.6371 74.0612L73.6843 73.5076L72.7314 74.0612L73.6843 74.6148L74.6371 74.0612Z" fill="#969A9E"/>
<path id="Vector_136" d="M76.0231 72.4047L75.0703 71.8511L74.1174 72.4047L75.0703 72.9583L76.0231 72.4047Z" fill="#969A9E"/>
<path id="Vector_137" d="M73.6843 76.8206L72.7314 77.3742L73.6843 77.9278L74.6371 77.3742L73.6843 76.8206Z" fill="#969A9E"/>
<path id="Vector_138" d="M75.0703 75.1641L74.1174 75.7177L75.0703 76.2713L76.0231 75.7177L75.0703 75.1641Z" fill="#969A9E"/>
<path id="Vector_139" d="M75.0703 78.477L74.6025 78.7473C74.9793 78.7909 75.3518 78.8257 75.7286 78.8563L75.0703 78.4727V78.477Z" fill="#969A9E"/>
<path id="Vector_140" d="M71.8654 70.7484L70.9126 70.1948L69.9597 70.7484L70.9126 71.302L71.8654 70.7484Z" fill="#969A9E"/>
<path id="Vector_141" d="M73.2514 69.0919L72.2985 68.5383L71.3457 69.0919L72.2985 69.6455L73.2514 69.0919Z" fill="#969A9E"/>
<path id="Vector_142" d="M70.9126 73.5076L69.9597 74.0612L70.9126 74.6148L71.8654 74.0612L70.9126 73.5076Z" fill="#969A9E"/>
<path id="Vector_143" d="M73.2514 72.4047L72.2985 71.8511L71.3457 72.4047L72.2985 72.9583L73.2514 72.4047Z" fill="#969A9E"/>
<path id="Vector_144" d="M70.9126 76.8206L69.9597 77.3742L70.9126 77.9278L71.8654 77.3742L70.9126 76.8206Z" fill="#969A9E"/>
<path id="Vector_145" d="M72.2985 75.1641L71.3457 75.7177L72.2985 76.2713L73.2514 75.7177L72.2985 75.1641Z" fill="#969A9E"/>
<path id="Vector_146" d="M68.2489 67.928C68.1233 67.8975 68.0021 67.8713 67.8765 67.8364L68.1407 67.989L68.2489 67.928Z" fill="#969A9E"/>
<path id="Vector_147" d="M68.1406 70.1948L67.1877 70.7484L68.1406 71.302L69.0934 70.7484L68.1406 70.1948Z" fill="#969A9E"/>
<path id="Vector_148" d="M70.4794 69.0919L69.5266 68.5383L68.5737 69.0919L69.5266 69.6455L70.4794 69.0919Z" fill="#969A9E"/>
<path id="Vector_149" d="M68.1406 73.5076L67.1877 74.0612L68.1406 74.6148L69.0934 74.0612L68.1406 73.5076Z" fill="#969A9E"/>
<path id="Vector_150" d="M69.5266 71.8511L68.5737 72.4047L69.5266 72.9583L70.4794 72.4047L69.5266 71.8511Z" fill="#969A9E"/>
<path id="Vector_151" d="M68.1405 76.8206L67.3479 77.2826C67.7594 77.4221 68.1795 77.5485 68.5996 77.6619L69.0933 77.3742L68.1405 76.8206Z" fill="#969A9E"/>
<path id="Vector_152" d="M69.5266 75.1641L68.5737 75.7177L69.5266 76.2713L70.4794 75.7177L69.5266 75.1641Z" fill="#969A9E"/>
<path id="Vector_153" d="M65.3686 67.9889L66.3214 67.4353L65.6285 67.0343C65.5332 66.9907 65.4379 66.9471 65.3383 66.8992L64.4158 67.4353L65.3686 67.9889Z" fill="#969A9E"/>
<path id="Vector_154" d="M64.4158 70.7484L65.3686 71.302L66.3214 70.7484L65.3686 70.1948L64.4158 70.7484Z" fill="#969A9E"/>
<path id="Vector_155" d="M66.7546 69.6455L67.7074 69.0919L66.7546 68.5383L65.8018 69.0919L66.7546 69.6455Z" fill="#969A9E"/>
<path id="Vector_156" d="M65.3686 74.6148L66.3214 74.0612L65.3686 73.5076L64.4158 74.0612L65.3686 74.6148Z" fill="#969A9E"/>
<path id="Vector_157" d="M66.7546 71.8511L65.8018 72.4047L66.7546 72.9583L67.7074 72.4047L66.7546 71.8511Z" fill="#969A9E"/>
<path id="Vector_158" d="M66.7546 76.2713L67.7074 75.7177L66.7546 75.1641L65.8018 75.7177L66.7546 76.2713Z" fill="#969A9E"/>
<path id="Vector_159" d="M62.5969 67.9891L63.5497 67.4354L62.5969 66.8818L61.644 67.4354L62.5969 67.9891Z" fill="#969A9E"/>
<path id="Vector_160" d="M62.5969 71.302L63.5497 70.7484L62.5969 70.1948L61.644 70.7484L62.5969 71.302Z" fill="#969A9E"/>
<path id="Vector_161" d="M63.03 69.0919L63.9829 69.6455L64.9357 69.0919L63.9829 68.5383L63.03 69.0919Z" fill="#969A9E"/>
<path id="Vector_162" d="M62.3977 73.6253C62.5017 73.913 62.6576 74.1919 62.8611 74.4622L63.5498 74.0612L62.5969 73.5076L62.3977 73.6253Z" fill="#969A9E"/>
<path id="Vector_163" d="M63.9829 72.9583L64.9357 72.4047L63.9829 71.8511L63.03 72.4047L63.9829 72.9583Z" fill="#969A9E"/>
<path id="Vector_164" d="M63.6926 75.3341C63.9524 75.5564 64.2296 75.7656 64.5241 75.9574L64.9312 75.7177L63.9784 75.1641L63.6882 75.3297L63.6926 75.3341Z" fill="#969A9E"/>
<path id="Vector_165" d="M61.2109 69.6455L62.1637 69.0919L61.2109 68.5383L60.7648 68.7955C60.7215 68.9742 60.6955 69.1573 60.6912 69.3404L61.2109 69.6412V69.6455Z" fill="#969A9E"/>
</g>
<g id="icons design">
<g id="Group">
<g id="Group_2">
<path id="Vector_166" d="M93.1959 55.5437V65.0422C93.1959 67.5617 91.5371 70.09 88.2325 72.0124C81.606 75.8615 70.8692 75.8615 64.2427 72.0124C60.9338 70.0857 59.2793 67.5617 59.2793 65.0422V58.8653C59.4872 58.6648 59.7081 58.473 59.9376 58.2769C60.7042 59.8287 62.1378 61.2934 64.2427 62.5139C70.8692 66.3674 81.6276 66.4022 88.2325 62.5139C88.4101 62.4093 88.592 62.3003 88.7565 62.1957C91.706 60.2995 93.1959 57.9325 93.1959 55.5481V55.5437Z" fill="#C2C7CC"/>
<path id="Vector_167" d="M93.1958 55.5436C93.1958 57.928 91.7015 60.2863 88.7564 62.1912C86.8551 55.9097 84.7718 50.7093 82.5457 46.3938C84.6202 46.8733 86.5519 47.5969 88.228 48.569C91.537 50.5001 93.1914 53.0196 93.1914 55.5392L93.1958 55.5436Z" fill="#373A3A"/>
<path id="Vector_168" d="M19.6889 56.3632C19.507 56.2978 19.3251 56.2325 19.1476 56.1714C16.8434 55.3694 14.4917 54.624 12.0533 54.2316H12.0446C8.40218 51.6903 4.46957 48.7566 1.49413 46.4768C0.16882 45.4698 0.454671 43.3644 2.00519 42.7759C3.23089 42.3095 4.51721 42.0392 5.81653 42.0392C9.20343 42.0392 13.3569 44.7855 16.38 47.1655C36.4069 39.7245 24.7606 41.3069 37.2298 38.3035L41.8294 46.3155L57.5555 37.1832L57.5988 37.2617L67.1531 31.7169C67.7941 31.342 68.2879 30.7884 68.6473 30.104C73.6281 33.2338 78.3489 38.2424 82.5501 46.3983C84.7762 50.7138 86.8552 55.9142 88.7608 62.1957C88.5919 62.3003 88.4143 62.4093 88.2368 62.5139C81.6319 66.4022 70.8735 66.3674 64.247 62.5139C62.1421 61.2934 60.7085 59.8287 59.9419 58.2769C59.708 58.473 59.4915 58.6692 59.2836 58.8654C53.8697 64.0265 55.3077 67.8625 47.5074 67.8625C45.749 67.8625 45.017 67.6751 42.8255 67.6751C41.2144 67.6751 39.6162 67.7928 38.031 68.002C37.3424 68.0979 36.71 67.7536 36.3765 67.213C35.5147 67.4528 34.6311 67.5923 33.7822 67.5923C31.1793 67.5923 28.1345 65.1686 24.0936 63.1983C22.4695 62.4049 20.6851 61.6857 18.6971 61.2324C16.9344 60.827 16.3194 58.5515 17.7313 57.4051C18.2424 56.9909 18.8834 56.6291 19.6976 56.3676L19.6889 56.3632Z" fill="white"/>
<path id="Vector_169" d="M67.1488 19.4285C69.427 23.404 69.925 27.6323 68.6431 30.0996C68.2836 30.7883 67.7898 31.3419 67.1488 31.7124L57.5945 37.2572L57.5512 37.1787C60.466 35.4831 60.466 29.9819 57.5512 24.8948C55.2124 20.8278 51.7216 18.2559 48.9194 18.2559C48.2221 18.2559 47.5637 18.4215 46.979 18.7572L41.8251 21.7519L36.6754 12.7678C33.7693 7.69814 29.0571 4.9519 26.1379 6.61272L35.7356 1.14205C38.6547 -0.523128 43.3669 2.22747 46.2774 7.2971L51.4314 16.2812L56.581 13.2865C59.5002 11.5952 64.234 14.3458 67.1532 19.4285H67.1488Z" fill="#5F646B"/>
<path id="Vector_170" d="M57.5511 24.8991C60.4659 29.9862 60.4659 35.4874 57.5511 37.1831L41.825 46.3154L26.1032 18.9097C24.6436 16.3684 23.916 13.7224 23.916 11.4993C23.916 9.27612 24.6436 7.48017 26.1032 6.63451C26.1162 6.62579 26.1205 6.62143 26.1335 6.61707C29.0527 4.95189 33.7649 7.69813 36.671 12.7721L41.8207 21.7562L46.9746 18.7615C47.555 18.4259 48.2176 18.2602 48.9149 18.2602C51.7171 18.2602 55.208 20.8365 57.5468 24.8991H57.5511Z" fill="#DAE0E5"/>
<path id="Vector_171" d="M26.857 20.2176L32.7775 30.5399C28.3122 28.9402 20.3604 27.227 20.3604 22.6543C20.3604 20.4617 21.9022 19.3545 23.8339 19.3545C24.882 19.3545 25.8781 19.725 26.857 20.2176Z" fill="white"/>
<path id="Vector_172" d="M24.0849 63.1938C23.0714 64.1441 21.9367 64.6933 20.4251 64.6933C15.2582 64.6933 13.7033 60.7614 4.83329 60.7614C4.59075 60.7614 4.33955 60.7614 4.09701 60.7614C2.55948 60.7919 1.40308 59.3447 1.79721 57.8495C2.52483 55.0641 4.46082 53.9351 8.63597 53.9351C9.7967 53.9351 10.9314 54.0397 12.0532 54.2228H12.0618C14.5002 54.6107 16.852 55.3605 19.1561 56.1626C19.3337 56.2236 19.5156 56.289 19.6975 56.3544C18.8833 56.6159 18.2423 56.9777 17.7312 57.3918C16.3193 58.5383 16.9343 60.8137 18.697 61.2191C20.685 61.6725 22.4694 62.3917 24.0936 63.1851L24.0849 63.1938Z" fill="white"/>
</g>
<g id="Group_3">
<path id="Vector_173" d="M82.5458 47.0476C82.3119 47.0476 82.0824 46.9211 81.9698 46.6945C78.1498 39.284 73.6758 34.0356 68.3009 30.653C67.9977 30.4612 67.9025 30.0601 68.093 29.7506C68.2836 29.4455 68.6864 29.3496 68.9895 29.5414C74.568 33.0505 79.1935 38.4601 83.1218 46.0886C83.2864 46.4111 83.1608 46.8035 82.8446 46.9691C82.7494 47.0214 82.6454 47.0432 82.5458 47.0432V47.0476Z" fill="#373A3A"/>
<path id="Vector_174" d="M88.7565 62.8452C88.4793 62.8452 88.2195 62.6621 88.1372 62.3831C86.3225 56.3893 84.2479 51.1148 81.9741 46.6947C81.8095 46.3721 81.9351 45.9798 82.2513 45.8141C82.5674 45.6485 82.9616 45.7749 83.1261 46.0931C85.4389 50.5786 87.5395 55.9316 89.3802 61.9995C89.4841 62.3439 89.2892 62.71 88.9471 62.8146C88.8821 62.8321 88.8215 62.8452 88.7565 62.8452Z" fill="#373A3A"/>
<path id="Vector_175" d="M32.7775 31.1936C32.7039 31.1936 32.6303 31.1805 32.561 31.1544C31.868 30.9059 31.0884 30.6531 30.2612 30.3872C25.562 28.8702 19.7107 26.9827 19.7107 22.6498C19.7107 20.2871 21.3695 18.696 23.8339 18.696C24.8517 18.696 25.8738 18.9837 27.1471 19.6289C27.4676 19.7902 27.5976 20.1869 27.4373 20.5051C27.2771 20.8276 26.8829 20.9584 26.5668 20.7971C25.484 20.2479 24.6395 20.0038 23.8382 20.0038C23.1755 20.0038 21.0143 20.1956 21.0143 22.6498C21.0143 26.0281 26.3632 27.7543 30.664 29.1405C31.4999 29.4107 32.2924 29.6635 33.0027 29.9207C33.3406 30.0428 33.5181 30.4177 33.3969 30.7577C33.3016 31.0236 33.0504 31.1936 32.7862 31.1936H32.7775Z" fill="#373A3A"/>
<path id="Vector_176" d="M12.0448 54.8852C11.9192 54.8852 11.7892 54.846 11.6766 54.7675C7.50149 51.8513 3.25704 48.6474 1.10017 46.9953C0.28593 46.3719 -0.11686 45.3868 0.0303966 44.3624C0.173322 43.3467 0.827313 42.5228 1.77149 42.1654C3.13144 41.6466 4.4914 41.3851 5.81237 41.3851C8.59292 41.3851 12.1834 43.0808 16.4885 46.4286C26.6232 42.6492 28.3599 41.2587 29.4037 40.4261C30.5558 39.502 31.2574 39.0748 37.074 37.6711C37.4292 37.5883 37.7757 37.8063 37.8579 38.155C37.9402 38.5081 37.728 38.8612 37.3772 38.944C31.6039 40.3346 31.1405 40.7051 30.2093 41.4505C29.0226 42.4008 27.2295 43.8349 16.5967 47.7843C16.3845 47.8627 16.1463 47.8235 15.9731 47.684C11.7719 44.3754 8.35471 42.6972 5.80804 42.6972C4.64298 42.6972 3.43895 42.9326 2.22625 43.3946C1.72818 43.5821 1.38602 44.018 1.30806 44.5585C1.2301 45.1078 1.44232 45.6309 1.87976 45.9622C4.02797 47.6099 8.2551 50.8008 12.4086 53.6996C12.7031 53.9044 12.7767 54.3142 12.5732 54.6106C12.4476 54.7937 12.244 54.894 12.0404 54.894L12.0448 54.8852Z" fill="#373A3A"/>
<path id="Vector_177" d="M20.4209 65.3472C18.0388 65.3472 16.3583 64.5539 14.5783 63.7126C12.3001 62.6359 9.71449 61.4153 4.82905 61.4153C4.82905 61.4153 4.31365 61.4153 4.10576 61.4153C3.16592 61.4328 2.28238 61.0187 1.69768 60.2689C1.12165 59.5322 0.926753 58.5863 1.16063 57.6839C1.96621 54.5977 4.20104 53.2812 8.62739 53.2812C9.75347 53.2812 10.8969 53.3771 12.1182 53.5733C12.1312 53.5733 12.1442 53.5733 12.1529 53.5777C14.6736 53.9787 17.1033 54.759 19.3598 55.5436L19.9055 55.7398C20.2433 55.8618 20.4209 56.2324 20.2996 56.5767C20.1784 56.9167 19.8059 57.0955 19.4681 56.9734L18.931 56.7816C16.7438 56.0188 14.3877 55.2646 11.9753 54.8767C11.9623 54.8767 11.9493 54.8767 11.9363 54.8723C10.7713 54.6849 9.6885 54.5933 8.62306 54.5933C4.19671 54.5933 2.96669 55.9054 2.41231 58.0196C2.28238 58.5253 2.39065 59.0483 2.71115 59.4625C3.04032 59.8853 3.53839 60.1294 4.07111 60.112C4.28766 60.112 4.82038 60.112 4.82038 60.112C9.99601 60.112 12.7203 61.3979 15.124 62.5313C16.8391 63.3421 18.3247 64.0395 20.4166 64.0395C21.6639 64.0395 22.6601 63.6298 23.6345 62.7143C23.8987 62.4702 24.3059 62.4833 24.5527 62.7492C24.7953 63.0151 24.7823 63.4292 24.5181 63.6734C23.2967 64.8154 21.9931 65.3472 20.4122 65.3472H20.4209Z" fill="#373A3A"/>
<path id="Vector_178" d="M33.0546 59.2925C31.7942 59.2925 30.7548 58.7999 29.5507 58.2288C27.9049 57.4486 26.0426 56.568 22.8766 56.568C21.7375 56.568 20.7327 56.7075 19.8881 56.9865C19.546 57.0998 19.1822 56.9124 19.0696 56.568C18.9569 56.2237 19.1475 55.8531 19.4853 55.7442C20.4598 55.4259 21.5989 55.2603 22.8722 55.2603C26.3241 55.2603 28.416 56.2498 30.0965 57.0475C31.2009 57.5706 32.0758 57.9847 33.0502 57.9847C34.3842 57.9847 37.0175 56.167 39.339 54.5628C40.6859 53.6343 41.9549 52.7538 43.055 52.1523C43.3712 51.9822 43.7653 52.0956 43.9342 52.4138C44.1031 52.732 43.9905 53.1287 43.6744 53.2987C42.6349 53.8697 41.3876 54.7285 40.0709 55.6395C37.351 57.5183 34.7827 59.2925 33.0459 59.2925H33.0546Z" fill="#373A3A"/>
<path id="Vector_179" d="M33.7737 68.2416C31.8291 68.2416 29.7458 67.0603 27.3334 65.6872C26.2203 65.0551 25.0683 64.4013 23.8036 63.7823C21.9542 62.8756 20.2348 62.2522 18.5457 61.8643C17.4543 61.6114 16.6184 60.7745 16.3672 59.676C16.1246 58.6254 16.4884 57.5575 17.3157 56.8905C17.935 56.3936 18.6626 56.0056 19.4899 55.7397C19.832 55.6307 20.2002 55.8182 20.3084 56.1625C20.4167 56.5069 20.2305 56.8731 19.8883 56.9864C19.204 57.2087 18.6236 57.5095 18.1256 57.9106C17.6838 58.268 17.4976 58.8172 17.6275 59.3839C17.7358 59.8591 18.1083 60.4258 18.8272 60.5914C20.6116 61.0012 22.422 61.6594 24.3623 62.6097C25.6616 63.2461 26.8354 63.9087 27.9658 64.5538C30.2179 65.8354 32.1626 66.9382 33.7694 66.9382C34.523 66.9382 35.3416 66.8206 36.1905 66.5852C36.5369 66.4893 36.8921 66.6941 36.9874 67.0429C37.0827 67.3916 36.8791 67.749 36.5326 67.8449C35.5668 68.1108 34.6399 68.246 33.7651 68.246L33.7737 68.2416Z" fill="#373A3A"/>
<path id="Vector_180" d="M19.1477 56.8209C18.8662 56.8209 18.6063 56.6378 18.5241 56.3501C18.4244 56.0057 18.6193 55.6395 18.9658 55.5393C21.6857 54.7416 24.3104 53.3772 26.8527 52.0607C29.2478 50.8184 31.7295 49.5324 34.3281 48.6868C34.6703 48.5778 35.0341 48.7652 35.1467 49.1052C35.2593 49.4496 35.0687 49.8158 34.7309 49.9291C32.2319 50.7443 29.8022 52.004 27.4504 53.2246C24.8517 54.5716 22.1708 55.9621 19.3296 56.7991C19.269 56.8165 19.2084 56.8252 19.1477 56.8252V56.8209Z" fill="#373A3A"/>
<path id="Vector_181" d="M37.7928 68.6689C36.9959 68.6689 36.2423 68.2547 35.8135 67.5573C35.5234 67.0821 35.4107 66.5155 35.506 65.9619C36.3073 61.241 40.8376 60.8748 46.1258 60.5217L46.442 59.9725C47.5031 58.1242 48.5945 56.2193 50.0108 54.6238C49.7682 54.5759 49.4997 54.5585 49.2052 54.541C48.4473 54.4931 47.5074 54.432 46.6066 53.6953C46.3294 53.4687 46.2861 53.0546 46.5156 52.7756C46.7408 52.4966 47.1523 52.453 47.4295 52.684C48.0055 53.1548 48.5988 53.194 49.2875 53.2376C49.9848 53.2812 50.773 53.3335 51.505 53.8871C51.6566 54.0005 51.7519 54.1792 51.7649 54.3666C51.7779 54.5584 51.7042 54.7459 51.57 54.8767C49.9545 56.4634 48.7418 58.5775 47.5681 60.6263C47.4035 60.914 47.2389 61.1974 47.0786 61.4807C46.9704 61.6681 46.7755 61.7902 46.5589 61.8033L46.429 61.812C40.6773 62.2 37.3944 62.5923 36.788 66.1842C36.7361 66.4893 36.8313 66.7247 36.918 66.8686C37.1345 67.2173 37.533 67.4047 37.9314 67.3524C39.6335 67.1257 41.2317 67.0168 42.8125 67.0168C43.9906 67.0168 44.7442 67.0691 45.4718 67.1214C46.0955 67.165 46.6845 67.2086 47.4944 67.2086C52.3192 67.2086 53.2634 65.7744 54.9742 63.1764C55.8534 61.8425 56.9448 60.1817 58.8245 58.3945C59.0411 58.1852 59.2706 57.9847 59.5088 57.7798C61.5661 56.0275 64.0824 54.4582 67.2094 52.9892C69.4529 51.9299 71.5708 50.3955 73.1777 48.6649C73.4245 48.4034 73.836 48.386 74.0959 48.6344C74.36 48.8829 74.373 49.2927 74.1262 49.5586C72.4111 51.4025 70.1502 53.0415 67.7638 54.1705C64.7451 55.5916 62.3197 57.0954 60.3534 58.7737C60.1325 58.9611 59.9203 59.1486 59.721 59.3404C57.9496 61.0274 56.9448 62.553 56.0613 63.8956C54.2942 66.5765 53.0209 68.5163 47.4988 68.5163C46.6455 68.5163 46.0349 68.4727 45.3852 68.4291C44.6792 68.3812 43.9473 68.3289 42.8169 68.3289C41.2923 68.3289 39.7505 68.4335 38.109 68.6514C38.0051 68.6645 37.9011 68.6732 37.7972 68.6732L37.7928 68.6689Z" fill="#373A3A"/>
<path id="Vector_182" d="M76.2657 66.0577C71.8047 66.0577 67.3307 65.0639 63.9135 63.0761C61.774 61.8338 60.1931 60.2732 59.3529 58.5644C59.1927 58.2419 59.3269 57.8495 59.6474 57.6883C59.9679 57.527 60.3577 57.6621 60.518 57.9847C61.2456 59.4624 62.6445 60.8355 64.5632 61.9471C71.0381 65.7134 81.5063 65.7134 87.9033 61.9471C88.0766 61.8468 88.2455 61.7422 88.4057 61.642C91.0737 59.9245 92.5462 57.7624 92.5462 55.5436C92.5462 53.1591 90.9004 50.8837 87.9077 49.1357C86.3311 48.2203 84.4774 47.5098 82.4029 47.0303C82.052 46.9474 81.8355 46.5987 81.9135 46.2456C81.9957 45.8925 82.3422 45.6746 82.693 45.753C84.8932 46.263 86.8682 47.0172 88.5573 48.0023C91.9702 49.9901 93.8455 52.6666 93.8455 55.5392C93.8455 58.2157 92.1608 60.7745 89.1074 62.7405C88.9341 62.8538 88.7479 62.9628 88.5616 63.0717C85.1834 65.0595 80.7311 66.0534 76.2701 66.0534L76.2657 66.0577Z" fill="#373A3A"/>
<path id="Vector_183" d="M76.2354 75.5389C71.7744 75.5389 67.3134 74.5537 63.9135 72.579C60.5006 70.5956 58.6252 67.9192 58.6252 65.0421V58.8653C58.6252 58.5035 58.9154 58.2114 59.2749 58.2114C59.6344 58.2114 59.9246 58.5035 59.9246 58.8653V65.0421C59.9246 67.4309 61.5704 69.7064 64.5631 71.45C70.9991 75.1901 81.4716 75.1901 87.9033 71.45C90.896 69.7064 92.5418 67.4309 92.5418 65.0421C92.5418 64.6803 92.832 64.3883 93.1915 64.3883C93.551 64.3883 93.8412 64.6803 93.8412 65.0421C93.8412 67.9148 91.9615 70.5913 88.5529 72.579C85.1574 74.5537 80.692 75.5389 76.231 75.5389H76.2354Z" fill="#373A3A"/>
<path id="Vector_184" d="M93.1958 65.6915C92.8363 65.6915 92.5461 65.3994 92.5461 65.0376V55.5391C92.5461 55.1773 92.8363 54.8853 93.1958 54.8853C93.5553 54.8853 93.8455 55.1773 93.8455 55.5391V65.0376C93.8455 65.3994 93.5553 65.6915 93.1958 65.6915Z" fill="#373A3A"/>
<path id="Vector_185" d="M41.8294 46.9692C41.6042 46.9692 41.3876 46.8515 41.2663 46.6423L25.5446 19.2366C24.0763 16.6822 23.2708 13.9316 23.2708 11.4992C23.2708 8.93604 24.163 7.00932 25.7784 6.07211C25.7914 6.06339 25.8044 6.05904 25.8174 6.05032C29.1177 4.22821 34.1114 6.99188 37.2384 12.4451L42.0633 20.8625L46.6585 18.1948C47.3342 17.8025 48.0964 17.6063 48.9237 17.6063C52.0247 17.6063 55.7191 20.4048 58.1142 24.5721C61.2586 30.0559 61.1546 35.8448 57.876 37.7497L42.1499 46.882C42.0459 46.9431 41.9377 46.9692 41.825 46.9692H41.8294ZM26.4541 7.18804C26.4541 7.18804 26.4368 7.19676 26.4281 7.20112C25.2284 7.89422 24.5657 9.42426 24.5657 11.4992C24.5657 13.7049 25.3107 16.2245 26.6663 18.5827L42.0633 45.4217L57.2263 36.6163C59.7817 35.1299 59.6734 29.912 56.9881 25.226C54.8529 21.5077 51.5353 18.914 48.9193 18.914C48.3216 18.914 47.7803 19.0535 47.3039 19.3281L42.1499 22.3228C41.9983 22.41 41.825 22.4318 41.6561 22.3882C41.4916 22.3446 41.3486 22.2357 41.262 22.0831L36.1124 13.099C33.4358 8.43475 29.0137 5.72774 26.4541 7.18804Z" fill="#373A3A"/>
<path id="Vector_186" d="M57.5988 37.9155C57.3736 37.9155 57.157 37.7978 57.0357 37.5885C56.8582 37.2747 56.9621 36.878 57.2739 36.6949L66.8283 31.1502C67.3437 30.8494 67.7595 30.396 68.0713 29.7988C69.284 27.4623 68.6906 23.4302 66.5901 19.7598C63.9005 15.0781 59.4655 12.3755 56.9058 13.8576L51.7605 16.8523C51.6132 16.9395 51.4357 16.9613 51.2668 16.9177C51.1022 16.8741 50.9592 16.7651 50.8726 16.6125L45.7187 7.62844C43.0421 2.9642 38.6244 0.257195 36.0604 1.71314L26.4627 7.18381C26.1509 7.36253 25.7568 7.2492 25.5792 6.93534C25.4016 6.62148 25.5142 6.22045 25.8261 6.04608L35.415 0.57541C38.6937 -1.29029 43.709 1.51698 46.8361 6.97457L51.6652 15.392L56.2518 12.7242C59.5348 10.8237 64.5631 13.6266 67.7118 19.1016C70.0636 23.2079 70.6569 27.6411 69.219 30.4004C68.7946 31.2199 68.2056 31.852 67.4736 32.2792L57.9193 37.8239C57.8153 37.885 57.707 37.9111 57.5944 37.9111L57.5988 37.9155Z" fill="#373A3A"/>
</g>
</g>
</g>
</g>
<defs>
<clipPath id="clip0_2064_4448">
<rect width="109" height="79" fill="white"/>
</clipPath>
</defs>
</svg>
