<svg width="545" height="673" viewBox="0 0 545 673" fill="none" xmlns="http://www.w3.org/2000/svg">
<g clip-path="url(#clip0_2080_6687)">
<path d="M186.789 209.353L365.759 312.686V673H367.842V311.487L187.818 207.559L186.789 209.353Z" fill="black"/>
<path d="M98.5925 673V260.866L187.818 209.353L186.789 207.559L96.5094 259.668V673H98.5925Z" fill="black"/>
<path d="M-350 105.331L-171.694 2.40606L96.5264 157.244V260.271H98.5925V156.045C8.4744 104.064 -81.5672 51.9471 -171.702 0C-231.16 34.2715 -290.584 68.594 -350 102.942V105.34V105.331Z" fill="black"/>
<path d="M8.84003 673V311.487L-81.4396 259.37L-82.4684 261.172L6.75695 312.686V673H8.84003Z" fill="black"/>
<path d="M186.262 208.46V673H188.328L188.337 208.46H186.262Z" fill="black"/>
<path d="M456.038 466.631L366.286 518.442L367.323 520.236L457.067 468.425L456.038 466.631Z" fill="black"/>
<path d="M545 517.397L457.067 466.631L456.038 468.425L545 519.777V517.397Z" fill="black"/>
<path d="M455.52 467.524V673H457.586V467.524H455.52Z" fill="black"/>
<path d="M98.0739 312.984L187.308 261.461L366.286 364.795L367.323 363.001L187.308 259.081L97.0281 311.19L98.0739 312.984Z" fill="black"/>
<path d="M98.0739 364.795L187.308 313.281L366.286 416.614L367.323 414.812L187.308 310.892L97.0281 363.001L98.0739 364.795Z" fill="black"/>
<path d="M98.0739 416.614L187.308 365.092L366.286 468.425L367.323 466.631L187.308 362.703L97.0281 414.812L98.0739 416.614Z" fill="black"/>
<path d="M98.0654 468.425L187.299 416.912L366.286 520.236L367.323 518.442L187.308 414.514L97.0281 466.631L98.0654 468.425Z" fill="black"/>
<path d="M98.0654 520.236L187.299 468.723L366.286 572.056L367.323 570.262L187.308 466.325L97.0281 518.442L98.0654 520.236Z" fill="black"/>
<path d="M98.0654 572.056L187.299 520.534L366.286 623.858L367.323 622.064L187.308 518.145L97.0281 570.262L98.0654 572.056Z" fill="black"/>
<path d="M98.0654 623.859L187.299 572.354L361.643 673H365.784L187.308 569.956L97.0281 622.065L98.0654 623.859Z" fill="black"/>
<path d="M102.708 673L187.299 624.165L271.891 673H276.031L187.299 621.767L98.567 673H102.708Z" fill="black"/>
<path d="M545 569.199L456.557 518.136L366.286 570.262L367.323 572.056L456.557 520.534L545 571.597V569.199Z" fill="black"/>
<path d="M545 621.01L456.557 569.956L366.286 622.065L367.323 623.859L456.557 572.354L545 623.408V621.01Z" fill="black"/>
<path d="M545 672.839L456.557 621.784L367.85 673H371.991L456.557 624.182L541.123 673H545V672.839Z" fill="black"/>
<path d="M366.804 468.57H545V466.487H366.804V468.57Z" fill="black"/>
<path d="M366.804 416.75H545V414.676H366.804V416.75Z" fill="black"/>
<path d="M366.804 364.939H545V362.865H366.804V364.939Z" fill="black"/>
<path d="M366.804 313.128H545V311.045H366.804V313.128Z" fill="black"/>
<path d="M277.052 261.308H545V259.234H277.052V261.308Z" fill="black"/>
<path d="M97.5553 209.497H545V207.414H97.5553V209.497Z" fill="black"/>
<path d="M-350 157.151L-171.694 54.2171L97.0366 209.353L98.0739 207.559L-171.702 51.8196L-350 154.762V157.151Z" fill="black"/>
<path d="M-350 208.962L-171.702 106.02L97.0281 261.164L98.0739 259.37L-171.702 103.631L-350 206.564V208.962Z" fill="black"/>
<path d="M-305.804 235.258L-171.702 157.839L97.0281 312.983L98.0739 311.19L-171.702 155.45L-306.85 233.473L-305.804 235.258Z" fill="black"/>
<path d="M98.0739 363.001L8.31288 311.19L7.28411 312.984L97.0281 364.795L98.0739 363.001Z" fill="black"/>
<path d="M98.0739 414.812L8.31288 363.001L7.28411 364.795L97.0281 416.614L98.0739 414.812Z" fill="black"/>
<path d="M98.0654 466.631L8.3129 414.82L7.28413 416.614L97.0281 468.425L98.0654 466.631Z" fill="black"/>
<path d="M98.0654 518.442L8.3129 466.631L7.28413 468.425L97.0281 520.236L98.0654 518.442Z" fill="black"/>
<path d="M98.0654 570.253L8.3129 518.442L7.28413 520.236L97.0281 572.039L98.0654 570.253Z" fill="black"/>
<path d="M98.0654 622.065L8.3129 570.262L7.28413 572.056L97.0281 623.858L98.0654 622.065Z" fill="black"/>
<path d="M96.5349 673L8.31283 622.064L7.28406 623.858L92.3857 673H96.5349Z" fill="black"/>
<path d="M8.31287 363.001L-81.9498 310.892L-261.965 414.812L-260.936 416.614L-81.9498 313.281L7.2841 364.795L8.31287 363.001Z" fill="black"/>
<path d="M8.31287 414.82L-81.9498 362.712L-261.965 466.631L-260.936 468.425L-81.9498 365.092L7.2841 416.614L8.31287 414.82Z" fill="black"/>
<path d="M8.31287 466.631L-81.9498 414.514L-217.089 492.537L-216.06 494.331L-81.9498 416.912L7.2841 468.425L8.31287 466.631Z" fill="black"/>
<path d="M8.31287 518.442L-81.9498 466.325L-172.221 518.451L-171.175 520.245L-81.9498 468.723L7.2841 520.236L8.31287 518.442Z" fill="black"/>
<path d="M8.31287 570.262L-81.9498 518.145L-172.212 570.262L-171.184 572.056L-81.9498 520.542L7.2841 572.056L8.31287 570.262Z" fill="black"/>
<path d="M8.31287 622.065L-81.9498 569.956L-172.212 622.065L-171.184 623.859L-81.9498 572.354L7.2841 623.859L8.31287 622.065Z" fill="black"/>
<path d="M6.76544 673L-81.9497 621.784L-170.656 673H-166.516L-81.9497 624.182L2.61626 673H6.76544Z" fill="black"/>
<path d="M97.5553 157.678H545V155.603H97.5553V157.678Z" fill="black"/>
</g>
<defs>
<clipPath id="clip0_2080_6687">
<rect width="895" height="673" fill="white" transform="matrix(-1 0 0 1 545 0)"/>
</clipPath>
</defs>
</svg>
