<svg width="1440" height="673" viewBox="0 0 1440 673" fill="none" xmlns="http://www.w3.org/2000/svg">
<g clip-path="url(#clip0_1_1226)">
<path d="M903.211 209.353L724.241 312.686V673H722.158V311.487L902.182 207.559L903.211 209.353Z" fill="black"/>
<path d="M991.408 673V260.866L902.182 209.353L903.211 207.559L993.491 259.668V673H991.408Z" fill="black"/>
<path d="M1440 105.331L1261.69 2.40606L993.474 157.244V260.271H991.407V156.045C1081.53 104.064 1171.57 51.9471 1261.7 0C1321.16 34.2715 1380.58 68.594 1440 102.942V105.34V105.331Z" fill="black"/>
<path d="M1172.47 259.37L1352.48 363.298V467.524H1350.42V364.489L1171.44 261.172L1172.47 259.37Z" fill="black"/>
<path d="M1081.16 673V311.487L1171.44 259.37L1172.47 261.172L1083.24 312.686V673H1081.16Z" fill="black"/>
<path d="M1262.74 1.19873V312.091H1260.67V1.19873H1262.74Z" fill="black"/>
<path d="M1172.99 260.271V673H1170.91V260.271H1172.99Z" fill="black"/>
<path d="M903.738 208.46V673H901.672L901.663 208.46H903.738Z" fill="black"/>
<path d="M1440 210.348L1352.48 260.875V363.902H1350.42L1350.41 259.668L1440 207.958V210.348Z" fill="black"/>
<path d="M1440 417.617L1262.74 519.939V673H1260.67L1260.66 518.74L1440 415.211V417.617Z" fill="black"/>
<path d="M633.962 466.631L723.714 518.442L722.677 520.236L632.933 468.425L633.962 466.631Z" fill="black"/>
<path d="M545 517.397L632.933 466.631L633.962 468.425L545 519.777V517.397Z" fill="black"/>
<path d="M634.48 467.524V673H632.414V467.524H634.48Z" fill="black"/>
<path d="M991.926 312.984L902.692 261.461L723.714 364.795L722.677 363.001L902.692 259.081L992.972 311.19L991.926 312.984Z" fill="black"/>
<path d="M991.926 364.795L902.692 313.281L723.714 416.614L722.677 414.812L902.692 310.892L992.972 363.001L991.926 364.795Z" fill="black"/>
<path d="M991.926 416.614L902.692 365.092L723.714 468.425L722.677 466.631L902.692 362.703L992.972 414.812L991.926 416.614Z" fill="black"/>
<path d="M991.935 468.425L902.701 416.912L723.714 520.236L722.677 518.442L902.692 414.514L992.972 466.631L991.935 468.425Z" fill="black"/>
<path d="M991.935 520.236L902.701 468.723L723.714 572.056L722.677 570.262L902.692 466.325L992.972 518.442L991.935 520.236Z" fill="black"/>
<path d="M991.935 572.056L902.701 520.534L723.714 623.858L722.677 622.064L902.692 518.145L992.972 570.262L991.935 572.056Z" fill="black"/>
<path d="M991.935 623.859L902.701 572.354L728.357 673H724.216L902.692 569.956L992.972 622.065L991.935 623.859Z" fill="black"/>
<path d="M987.292 673L902.701 624.165L818.109 673H813.969L902.701 621.767L991.433 673H987.292Z" fill="black"/>
<path d="M545 569.199L633.443 518.136L723.714 570.262L722.677 572.056L633.443 520.534L545 571.597V569.199Z" fill="black"/>
<path d="M545 621.01L633.443 569.956L723.714 622.065L722.677 623.859L633.443 572.354L545 623.408V621.01Z" fill="black"/>
<path d="M545 672.839L633.443 621.784L722.15 673H718.009L633.443 624.182L548.877 673H545V672.839Z" fill="black"/>
<path d="M723.196 468.57H545V466.487H723.196V468.57Z" fill="black"/>
<path d="M723.196 416.75H545V414.676H723.196V416.75Z" fill="black"/>
<path d="M723.196 364.939H545V362.865H723.196V364.939Z" fill="black"/>
<path d="M723.196 313.128H545V311.045H723.196V313.128Z" fill="black"/>
<path d="M812.948 261.308H545V259.234H812.948V261.308Z" fill="black"/>
<path d="M992.445 209.497H545V207.414H992.445V209.497Z" fill="black"/>
<path d="M1440 157.151L1261.69 54.2171L992.963 209.353L991.926 207.559L1261.7 51.8196L1440 154.762V157.151Z" fill="black"/>
<path d="M1440 208.962L1261.7 106.02L992.972 261.164L991.926 259.37L1261.7 103.631L1440 206.564V208.962Z" fill="black"/>
<path d="M1395.8 235.258L1261.7 157.839L992.972 312.983L991.926 311.19L1261.7 155.45L1396.85 233.473L1395.8 235.258Z" fill="black"/>
<path d="M991.926 363.001L1081.69 311.19L1082.72 312.984L992.972 364.795L991.926 363.001Z" fill="black"/>
<path d="M991.926 414.812L1081.69 363.001L1082.72 364.795L992.972 416.614L991.926 414.812Z" fill="black"/>
<path d="M991.935 466.631L1081.69 414.82L1082.72 416.614L992.972 468.425L991.935 466.631Z" fill="black"/>
<path d="M991.935 518.442L1081.69 466.631L1082.72 468.425L992.972 520.236L991.935 518.442Z" fill="black"/>
<path d="M991.935 570.253L1081.69 518.442L1082.72 520.236L992.972 572.039L991.935 570.253Z" fill="black"/>
<path d="M991.935 622.065L1081.69 570.262L1082.72 572.056L992.972 623.858L991.935 622.065Z" fill="black"/>
<path d="M993.465 673L1081.69 622.064L1082.72 623.858L997.614 673H993.465Z" fill="black"/>
<path d="M1350.93 261.172L1261.7 209.65L1172.47 261.172L1171.43 259.37L1261.7 207.261L1351.97 259.37L1350.93 261.172Z" fill="black"/>
<path d="M1350.93 312.984L1261.7 261.462L1217.34 287.069L1216.31 285.276L1261.7 259.064L1351.97 311.19L1350.93 312.984Z" fill="black"/>
<path d="M1081.69 363.001L1171.95 310.892L1351.97 414.812L1350.94 416.614L1171.95 313.281L1082.72 364.795L1081.69 363.001Z" fill="black"/>
<path d="M1081.69 414.82L1171.95 362.712L1351.97 466.631L1350.94 468.425L1171.95 365.092L1082.72 416.614L1081.69 414.82Z" fill="black"/>
<path d="M1081.69 466.631L1171.95 414.514L1307.09 492.537L1306.06 494.331L1171.95 416.912L1082.72 468.425L1081.69 466.631Z" fill="black"/>
<path d="M1081.69 518.442L1171.95 466.325L1262.22 518.451L1261.18 520.245L1171.95 468.723L1082.72 520.236L1081.69 518.442Z" fill="black"/>
<path d="M1081.69 570.262L1171.95 518.145L1262.21 570.262L1261.18 572.056L1171.95 520.542L1082.72 572.056L1081.69 570.262Z" fill="black"/>
<path d="M1081.69 622.065L1171.95 569.956L1262.21 622.065L1261.18 623.859L1171.95 572.354L1082.72 623.859L1081.69 622.065Z" fill="black"/>
<path d="M1083.23 673L1171.95 621.784L1260.66 673H1256.52L1171.95 624.182L1087.38 673H1083.23Z" fill="black"/>
<path d="M1440 262.159L1351.96 312.983L1350.94 311.19L1440 259.77V262.159Z" fill="black"/>
<path d="M1440 313.978L1351.96 364.803L1350.94 363.001L1440 311.589V313.978Z" fill="black"/>
<path d="M1440 365.789L1351.96 416.614L1350.94 414.812L1440 363.4V365.789Z" fill="black"/>
<path d="M1440 469.429L1262.21 572.056L1261.18 570.262L1440 467.031V469.429Z" fill="black"/>
<path d="M1440 521.231L1262.21 623.859L1261.18 622.065L1440 518.842V521.231Z" fill="black"/>
<path d="M1440 573.059L1266.88 673H1262.74L1440 570.67V573.059Z" fill="black"/>
<path d="M1440 624.87L1356.63 673H1352.48L1440 622.481V624.87Z" fill="black"/>
<path d="M992.445 157.678H545V155.603H992.445V157.678Z" fill="black"/>
</g>
<g clip-path="url(#clip1_1_1226)">
<path d="M186.789 209.353L365.759 312.686V673H367.842V311.487L187.818 207.559L186.789 209.353Z" fill="black"/>
<path d="M98.5925 673V260.866L187.818 209.353L186.789 207.559L96.5094 259.668V673H98.5925Z" fill="black"/>
<path d="M-350 105.331L-171.694 2.40606L96.5264 157.244V260.271H98.5925V156.045C8.4744 104.064 -81.5672 51.9471 -171.702 0C-231.16 34.2715 -290.584 68.594 -350 102.942V105.34V105.331Z" fill="black"/>
<path d="M8.84003 673V311.487L-81.4396 259.37L-82.4684 261.172L6.75695 312.686V673H8.84003Z" fill="black"/>
<path d="M186.262 208.46V673H188.328L188.337 208.46H186.262Z" fill="black"/>
<path d="M456.038 466.631L366.286 518.442L367.323 520.236L457.067 468.425L456.038 466.631Z" fill="black"/>
<path d="M545 517.397L457.067 466.631L456.038 468.425L545 519.777V517.397Z" fill="black"/>
<path d="M455.52 467.524V673H457.586V467.524H455.52Z" fill="black"/>
<path d="M98.0739 312.984L187.308 261.461L366.286 364.795L367.323 363.001L187.308 259.081L97.0281 311.19L98.0739 312.984Z" fill="black"/>
<path d="M98.0739 364.795L187.308 313.281L366.286 416.614L367.323 414.812L187.308 310.892L97.0281 363.001L98.0739 364.795Z" fill="black"/>
<path d="M98.0739 416.614L187.308 365.092L366.286 468.425L367.323 466.631L187.308 362.703L97.0281 414.812L98.0739 416.614Z" fill="black"/>
<path d="M98.0654 468.425L187.299 416.912L366.286 520.236L367.323 518.442L187.308 414.514L97.0281 466.631L98.0654 468.425Z" fill="black"/>
<path d="M98.0654 520.236L187.299 468.723L366.286 572.056L367.323 570.262L187.308 466.325L97.0281 518.442L98.0654 520.236Z" fill="black"/>
<path d="M98.0654 572.056L187.299 520.534L366.286 623.858L367.323 622.064L187.308 518.145L97.0281 570.262L98.0654 572.056Z" fill="black"/>
<path d="M98.0654 623.859L187.299 572.354L361.643 673H365.784L187.308 569.956L97.0281 622.065L98.0654 623.859Z" fill="black"/>
<path d="M102.708 673L187.299 624.165L271.891 673H276.031L187.299 621.767L98.567 673H102.708Z" fill="black"/>
<path d="M545 569.199L456.557 518.136L366.286 570.262L367.323 572.056L456.557 520.534L545 571.597V569.199Z" fill="black"/>
<path d="M545 621.01L456.557 569.956L366.286 622.065L367.323 623.859L456.557 572.354L545 623.408V621.01Z" fill="black"/>
<path d="M545 672.839L456.557 621.784L367.85 673H371.991L456.557 624.182L541.123 673H545V672.839Z" fill="black"/>
<path d="M366.804 468.57H545V466.487H366.804V468.57Z" fill="black"/>
<path d="M366.804 416.75H545V414.676H366.804V416.75Z" fill="black"/>
<path d="M366.804 364.939H545V362.865H366.804V364.939Z" fill="black"/>
<path d="M366.804 313.128H545V311.045H366.804V313.128Z" fill="black"/>
<path d="M277.052 261.308H545V259.234H277.052V261.308Z" fill="black"/>
<path d="M97.5553 209.497H545V207.414H97.5553V209.497Z" fill="black"/>
<path d="M-350 157.151L-171.694 54.2171L97.0366 209.353L98.0739 207.559L-171.702 51.8196L-350 154.762V157.151Z" fill="black"/>
<path d="M-350 208.962L-171.702 106.02L97.0281 261.164L98.0739 259.37L-171.702 103.631L-350 206.564V208.962Z" fill="black"/>
<path d="M-305.804 235.258L-171.702 157.839L97.0281 312.983L98.0739 311.19L-171.702 155.45L-306.85 233.473L-305.804 235.258Z" fill="black"/>
<path d="M98.0739 363.001L8.31288 311.19L7.28411 312.984L97.0281 364.795L98.0739 363.001Z" fill="black"/>
<path d="M98.0739 414.812L8.31288 363.001L7.28411 364.795L97.0281 416.614L98.0739 414.812Z" fill="black"/>
<path d="M98.0654 466.631L8.3129 414.82L7.28413 416.614L97.0281 468.425L98.0654 466.631Z" fill="black"/>
<path d="M98.0654 518.442L8.3129 466.631L7.28413 468.425L97.0281 520.236L98.0654 518.442Z" fill="black"/>
<path d="M98.0654 570.253L8.3129 518.442L7.28413 520.236L97.0281 572.039L98.0654 570.253Z" fill="black"/>
<path d="M98.0654 622.065L8.3129 570.262L7.28413 572.056L97.0281 623.858L98.0654 622.065Z" fill="black"/>
<path d="M96.5349 673L8.31283 622.064L7.28406 623.858L92.3857 673H96.5349Z" fill="black"/>
<path d="M8.31287 363.001L-81.9498 310.892L-261.965 414.812L-260.936 416.614L-81.9498 313.281L7.2841 364.795L8.31287 363.001Z" fill="black"/>
<path d="M8.31287 414.82L-81.9498 362.712L-261.965 466.631L-260.936 468.425L-81.9498 365.092L7.2841 416.614L8.31287 414.82Z" fill="black"/>
<path d="M8.31287 466.631L-81.9498 414.514L-217.089 492.537L-216.06 494.331L-81.9498 416.912L7.2841 468.425L8.31287 466.631Z" fill="black"/>
<path d="M8.31287 518.442L-81.9498 466.325L-172.221 518.451L-171.175 520.245L-81.9498 468.723L7.2841 520.236L8.31287 518.442Z" fill="black"/>
<path d="M8.31287 570.262L-81.9498 518.145L-172.212 570.262L-171.184 572.056L-81.9498 520.542L7.2841 572.056L8.31287 570.262Z" fill="black"/>
<path d="M8.31287 622.065L-81.9498 569.956L-172.212 622.065L-171.184 623.859L-81.9498 572.354L7.2841 623.859L8.31287 622.065Z" fill="black"/>
<path d="M6.76544 673L-81.9497 621.784L-170.656 673H-166.516L-81.9497 624.182L2.61626 673H6.76544Z" fill="black"/>
<path d="M97.5553 157.678H545V155.603H97.5553V157.678Z" fill="black"/>
</g>
<defs>
<clipPath id="clip0_1_1226">
<rect width="895" height="673" fill="white" transform="translate(545)"/>
</clipPath>
<clipPath id="clip1_1_1226">
<rect width="895" height="673" fill="white" transform="matrix(-1 0 0 1 545 0)"/>
</clipPath>
</defs>
</svg>
