<svg width="895" height="673" viewBox="0 0 895 673" fill="none" xmlns="http://www.w3.org/2000/svg">
<g clip-path="url(#clip0_2080_6629)">
<path d="M358.211 209.353L179.241 312.686V673H177.158V311.487L357.182 207.559L358.211 209.353Z" fill="black"/>
<path d="M446.408 673V260.866L357.182 209.353L358.211 207.559L448.491 259.668V673H446.408Z" fill="black"/>
<path d="M895 105.331L716.694 2.40606L448.474 157.244V260.271H446.407V156.045C536.526 104.064 626.567 51.9471 716.702 0C776.16 34.2715 835.584 68.594 895 102.942V105.34V105.331Z" fill="black"/>
<path d="M627.468 259.37L807.484 363.298V467.524H805.418V364.489L626.44 261.172L627.468 259.37Z" fill="black"/>
<path d="M536.16 673V311.487L626.44 259.37L627.468 261.172L538.243 312.686V673H536.16Z" fill="black"/>
<path d="M717.74 1.19873V312.091H715.665V1.19873H717.74Z" fill="black"/>
<path d="M627.987 260.271V673H625.913V260.271H627.987Z" fill="black"/>
<path d="M358.738 208.46V673H356.672L356.663 208.46H358.738Z" fill="black"/>
<path d="M895 210.348L807.484 260.875V363.902H805.418L805.409 259.668L895 207.958V210.348Z" fill="black"/>
<path d="M895 417.617L717.74 519.939V673H715.665L715.656 518.74L895 415.211V417.617Z" fill="black"/>
<path d="M88.9618 466.631L178.714 518.442L177.677 520.236L87.933 468.425L88.9618 466.631Z" fill="black"/>
<path d="M0 517.397L87.933 466.631L88.9618 468.425L0 519.777V517.397Z" fill="black"/>
<path d="M89.4804 467.524V673H87.4143V467.524H89.4804Z" fill="black"/>
<path d="M446.926 312.984L357.692 261.461L178.714 364.795L177.677 363.001L357.692 259.081L447.972 311.19L446.926 312.984Z" fill="black"/>
<path d="M446.926 364.795L357.692 313.281L178.714 416.614L177.677 414.812L357.692 310.892L447.972 363.001L446.926 364.795Z" fill="black"/>
<path d="M446.926 416.614L357.692 365.092L178.714 468.425L177.677 466.631L357.692 362.703L447.972 414.812L446.926 416.614Z" fill="black"/>
<path d="M446.935 468.425L357.701 416.912L178.714 520.236L177.677 518.442L357.692 414.514L447.972 466.631L446.935 468.425Z" fill="black"/>
<path d="M446.935 520.236L357.701 468.723L178.714 572.056L177.677 570.262L357.692 466.325L447.972 518.442L446.935 520.236Z" fill="black"/>
<path d="M446.935 572.056L357.701 520.534L178.714 623.858L177.677 622.064L357.692 518.145L447.972 570.262L446.935 572.056Z" fill="black"/>
<path d="M446.935 623.859L357.701 572.354L183.357 673H179.216L357.692 569.956L447.972 622.065L446.935 623.859Z" fill="black"/>
<path d="M442.292 673L357.701 624.165L273.109 673H268.969L357.701 621.767L446.433 673H442.292Z" fill="black"/>
<path d="M0 569.199L88.4431 518.136L178.714 570.262L177.677 572.056L88.4431 520.534L0 571.597V569.199Z" fill="black"/>
<path d="M0 621.01L88.4431 569.956L178.714 622.065L177.677 623.859L88.4431 572.354L0 623.408V621.01Z" fill="black"/>
<path d="M0 672.839L88.4431 621.784L177.15 673H173.009L88.4431 624.182L3.87715 673H0V672.839Z" fill="black"/>
<path d="M178.196 468.57H0V466.487H178.196V468.57Z" fill="black"/>
<path d="M178.196 416.75H0V414.676H178.196V416.75Z" fill="black"/>
<path d="M178.196 364.939H0V362.865H178.196V364.939Z" fill="black"/>
<path d="M178.196 313.128H0V311.045H178.196V313.128Z" fill="black"/>
<path d="M267.948 261.308H0V259.234H267.948V261.308Z" fill="black"/>
<path d="M447.445 209.497H0V207.414H447.445V209.497Z" fill="black"/>
<path d="M895 157.151L716.694 54.2171L447.963 209.353L446.926 207.559L716.702 51.8196L895 154.762V157.151Z" fill="black"/>
<path d="M895 208.962L716.702 106.02L447.972 261.164L446.926 259.37L716.702 103.631L895 206.564V208.962Z" fill="black"/>
<path d="M850.804 235.258L716.702 157.839L447.972 312.983L446.926 311.19L716.702 155.45L851.85 233.473L850.804 235.258Z" fill="black"/>
<path d="M446.926 363.001L536.687 311.19L537.716 312.984L447.972 364.795L446.926 363.001Z" fill="black"/>
<path d="M446.926 414.812L536.687 363.001L537.716 364.795L447.972 416.614L446.926 414.812Z" fill="black"/>
<path d="M446.935 466.631L536.687 414.82L537.716 416.614L447.972 468.425L446.935 466.631Z" fill="black"/>
<path d="M446.935 518.442L536.687 466.631L537.716 468.425L447.972 520.236L446.935 518.442Z" fill="black"/>
<path d="M446.935 570.253L536.687 518.442L537.716 520.236L447.972 572.039L446.935 570.253Z" fill="black"/>
<path d="M446.935 622.065L536.687 570.262L537.716 572.056L447.972 623.858L446.935 622.065Z" fill="black"/>
<path d="M448.465 673L536.687 622.064L537.716 623.858L452.614 673H448.465Z" fill="black"/>
<path d="M805.928 261.172L716.702 209.65L627.468 261.172L626.431 259.37L716.702 207.261L806.965 259.37L805.928 261.172Z" fill="black"/>
<path d="M805.928 312.984L716.702 261.462L672.345 287.069L671.307 285.276L716.702 259.064L806.965 311.19L805.928 312.984Z" fill="black"/>
<path d="M536.687 363.001L626.95 310.892L806.965 414.812L805.936 416.614L626.95 313.281L537.716 364.795L536.687 363.001Z" fill="black"/>
<path d="M536.687 414.82L626.95 362.712L806.965 466.631L805.936 468.425L626.95 365.092L537.716 416.614L536.687 414.82Z" fill="black"/>
<path d="M536.687 466.631L626.95 414.514L762.089 492.537L761.06 494.331L626.95 416.912L537.716 468.425L536.687 466.631Z" fill="black"/>
<path d="M536.687 518.442L626.95 466.325L717.221 518.451L716.175 520.245L626.95 468.723L537.716 520.236L536.687 518.442Z" fill="black"/>
<path d="M536.687 570.262L626.95 518.145L717.212 570.262L716.184 572.056L626.95 520.542L537.716 572.056L536.687 570.262Z" fill="black"/>
<path d="M536.687 622.065L626.95 569.956L717.212 622.065L716.184 623.859L626.95 572.354L537.716 623.859L536.687 622.065Z" fill="black"/>
<path d="M538.235 673L626.95 621.784L715.657 673H711.516L626.95 624.182L542.384 673H538.235Z" fill="black"/>
<path d="M895 262.159L806.965 312.983L805.936 311.19L895 259.77V262.159Z" fill="black"/>
<path d="M895 313.978L806.965 364.803L805.936 363.001L895 311.589V313.978Z" fill="black"/>
<path d="M895 365.789L806.965 416.614L805.936 414.812L895 363.4V365.789Z" fill="black"/>
<path d="M895 469.429L717.212 572.056L716.184 570.262L895 467.031V469.429Z" fill="black"/>
<path d="M895 521.231L717.212 623.859L716.184 622.065L895 518.842V521.231Z" fill="black"/>
<path d="M895 573.059L721.88 673H717.74L895 570.67V573.059Z" fill="black"/>
<path d="M895 624.87L811.633 673H807.484L895 622.481V624.87Z" fill="black"/>
<path d="M447.445 157.678H0V155.603H447.445V157.678Z" fill="black"/>
</g>
<defs>
<clipPath id="clip0_2080_6629">
<rect width="895" height="673" fill="white"/>
</clipPath>
</defs>
</svg>
