<svg width="70" height="13" viewBox="0 0 70 13" fill="none" xmlns="http://www.w3.org/2000/svg">
<g id="OBJECTS" clip-path="url(#clip0_2080_6622)">
<path id="Vector" d="M7.3954 12.8952L2.44561 5.04725V12.8952H0V0.104858H2.18201L7.1318 7.93781V0.104858H9.57741V12.8952H7.3954Z" fill="black"/>
<path id="Vector_2" d="M20.0628 11.6071C19.1841 12.5057 18.1151 13.0149 16.6946 13.0149C15.2741 13.0149 14.1904 12.5057 13.3117 11.6071C12.0523 10.3191 12.0816 8.71655 12.0816 6.49996C12.0816 4.28337 12.0523 2.69581 13.3117 1.39282C14.1904 0.494202 15.2741 -0.0150146 16.6946 -0.0150146C18.1151 -0.0150146 19.1841 0.494202 20.0628 1.39282C21.3222 2.68084 21.3075 4.28337 21.3075 6.49996C21.3075 8.71655 21.3222 10.3041 20.0628 11.6071ZM18.2469 2.92047C17.8954 2.50111 17.3536 2.23153 16.6799 2.23153C16.0063 2.23153 15.4498 2.50111 15.0983 2.92047C14.6297 3.45964 14.4979 4.05872 14.4979 6.51494C14.4979 8.97116 14.6151 9.57024 15.0983 10.1094C15.4498 10.5288 16.0063 10.7983 16.6799 10.7983C17.3536 10.7983 17.8954 10.5288 18.2469 10.1094C18.7155 9.57024 18.8619 8.97116 18.8619 6.51494C18.8619 4.05872 18.7155 3.45964 18.2469 2.92047Z" fill="black"/>
<path id="Vector_3" d="M31.2072 12.8952L26.2574 5.04725V12.8952H23.8118V0.104858H25.9938L30.9436 7.93781V0.104858H33.3892V12.8952H31.2072Z" fill="black"/>
<path id="Vector_4" d="M43.4205 12.8952L42.6883 10.6337H38.251L37.4895 12.8952H34.9414L39.4812 0.104858H41.3996L45.9686 12.8952H43.4205ZM40.5063 3.87905L38.9247 8.53689H42.0293L40.5063 3.87905Z" fill="black"/>
<path id="Vector_5" d="M56.41 12.8952V5.43666L54.023 10.2892H52.3682L49.9665 5.43666V12.8952H47.5209V0.104858H49.9225L53.1882 7.02421L56.4393 0.104858H58.841V12.8952H56.3953H56.41Z" fill="black"/>
<path id="Vector_6" d="M61.7699 12.8952V0.104858H70V2.33643H64.2009V5.33182H69.136V7.56338H64.2009V10.6636H70V12.8952H61.7699Z" fill="black"/>
</g>
<defs>
<clipPath id="clip0_2080_6622">
<rect width="70" height="13" fill="white"/>
</clipPath>
</defs>
</svg>
